<?xml version="1.0" encoding="utf-8"?>
<svg width="220px" height="80px" viewBox="0 0 220 80" version="1.1" xmlns:xlink="http://www.w3.org/1999/xlink" xmlns="http://www.w3.org/2000/svg">
  <desc>Created with Lunacy</desc>
  <defs>
    <path d="M14.999 0L65.001 0Q65.3692 0 65.737 0.0180669Q66.1047 0.0361339 66.4712 0.0722243Q66.8376 0.108315 67.2018 0.162341Q67.566 0.216368 67.9271 0.288202Q68.2883 0.360035 68.6455 0.449501Q69.0026 0.538968 69.355 0.645852Q69.7073 0.752736 70.054 0.87678Q70.4007 1.00082 70.7409 1.14173Q71.081 1.28264 71.4139 1.44006Q71.7467 1.59749 72.0715 1.77106Q72.3962 1.94463 72.712 2.13393Q73.0278 2.32322 73.334 2.52779Q73.6401 2.73235 73.9359 2.95169Q74.2316 3.17103 74.5163 3.40462Q74.8009 3.6382 75.0737 3.88547Q75.3465 4.13274 75.6069 4.39311Q75.8673 4.65346 76.1145 4.92629Q76.3618 5.19911 76.5954 5.48373Q76.829 5.76836 77.0483 6.06411Q77.2676 6.35985 77.4722 6.666Q77.6768 6.97215 77.8661 7.28797Q78.0554 7.60379 78.2289 7.92852Q78.4025 8.25325 78.5599 8.5861Q78.7174 8.91895 78.8583 9.25913Q78.9992 9.59931 79.1232 9.94599Q79.2473 10.2927 79.3541 10.645Q79.461 10.9974 79.5505 11.3545Q79.64 11.7117 79.7118 12.0728Q79.7836 12.434 79.8376 12.7982Q79.8917 13.1624 79.9278 13.5288Q79.9639 13.8953 79.9819 14.263Q80 14.6308 80 14.999L80 65.001Q80 65.3692 79.9819 65.737Q79.9639 66.1047 79.9278 66.4712Q79.8917 66.8376 79.8376 67.2018Q79.7836 67.566 79.7118 67.9271Q79.64 68.2883 79.5505 68.6455Q79.461 69.0026 79.3541 69.355Q79.2473 69.7073 79.1232 70.054Q78.9992 70.4007 78.8583 70.7409Q78.7174 71.081 78.5599 71.4139Q78.4025 71.7467 78.2289 72.0715Q78.0554 72.3962 77.8661 72.712Q77.6768 73.0278 77.4722 73.334Q77.2676 73.6401 77.0483 73.9359Q76.829 74.2316 76.5954 74.5163Q76.3618 74.8009 76.1145 75.0737Q75.8673 75.3465 75.6069 75.6069Q75.3465 75.8673 75.0737 76.1145Q74.8009 76.3618 74.5163 76.5954Q74.2316 76.829 73.9359 77.0483Q73.6401 77.2676 73.334 77.4722Q73.0279 77.6768 72.712 77.8661Q72.3962 78.0554 72.0715 78.2289Q71.7467 78.4025 71.4139 78.5599Q71.081 78.7174 70.7409 78.8583Q70.4007 78.9992 70.054 79.1232Q69.7073 79.2473 69.355 79.3541Q69.0026 79.461 68.6455 79.5505Q68.2883 79.64 67.9272 79.7118Q67.566 79.7836 67.2018 79.8376Q66.8376 79.8917 66.4712 79.9278Q66.1047 79.9639 65.737 79.9819Q65.3692 80 65.001 80L14.999 80Q14.6308 80 14.263 79.9819Q13.8953 79.9639 13.5288 79.9278Q13.1624 79.8917 12.7982 79.8376Q12.434 79.7836 12.0728 79.7118Q11.7117 79.64 11.3545 79.5505Q10.9974 79.461 10.645 79.3541Q10.2927 79.2473 9.94599 79.1232Q9.59931 78.9992 9.25913 78.8583Q8.91895 78.7174 8.5861 78.5599Q8.25325 78.4025 7.92852 78.2289Q7.60379 78.0554 7.28797 77.8661Q6.97215 77.6768 6.666 77.4722Q6.35985 77.2676 6.06411 77.0483Q5.76836 76.829 5.48373 76.5954Q5.19911 76.3618 4.92629 76.1145Q4.65346 75.8673 4.39311 75.6069Q4.13274 75.3465 3.88547 75.0737Q3.6382 74.8009 3.40462 74.5163Q3.17103 74.2316 2.95169 73.9359Q2.73235 73.6401 2.52779 73.334Q2.32322 73.0279 2.13393 72.712Q1.94463 72.3962 1.77106 72.0715Q1.59749 71.7467 1.44006 71.4139Q1.28264 71.081 1.14173 70.7409Q1.00082 70.4007 0.87678 70.054Q0.752736 69.7073 0.645852 69.355Q0.538968 69.0026 0.449501 68.6455Q0.360035 68.2883 0.288202 67.9272Q0.216368 67.566 0.162341 67.2018Q0.108315 66.8376 0.0722243 66.4712Q0.0361339 66.1047 0.0180669 65.737Q0 65.3692 0 65.001L0 14.999Q0 14.6308 0.0180669 14.263Q0.0361339 13.8953 0.0722243 13.5288Q0.108315 13.1624 0.162341 12.7982Q0.216368 12.434 0.288202 12.0728Q0.360035 11.7117 0.449501 11.3545Q0.538968 10.9974 0.645852 10.645Q0.752736 10.2927 0.87678 9.94599Q1.00082 9.59931 1.14173 9.25913Q1.28264 8.91895 1.44006 8.5861Q1.59749 8.25325 1.77106 7.92852Q1.94463 7.60379 2.13393 7.28797Q2.32322 6.97215 2.52779 6.666Q2.73235 6.35985 2.95169 6.06411Q3.17103 5.76836 3.40462 5.48373Q3.6382 5.19911 3.88547 4.92629Q4.13274 4.65346 4.39311 4.39311Q4.65346 4.13274 4.92629 3.88547Q5.19911 3.6382 5.48373 3.40462Q5.76836 3.17103 6.06411 2.95169Q6.35985 2.73235 6.666 2.52779Q6.97215 2.32322 7.28797 2.13393Q7.60379 1.94463 7.92852 1.77106Q8.25325 1.59749 8.5861 1.44006Q8.91895 1.28264 9.25913 1.14173Q9.59931 1.00082 9.94599 0.87678Q10.2927 0.752736 10.645 0.645852Q10.9974 0.538968 11.3545 0.449501Q11.7117 0.360035 12.0728 0.288202Q12.434 0.216368 12.7982 0.162341Q13.1624 0.108315 13.5288 0.0722243Q13.8953 0.0361339 14.263 0.0180669Q14.6308 0 14.999 0L14.999 0Z" id="path_1" />
    <clipPath id="clip_1">
      <use xlink:href="#path_1" />
    </clipPath>
  </defs>
  <g id="Материально">
    <g id="Матеріальна-допомога" transform="translate(101 22)">
      <g id="Матеріальна" fill="#363B5D">
        <path d="M54.8965 7.0166Q54.5098 7.0166 54.2373 6.75293Q53.9648 6.48926 53.9648 6.08496Q53.9648 5.68066 54.2373 5.4126Q54.5098 5.14453 54.8965 5.14453Q55.292 5.14453 55.5688 5.4126Q55.8457 5.68066 55.8457 6.08496Q55.8457 6.47168 55.5688 6.74414Q55.292 7.0166 54.8965 7.0166ZM14.502 18.3018L13.0342 18.3018L13.0342 9.84668Q13.0342 8.84473 13.1572 7.39453L13.1221 7.39453Q12.9111 8.24707 12.7441 8.61621L8.4375 18.3018L7.7168 18.3018L3.41895 8.68652Q3.23438 8.26465 3.04102 7.39453L3.00586 7.39453Q3.07617 8.15039 3.07617 9.86426L3.07617 18.3018L1.65234 18.3018L1.65234 5.69824L3.60352 5.69824L7.4707 14.4873Q7.91895 15.498 8.05078 15.999L8.10352 15.999Q8.48144 14.9619 8.70996 14.4521L12.6563 5.69824L14.502 5.69824L14.502 18.3018ZM24.0645 18.3018L22.623 18.3018L22.623 16.8955L22.5879 16.8955Q21.6475 18.5127 19.8193 18.5127Q18.4746 18.5127 17.7144 17.8008Q16.9541 17.0889 16.9541 15.9111Q16.9541 13.3887 19.9248 12.9756L22.623 12.5977Q22.623 10.3037 20.7686 10.3037Q19.1426 10.3037 17.833 11.4111L17.833 9.93457Q19.1602 9.09082 20.8916 9.09082Q24.0645 9.09082 24.0645 12.4482L24.0645 18.3018ZM41.3965 14.1621L35.042 14.1621Q35.0771 15.665 35.8506 16.4824Q36.624 17.2998 37.9775 17.2998Q39.498 17.2998 40.7725 16.2979L40.7725 17.6514Q39.5859 18.5127 37.6348 18.5127Q35.7275 18.5127 34.6377 17.2866Q33.5479 16.0605 33.5479 13.8369Q33.5479 11.7363 34.7388 10.4136Q35.9297 9.09082 37.6963 9.09082Q39.4629 9.09082 40.4297 10.2334Q41.3965 11.376 41.3965 13.4063L41.3965 14.1621ZM45.0176 17.001L45.0527 17.001Q46.002 18.5127 47.751 18.5127Q49.6582 18.5127 50.7568 17.1548Q51.8555 15.7969 51.8555 13.5381Q51.8555 11.5078 50.8799 10.2993Q49.9043 9.09082 48.1641 9.09082Q46.1162 9.09082 45.0527 10.8838L45.0176 10.8838L45.0176 9.30176L43.5762 9.30176L43.5762 22.4414L45.0176 22.4414L45.0176 17.001ZM63.5186 18.3018L64.96 18.3018L64.96 12.4482Q64.96 9.09082 61.7871 9.09082Q60.0557 9.09082 58.7285 9.93457L58.7285 11.4111Q60.0381 10.3037 61.6641 10.3037Q63.5186 10.3037 63.5186 12.5977L60.8203 12.9756Q57.8496 13.3887 57.8496 15.9111Q57.8496 17.0889 58.6099 17.8008Q59.3701 18.5127 60.7148 18.5127Q62.543 18.5127 63.4834 16.8955L63.5186 16.8955L63.5186 18.3018ZM101.619 18.3018L103.061 18.3018L103.061 12.4482Q103.061 9.09082 99.8877 9.09082Q98.1563 9.09082 96.8291 9.93457L96.8291 11.4111Q98.1387 10.3037 99.7646 10.3037Q101.619 10.3037 101.619 12.5977L98.9209 12.9756Q95.9502 13.3887 95.9502 15.9111Q95.9502 17.0889 96.7104 17.8008Q97.4707 18.5127 98.8154 18.5127Q100.644 18.5127 101.584 16.8955L101.619 16.8955L101.619 18.3018ZM29.7334 10.5322L32.4316 10.5322L32.4316 9.30176L25.585 9.30176L25.585 10.5322L28.292 10.5322L28.292 18.3018L29.7334 18.3018L29.7334 10.5322ZM55.5996 18.3018L54.1582 18.3018L54.1582 9.30176L55.5996 9.30176L55.5996 18.3018ZM74.2412 18.3018L72.8086 18.3018L72.8086 10.5234L70.7168 10.5234Q70.3564 14.8916 69.4819 16.6582Q68.6074 18.4248 67.1309 18.4248Q66.6826 18.4248 66.3574 18.3018L66.3574 17.0625Q66.665 17.2207 67.0254 17.2207Q68.959 17.2207 69.5127 9.30176L74.2412 9.30176L74.2412 18.3018ZM77.1592 9.30176L77.1592 18.3018L81.1494 18.3018Q82.3975 18.3018 83.2148 17.5459Q84.0322 16.79 84.0322 15.4893Q84.0322 14.1973 83.2192 13.4766Q82.4063 12.7559 81.0264 12.7559L78.6006 12.7559L78.6006 9.30176L77.1592 9.30176ZM93.7002 18.3018L92.2588 18.3018L92.2588 14.2148L87.6709 14.2148L87.6709 18.3018L86.2295 18.3018L86.2295 9.30176L87.6709 9.30176L87.6709 12.9932L92.2588 12.9932L92.2588 9.30176L93.7002 9.30176L93.7002 18.3018ZM39.9199 12.9404Q39.9111 11.6924 39.3179 10.998Q38.7246 10.3037 37.6699 10.3037Q36.6504 10.3037 35.9385 11.0332Q35.2266 11.7627 35.0596 12.9404L39.9199 12.9404ZM45.0176 14.6279L45.0176 13.3711Q45.0176 12.0527 45.7822 11.1782Q46.5469 10.3037 47.8037 10.3037Q48.9902 10.3037 49.6846 11.1563Q50.3789 12.0088 50.3789 13.5117Q50.3789 15.2959 49.6362 16.2979Q48.8936 17.2998 47.584 17.2998Q46.4678 17.2998 45.7427 16.522Q45.0176 15.7441 45.0176 14.6279ZM22.623 13.749L20.4521 14.0479Q19.4502 14.1885 18.9404 14.5444Q18.4307 14.9004 18.4307 15.8057Q18.4307 16.4648 18.9009 16.8823Q19.3711 17.2998 20.1533 17.2998Q21.2256 17.2998 21.9243 16.5483Q22.623 15.7969 22.623 14.6455L22.623 13.749ZM61.3477 14.0479L63.5186 13.749L63.5186 14.6455Q63.5186 15.7969 62.8198 16.5483Q62.1211 17.2998 61.0488 17.2998Q60.2666 17.2998 59.7964 16.8823Q59.3262 16.4648 59.3262 15.8057Q59.3262 14.9004 59.8359 14.5444Q60.3457 14.1885 61.3477 14.0479ZM99.4482 14.0479L101.619 13.749L101.619 14.6455Q101.619 15.7969 100.92 16.5483Q100.222 17.2998 99.1494 17.2998Q98.3672 17.2998 97.897 16.8823Q97.4268 16.4648 97.4268 15.8057Q97.4268 14.9004 97.9365 14.5444Q98.4463 14.1885 99.4482 14.0479ZM78.6006 17.0713L78.6006 13.9951L80.7451 13.9951Q82.5557 13.9951 82.5557 15.4893Q82.5557 17.0713 80.7627 17.0713L78.6006 17.0713Z" />
      </g>
      <g id="допомога" fill="#363B5D">
        <path d="M11.8784 41.2515Q13.0693 42.5127 15.0645 42.5127Q17.1123 42.5127 18.3296 41.2163Q19.5469 39.9199 19.5469 37.7666Q19.5469 35.5693 18.4175 34.3301Q17.2881 33.0908 15.2754 33.0908Q13.166 33.0908 11.9268 34.3652Q10.6875 35.6396 10.6875 37.9072Q10.6875 39.9902 11.8784 41.2515ZM32.814 41.2515Q34.0049 42.5127 36 42.5127Q38.0479 42.5127 39.2651 41.2163Q40.4824 39.9199 40.4824 37.7666Q40.4824 35.5693 39.353 34.3301Q38.2236 33.0908 36.2109 33.0908Q34.1016 33.0908 32.8623 34.3652Q31.623 35.6396 31.623 37.9072Q31.623 39.9902 32.814 41.2515ZM55.9995 41.2515Q57.1904 42.5127 59.1855 42.5127Q61.2334 42.5127 62.4507 41.2163Q63.668 39.9199 63.668 37.7666Q63.668 35.5693 62.5386 34.3301Q61.4092 33.0908 59.3965 33.0908Q57.2871 33.0908 56.0479 34.3652Q54.8086 35.6396 54.8086 37.9072Q54.8086 39.9902 55.9995 41.2515ZM77.8623 42.3018L79.3037 42.3018L79.3037 36.4482Q79.3037 33.0908 76.1309 33.0908Q74.3994 33.0908 73.0723 33.9346L73.0723 35.4111Q74.3818 34.3037 76.0078 34.3037Q77.8623 34.3037 77.8623 36.5977L75.1641 36.9756Q72.1934 37.3887 72.1934 39.9111Q72.1934 41.0889 72.9536 41.8008Q73.7139 42.5127 75.0586 42.5127Q76.8867 42.5127 77.8271 40.8955L77.8623 40.8955L77.8623 42.3018ZM8.08594 45.5801L9.30762 45.5801L9.30762 41.0801L7.97168 41.0801L7.97168 33.3018L3.2959 33.3018Q3.26074 37.7578 0.958008 41.0801L0.158203 41.0801L0.158203 45.5801L1.38867 45.5801L1.38867 42.3018L8.08594 42.3018L8.08594 45.5801ZM29.3203 42.3018L27.8789 42.3018L27.8789 34.5322L23.291 34.5322L23.291 42.3018L21.8496 42.3018L21.8496 33.3018L29.3203 33.3018L29.3203 42.3018ZM52.5059 42.3018L51.082 42.3018L51.082 34.8838Q50.8887 35.4463 50.4844 36.5361L48.2344 42.3018L46.9424 42.3018L44.6221 36.5361Q44.4375 36.0703 44.0244 34.8838L44.0244 42.3018L42.7852 42.3018L42.7852 33.3018L44.6221 33.3018L46.9951 39.1729Q47.25 39.8145 47.6455 40.9482L48.2871 39.208L50.5898 33.3018L52.5059 33.3018L52.5059 42.3018ZM70.9717 34.5322L67.4121 34.5322L67.4121 42.3018L65.9707 42.3018L65.9707 33.3018L70.9717 33.3018L70.9717 34.5322ZM12.9727 35.2485Q13.7813 34.3037 15.1699 34.3037Q16.5674 34.3037 17.3188 35.2178Q18.0703 36.1318 18.0703 37.8193Q18.0703 39.4893 17.3188 40.3945Q16.5674 41.2998 15.1699 41.2998Q13.7988 41.2998 12.9814 40.377Q12.1641 39.4541 12.1641 37.8545Q12.1641 36.1934 12.9727 35.2485ZM33.9082 35.2485Q34.7168 34.3037 36.1055 34.3037Q37.5029 34.3037 38.2544 35.2178Q39.0059 36.1318 39.0059 37.8193Q39.0059 39.4893 38.2544 40.3945Q37.5029 41.2998 36.1055 41.2998Q34.7344 41.2998 33.917 40.377Q33.0996 39.4541 33.0996 37.8545Q33.0996 36.1934 33.9082 35.2485ZM57.0938 35.2485Q57.9023 34.3037 59.291 34.3037Q60.6885 34.3037 61.4399 35.2178Q62.1914 36.1318 62.1914 37.8193Q62.1914 39.4893 61.4399 40.3945Q60.6885 41.2998 59.291 41.2998Q57.9199 41.2998 57.1025 40.377Q56.2852 39.4541 56.2852 37.8545Q56.2852 36.1934 57.0938 35.2485ZM6.53027 34.5234L6.53027 41.0801L2.4873 41.0801Q4.29785 38.1621 4.53516 34.5234L6.53027 34.5234ZM75.6914 38.0479L77.8623 37.749L77.8623 38.6455Q77.8623 39.7969 77.1636 40.5483Q76.4648 41.2998 75.3926 41.2998Q74.6104 41.2998 74.1401 40.8823Q73.6699 40.4648 73.6699 39.8057Q73.6699 38.9004 74.1797 38.5444Q74.6895 38.1885 75.6914 38.0479Z" />
      </g>
    </g>
    <g id="Rectangle-12-Copy-3">
      <g clip-path="url(#clip_1)">
        <use xlink:href="#path_1" fill="none" stroke="#C5D5E6" stroke-width="4" />
      </g>
    </g>
    <g id="clothes" transform="translate(18.33333 14)">
      <g id="Group">
        <path d="M16.0343 28.6532L10.0962 28.6532L10.0962 1.94175L13.7651 1.94175C14.2328 4.90809 16.8065 7.18395 19.9021 7.18395C22.9978 7.18395 25.5715 4.90809 26.0394 1.94175L29.7078 1.94175L29.7078 16.8092C29.7078 17.3454 30.1425 17.7801 30.6787 17.7801C31.2149 17.7801 31.6496 17.3454 31.6496 16.8092L31.6496 14.1921L33.739 15.2368C33.8777 15.3061 34.026 15.3393 34.1727 15.3393C34.4798 15.3393 34.7792 15.1935 34.9665 14.9282L39.6265 8.3266C39.9183 7.91314 39.8436 7.34485 39.4549 7.02084L31.3038 0.228479C31.1349 0.0860841 30.9169 0 30.6787 0L9.12532 0C8.88674 0 8.66862 0.086343 8.49956 0.229126L0.349396 7.02084C-0.0393414 7.34485 -0.114163 7.91314 0.177746 8.3266L4.83781 14.9282C5.02512 15.1934 5.32454 15.3393 5.6316 15.3393C5.77813 15.3393 5.92648 15.306 6.06525 15.2368L8.15457 14.1921L8.15457 29.6241C8.15457 30.1603 8.58927 30.595 9.12545 30.595L16.0344 30.595C16.5706 30.595 17.0053 30.1603 17.0053 29.6241C17.0053 29.0879 16.5705 28.6532 16.0343 28.6532ZM19.9021 5.2422C17.8808 5.2422 16.1841 3.83055 15.7431 1.94175L24.0612 1.94175C23.6202 3.83068 21.9235 5.2422 19.9021 5.2422ZM2.28079 7.9389L5.94292 13.1269L8.15444 12.0211L8.15444 3.04427L2.28079 7.9389ZM31.6496 12.0211L33.8611 13.1269L37.5232 7.9389L31.6496 3.04427L31.6496 12.0211Z" transform="translate(0.1197297 0)" id="Shape" fill="#C5D5E6" fill-rule="evenodd" stroke="none" />
        <path d="M0.970874 0L20.4914 0C21.0276 0 21.4623 0.434563 21.462 0.970874L21.462 35.1811C21.462 35.7173 21.0273 36.152 20.4911 36.152L13.0153 36.152C12.5001 36.152 12.0746 35.7494 12.046 35.235L10.731 11.5784L9.41605 35.235C9.38757 35.7495 8.96194 36.152 8.44673 36.152L0.970874 36.152C0.434693 36.152 0 35.7173 0 35.1811L0 0.970874C0 0.434693 0.434693 0 0.970874 0ZM5.00324 1.94175L5.00324 4.11456L1.94175 4.11456L1.94175 1.94175L5.00324 1.94175ZM6.94498 1.94175L6.94498 4.11456L14.5173 4.11456L14.5173 1.94175L6.94498 1.94175ZM19.5205 4.11456L16.459 4.11456L16.459 1.94175L19.5205 1.94175L19.5205 4.11456ZM12.6142 10.4695L13.934 34.2101L19.5206 34.2101L19.5206 6.05631L1.94188 6.05631L1.94188 34.2101L7.52854 34.2101L8.84816 10.4695C8.87663 9.95495 9.30227 9.55249 9.81748 9.55249L11.6449 9.55249C12.1601 9.55249 12.5856 9.95508 12.6142 10.4695Z" transform="translate(18.30369 18.90783)" id="Shape" fill="#C5D5E6" fill-rule="evenodd" stroke="none" />
      </g>
    </g>
  </g>
</svg>