<?xml version="1.0" encoding="utf-8"?>
<svg width="185px" height="80px" viewBox="0 0 185 80" version="1.1" xmlns:xlink="http://www.w3.org/1999/xlink" xmlns="http://www.w3.org/2000/svg">
  <desc>Created with Lunacy</desc>
  <defs>
    <path d="M14.999 0L65.001 0Q65.3692 0 65.737 0.0180669Q66.1047 0.0361339 66.4712 0.0722243Q66.8376 0.108315 67.2018 0.162341Q67.566 0.216368 67.9271 0.288202Q68.2883 0.360035 68.6455 0.449501Q69.0026 0.538968 69.355 0.645852Q69.7073 0.752736 70.054 0.87678Q70.4007 1.00082 70.7409 1.14173Q71.081 1.28264 71.4139 1.44006Q71.7467 1.59749 72.0715 1.77106Q72.3962 1.94463 72.712 2.13393Q73.0278 2.32322 73.334 2.52779Q73.6401 2.73235 73.9359 2.95169Q74.2316 3.17103 74.5163 3.40462Q74.8009 3.6382 75.0737 3.88547Q75.3465 4.13274 75.6069 4.39311Q75.8673 4.65346 76.1145 4.92629Q76.3618 5.19911 76.5954 5.48373Q76.829 5.76836 77.0483 6.06411Q77.2676 6.35985 77.4722 6.666Q77.6768 6.97215 77.8661 7.28797Q78.0554 7.60379 78.2289 7.92852Q78.4025 8.25325 78.5599 8.5861Q78.7174 8.91895 78.8583 9.25913Q78.9992 9.59931 79.1232 9.94599Q79.2473 10.2927 79.3541 10.645Q79.461 10.9974 79.5505 11.3545Q79.64 11.7117 79.7118 12.0728Q79.7836 12.434 79.8376 12.7982Q79.8917 13.1624 79.9278 13.5288Q79.9639 13.8953 79.9819 14.263Q80 14.6308 80 14.999L80 65.001Q80 65.3692 79.9819 65.737Q79.9639 66.1047 79.9278 66.4712Q79.8917 66.8376 79.8376 67.2018Q79.7836 67.566 79.7118 67.9271Q79.64 68.2883 79.5505 68.6455Q79.461 69.0026 79.3541 69.355Q79.2473 69.7073 79.1232 70.054Q78.9992 70.4007 78.8583 70.7409Q78.7174 71.081 78.5599 71.4139Q78.4025 71.7467 78.2289 72.0715Q78.0554 72.3962 77.8661 72.712Q77.6768 73.0278 77.4722 73.334Q77.2676 73.6401 77.0483 73.9359Q76.829 74.2316 76.5954 74.5163Q76.3618 74.8009 76.1145 75.0737Q75.8673 75.3465 75.6069 75.6069Q75.3465 75.8673 75.0737 76.1145Q74.8009 76.3618 74.5163 76.5954Q74.2316 76.829 73.9359 77.0483Q73.6401 77.2676 73.334 77.4722Q73.0279 77.6768 72.712 77.8661Q72.3962 78.0554 72.0715 78.2289Q71.7467 78.4025 71.4139 78.5599Q71.081 78.7174 70.7409 78.8583Q70.4007 78.9992 70.054 79.1232Q69.7073 79.2473 69.355 79.3541Q69.0026 79.461 68.6455 79.5505Q68.2883 79.64 67.9272 79.7118Q67.566 79.7836 67.2018 79.8376Q66.8376 79.8917 66.4712 79.9278Q66.1047 79.9639 65.737 79.9819Q65.3692 80 65.001 80L14.999 80Q14.6308 80 14.263 79.9819Q13.8953 79.9639 13.5288 79.9278Q13.1624 79.8917 12.7982 79.8376Q12.434 79.7836 12.0728 79.7118Q11.7117 79.64 11.3545 79.5505Q10.9974 79.461 10.645 79.3541Q10.2927 79.2473 9.94599 79.1232Q9.59931 78.9992 9.25913 78.8583Q8.91895 78.7174 8.5861 78.5599Q8.25325 78.4025 7.92852 78.2289Q7.60379 78.0554 7.28797 77.8661Q6.97215 77.6768 6.666 77.4722Q6.35985 77.2676 6.06411 77.0483Q5.76836 76.829 5.48373 76.5954Q5.19911 76.3618 4.92629 76.1145Q4.65346 75.8673 4.39311 75.6069Q4.13274 75.3465 3.88547 75.0737Q3.6382 74.8009 3.40462 74.5163Q3.17103 74.2316 2.95169 73.9359Q2.73235 73.6401 2.52779 73.334Q2.32322 73.0279 2.13393 72.712Q1.94463 72.3962 1.77106 72.0715Q1.59749 71.7467 1.44006 71.4139Q1.28264 71.081 1.14173 70.7409Q1.00082 70.4007 0.87678 70.054Q0.752736 69.7073 0.645852 69.355Q0.538968 69.0026 0.449501 68.6455Q0.360035 68.2883 0.288202 67.9272Q0.216368 67.566 0.162341 67.2018Q0.108315 66.8376 0.0722243 66.4712Q0.0361339 66.1047 0.0180669 65.737Q0 65.3692 0 65.001L0 14.999Q0 14.6308 0.0180669 14.263Q0.0361339 13.8953 0.0722243 13.5288Q0.108315 13.1624 0.162341 12.7982Q0.216368 12.434 0.288202 12.0728Q0.360035 11.7117 0.449501 11.3545Q0.538968 10.9974 0.645852 10.645Q0.752736 10.2927 0.87678 9.94599Q1.00082 9.59931 1.14173 9.25913Q1.28264 8.91895 1.44006 8.5861Q1.59749 8.25325 1.77106 7.92852Q1.94463 7.60379 2.13393 7.28797Q2.32322 6.97215 2.52779 6.666Q2.73235 6.35985 2.95169 6.06411Q3.17103 5.76836 3.40462 5.48373Q3.6382 5.19911 3.88547 4.92629Q4.13274 4.65346 4.39311 4.39311Q4.65346 4.13274 4.92629 3.88547Q5.19911 3.6382 5.48373 3.40462Q5.76836 3.17103 6.06411 2.95169Q6.35985 2.73235 6.666 2.52779Q6.97215 2.32322 7.28797 2.13393Q7.60379 1.94463 7.92852 1.77106Q8.25325 1.59749 8.5861 1.44006Q8.91895 1.28264 9.25913 1.14173Q9.59931 1.00082 9.94599 0.87678Q10.2927 0.752736 10.645 0.645852Q10.9974 0.538968 11.3545 0.449501Q11.7117 0.360035 12.0728 0.288202Q12.434 0.216368 12.7982 0.162341Q13.1624 0.108315 13.5288 0.0722243Q13.8953 0.0361339 14.263 0.0180669Q14.6308 0 14.999 0L14.999 0Z" id="path_1" />
    <clipPath id="clip_1">
      <use xlink:href="#path_1" />
    </clipPath>
  </defs>
  <g id="финансово">
    <g id="Фінансова-допомога" transform="translate(100 22)">
      <g id="Фінансова" fill="#363B5D">
        <path d="M15.2754 7.0166Q14.8887 7.0166 14.6162 6.75293Q14.3438 6.48926 14.3438 6.08496Q14.3438 5.68066 14.6162 5.4126Q14.8887 5.14453 15.2754 5.14453Q15.6709 5.14453 15.9478 5.4126Q16.2246 5.68066 16.2246 6.08496Q16.2246 6.47168 15.9478 6.74414Q15.6709 7.0166 15.2754 7.0166ZM7.29492 16.6494L7.29492 18.3018L5.92383 18.3018L5.92383 16.6494L5.68652 16.6494Q3.57715 16.6494 2.20166 15.2124Q0.826172 13.7754 0.826172 11.6748Q0.826172 9.6709 2.19727 8.2998Q3.56836 6.92871 5.7041 6.92871L5.92383 6.92871L5.92383 5.34668L7.29492 5.34668L7.29492 6.92871L7.50586 6.92871Q9.66797 6.92871 11.0259 8.27783Q12.3838 9.62695 12.3838 11.6748Q12.3838 13.749 11.0083 15.1992Q9.63281 16.6494 7.52344 16.6494L7.29492 16.6494ZM5.92383 15.3486L5.92383 8.16797L5.7041 8.16797Q4.20996 8.16797 3.2915 9.15234Q2.37305 10.1367 2.37305 11.6924Q2.37305 13.3623 3.27832 14.3555Q4.18359 15.3486 5.68652 15.3486L5.92383 15.3486ZM7.29492 8.16797L7.29492 15.3486L7.52344 15.3486Q9.02637 15.3486 9.93164 14.3511Q10.8369 13.3535 10.8369 11.6924Q10.8369 10.1104 9.93164 9.13916Q9.02637 8.16797 7.50586 8.16797L7.29492 8.16797ZM35.7275 18.3018L34.2861 18.3018L34.2861 16.8955L34.251 16.8955Q33.3105 18.5127 31.4824 18.5127Q30.1377 18.5127 29.3774 17.8008Q28.6172 17.0889 28.6172 15.9111Q28.6172 13.3887 31.5879 12.9756L34.2861 12.5977Q34.2861 10.3037 32.4316 10.3037Q30.8057 10.3037 29.4961 11.4111L29.4961 9.93457Q30.8232 9.09082 32.5547 9.09082Q35.7275 9.09082 35.7275 12.4482L35.7275 18.3018ZM54.9668 17.8887Q53.9297 18.5127 52.5059 18.5127Q50.5811 18.5127 49.3989 17.2603Q48.2168 16.0078 48.2168 14.0127Q48.2168 11.7891 49.4912 10.4399Q50.7656 9.09082 52.8926 9.09082Q54.0791 9.09082 54.9844 9.53027L54.9844 11.0068Q53.9824 10.3037 52.8398 10.3037Q51.46 10.3037 50.5767 11.2925Q49.6934 12.2813 49.6934 13.8896Q49.6934 15.4717 50.5239 16.3857Q51.3545 17.2998 52.752 17.2998Q53.9297 17.2998 54.9668 16.5176L54.9668 17.8887ZM57.7222 17.2515Q58.9131 18.5127 60.9082 18.5127Q62.9561 18.5127 64.1733 17.2163Q65.3906 15.9199 65.3906 13.7666Q65.3906 11.5693 64.2612 10.3301Q63.1318 9.09082 61.1191 9.09082Q59.0098 9.09082 57.7705 10.3652Q56.5313 11.6396 56.5313 13.9072Q56.5313 15.9902 57.7222 17.2515ZM82.2305 18.3018L83.6719 18.3018L83.6719 12.4482Q83.6719 9.09082 80.499 9.09082Q78.7676 9.09082 77.4404 9.93457L77.4404 11.4111Q78.75 10.3037 80.376 10.3037Q82.2305 10.3037 82.2305 12.5977L79.5322 12.9756Q76.5615 13.3887 76.5615 15.9111Q76.5615 17.0889 77.3218 17.8008Q78.082 18.5127 79.4268 18.5127Q81.2549 18.5127 82.1953 16.8955L82.2305 16.8955L82.2305 18.3018ZM15.9785 18.3018L14.5371 18.3018L14.5371 9.30176L15.9785 9.30176L15.9785 18.3018ZM24.9258 18.3018L26.3672 18.3018L26.3672 9.30176L24.9258 9.30176L24.9258 12.9932L20.3379 12.9932L20.3379 9.30176L18.8965 9.30176L18.8965 18.3018L20.3379 18.3018L20.3379 14.2148L24.9258 14.2148L24.9258 18.3018ZM44.4727 18.3018L45.9141 18.3018L45.9141 9.30176L44.4727 9.30176L44.4727 12.9932L39.8848 12.9932L39.8848 9.30176L38.4434 9.30176L38.4434 18.3018L39.8848 18.3018L39.8848 14.2148L44.4727 14.2148L44.4727 18.3018ZM67.6934 18.3018L67.6934 9.30176L71.6133 9.30176Q72.9404 9.30176 73.7095 9.89063Q74.4785 10.4795 74.4785 11.499Q74.4785 13.248 72.7559 13.626Q74.8213 13.8896 74.8213 15.709Q74.8213 16.8076 73.9731 17.5547Q73.125 18.3018 71.8682 18.3018L67.6934 18.3018ZM58.8164 11.2485Q59.625 10.3037 61.0137 10.3037Q62.4111 10.3037 63.1626 11.2178Q63.9141 12.1318 63.9141 13.8193Q63.9141 15.4893 63.1626 16.3945Q62.4111 17.2998 61.0137 17.2998Q59.6426 17.2998 58.8252 16.377Q58.0078 15.4541 58.0078 13.8545Q58.0078 12.1934 58.8164 11.2485ZM69.1348 10.5322L69.1348 13.0635L71.2969 13.0635Q73.0371 13.0635 73.0371 11.71Q73.0371 10.5322 71.4727 10.5322L69.1348 10.5322ZM34.2861 13.749L32.1152 14.0479Q31.1133 14.1885 30.6035 14.5444Q30.0938 14.9004 30.0938 15.8057Q30.0938 16.4648 30.564 16.8823Q31.0342 17.2998 31.8164 17.2998Q32.8887 17.2998 33.5874 16.5483Q34.2861 15.7969 34.2861 14.6455L34.2861 13.749ZM80.0596 14.0479L82.2305 13.749L82.2305 14.6455Q82.2305 15.7969 81.5317 16.5483Q80.833 17.2998 79.7607 17.2998Q78.9785 17.2998 78.5083 16.8823Q78.0381 16.4648 78.0381 15.8057Q78.0381 14.9004 78.5479 14.5444Q79.0576 14.1885 80.0596 14.0479ZM69.1348 14.2939L69.1348 17.0713L71.6309 17.0713Q73.3799 17.0713 73.3799 15.6563Q73.3799 14.2939 71.4199 14.2939L69.1348 14.2939Z" />
      </g>
      <g id="допомога" fill="#363B5D">
        <path d="M11.8784 41.2515Q13.0693 42.5127 15.0645 42.5127Q17.1123 42.5127 18.3296 41.2163Q19.5469 39.9199 19.5469 37.7666Q19.5469 35.5693 18.4175 34.3301Q17.2881 33.0908 15.2754 33.0908Q13.166 33.0908 11.9268 34.3652Q10.6875 35.6396 10.6875 37.9072Q10.6875 39.9902 11.8784 41.2515ZM32.814 41.2515Q34.0049 42.5127 36 42.5127Q38.0479 42.5127 39.2651 41.2163Q40.4824 39.9199 40.4824 37.7666Q40.4824 35.5693 39.353 34.3301Q38.2236 33.0908 36.2109 33.0908Q34.1016 33.0908 32.8623 34.3652Q31.623 35.6396 31.623 37.9072Q31.623 39.9902 32.814 41.2515ZM55.9995 41.2515Q57.1904 42.5127 59.1855 42.5127Q61.2334 42.5127 62.4507 41.2163Q63.668 39.9199 63.668 37.7666Q63.668 35.5693 62.5386 34.3301Q61.4092 33.0908 59.3965 33.0908Q57.2871 33.0908 56.0479 34.3652Q54.8086 35.6396 54.8086 37.9072Q54.8086 39.9902 55.9995 41.2515ZM77.8623 42.3018L79.3037 42.3018L79.3037 36.4482Q79.3037 33.0908 76.1309 33.0908Q74.3994 33.0908 73.0723 33.9346L73.0723 35.4111Q74.3818 34.3037 76.0078 34.3037Q77.8623 34.3037 77.8623 36.5977L75.1641 36.9756Q72.1934 37.3887 72.1934 39.9111Q72.1934 41.0889 72.9536 41.8008Q73.7139 42.5127 75.0586 42.5127Q76.8867 42.5127 77.8271 40.8955L77.8623 40.8955L77.8623 42.3018ZM8.08594 45.5801L9.30762 45.5801L9.30762 41.0801L7.97168 41.0801L7.97168 33.3018L3.2959 33.3018Q3.26074 37.7578 0.958008 41.0801L0.158203 41.0801L0.158203 45.5801L1.38867 45.5801L1.38867 42.3018L8.08594 42.3018L8.08594 45.5801ZM29.3203 42.3018L27.8789 42.3018L27.8789 34.5322L23.291 34.5322L23.291 42.3018L21.8496 42.3018L21.8496 33.3018L29.3203 33.3018L29.3203 42.3018ZM52.5059 42.3018L51.082 42.3018L51.082 34.8838Q50.8887 35.4463 50.4844 36.5361L48.2344 42.3018L46.9424 42.3018L44.6221 36.5361Q44.4375 36.0703 44.0244 34.8838L44.0244 42.3018L42.7852 42.3018L42.7852 33.3018L44.6221 33.3018L46.9951 39.1729Q47.25 39.8145 47.6455 40.9482L48.2871 39.208L50.5898 33.3018L52.5059 33.3018L52.5059 42.3018ZM70.9717 34.5322L67.4121 34.5322L67.4121 42.3018L65.9707 42.3018L65.9707 33.3018L70.9717 33.3018L70.9717 34.5322ZM12.9727 35.2485Q13.7813 34.3037 15.1699 34.3037Q16.5674 34.3037 17.3188 35.2178Q18.0703 36.1318 18.0703 37.8193Q18.0703 39.4893 17.3188 40.3945Q16.5674 41.2998 15.1699 41.2998Q13.7988 41.2998 12.9814 40.377Q12.1641 39.4541 12.1641 37.8545Q12.1641 36.1934 12.9727 35.2485ZM33.9082 35.2485Q34.7168 34.3037 36.1055 34.3037Q37.5029 34.3037 38.2544 35.2178Q39.0059 36.1318 39.0059 37.8193Q39.0059 39.4893 38.2544 40.3945Q37.5029 41.2998 36.1055 41.2998Q34.7344 41.2998 33.917 40.377Q33.0996 39.4541 33.0996 37.8545Q33.0996 36.1934 33.9082 35.2485ZM57.0938 35.2485Q57.9023 34.3037 59.291 34.3037Q60.6885 34.3037 61.4399 35.2178Q62.1914 36.1318 62.1914 37.8193Q62.1914 39.4893 61.4399 40.3945Q60.6885 41.2998 59.291 41.2998Q57.9199 41.2998 57.1025 40.377Q56.2852 39.4541 56.2852 37.8545Q56.2852 36.1934 57.0938 35.2485ZM6.53027 34.5234L6.53027 41.0801L2.4873 41.0801Q4.29785 38.1621 4.53516 34.5234L6.53027 34.5234ZM75.6914 38.0479L77.8623 37.749L77.8623 38.6455Q77.8623 39.7969 77.1636 40.5483Q76.4648 41.2998 75.3926 41.2998Q74.6104 41.2998 74.1401 40.8823Q73.6699 40.4648 73.6699 39.8057Q73.6699 38.9004 74.1797 38.5444Q74.6895 38.1885 75.6914 38.0479Z" />
      </g>
    </g>
    <g id="Rectangle-12">
      <g clip-path="url(#clip_1)">
        <use xlink:href="#path_1" fill="none" stroke="#C5D5E6" stroke-width="4" />
      </g>
    </g>
    <path d="M0.0329412 3.61882C0.0329412 1.62353 1.67059 0 3.68 0L40 0L40 29.0824L35.3929 29.0824L35.3929 32.9765L3.64706 32.9765C1.63529 32.9765 0 31.3529 0 29.3576L0 3.61882L0.0329412 3.61882ZM35.3929 4.65647L35.3929 14.1506L37.6471 14.1506L37.6471 2.35294L3.68 2.35294C2.96941 2.35294 2.38824 2.92 2.38588 3.61882C2.38588 4.33412 3.03765 4.65647 3.68 4.65647L35.3929 4.65647ZM3.64706 30.6212C2.93412 30.6212 2.35294 30.0541 2.35294 29.3553L2.35294 6.80706C2.40941 6.82353 2.48 6.81882 2.53647 6.83529C2.87294 6.93412 3.22588 6.99529 3.60235 7.00235C3.61882 7.00235 3.63059 7.00941 3.64706 7.00941L33.0424 7.00941L33.0424 14.1506L26.3153 14.1506C24.2871 14.1506 22.6376 15.7341 22.6376 17.68L22.6376 20.0329C22.6376 21.9788 24.2871 23.5624 26.3153 23.5624L33.0424 23.5624L33.0424 30.6212L3.64706 30.6212ZM24.9882 20.0329C24.9882 20.6824 25.5812 21.2094 26.3129 21.2094L37.6471 21.2094L37.6471 16.5035L26.3129 16.5035C25.5835 16.5035 24.9882 17.0306 24.9882 17.68L24.9882 20.0329ZM37.6471 26.7271L35.3929 26.7271L35.3929 23.5624L37.6471 23.5624L37.6471 26.7271Z" transform="translate(20 24)" id="Shape" fill="#C5D5E6" fill-rule="evenodd" stroke="none" />
  </g>
</svg>