<?xml version="1.0" encoding="utf-8"?>
<svg width="229px" height="80px" viewBox="0 0 229 80" version="1.1" xmlns:xlink="http://www.w3.org/1999/xlink" xmlns="http://www.w3.org/2000/svg">
  <desc>Created with Lunacy</desc>
  <defs>
    <path d="M14.999 0L65.001 0Q65.3692 0 65.737 0.0180669Q66.1047 0.0361339 66.4712 0.0722243Q66.8376 0.108315 67.2018 0.162341Q67.566 0.216368 67.9271 0.288202Q68.2883 0.360035 68.6455 0.449501Q69.0026 0.538968 69.355 0.645852Q69.7073 0.752736 70.054 0.87678Q70.4007 1.00082 70.7409 1.14173Q71.081 1.28264 71.4139 1.44006Q71.7467 1.59749 72.0715 1.77106Q72.3962 1.94463 72.712 2.13393Q73.0278 2.32322 73.334 2.52779Q73.6401 2.73235 73.9359 2.95169Q74.2316 3.17103 74.5163 3.40462Q74.8009 3.6382 75.0737 3.88547Q75.3465 4.13274 75.6069 4.39311Q75.8673 4.65346 76.1145 4.92629Q76.3618 5.19911 76.5954 5.48373Q76.829 5.76836 77.0483 6.06411Q77.2676 6.35985 77.4722 6.666Q77.6768 6.97215 77.8661 7.28797Q78.0554 7.60379 78.2289 7.92852Q78.4025 8.25325 78.5599 8.5861Q78.7174 8.91895 78.8583 9.25913Q78.9992 9.59931 79.1232 9.94599Q79.2473 10.2927 79.3541 10.645Q79.461 10.9974 79.5505 11.3545Q79.64 11.7117 79.7118 12.0728Q79.7836 12.434 79.8376 12.7982Q79.8917 13.1624 79.9278 13.5288Q79.9639 13.8953 79.9819 14.263Q80 14.6308 80 14.999L80 65.001Q80 65.3692 79.9819 65.737Q79.9639 66.1047 79.9278 66.4712Q79.8917 66.8376 79.8376 67.2018Q79.7836 67.566 79.7118 67.9271Q79.64 68.2883 79.5505 68.6455Q79.461 69.0026 79.3541 69.355Q79.2473 69.7073 79.1232 70.054Q78.9992 70.4007 78.8583 70.7409Q78.7174 71.081 78.5599 71.4139Q78.4025 71.7467 78.2289 72.0715Q78.0554 72.3962 77.8661 72.712Q77.6768 73.0278 77.4722 73.334Q77.2676 73.6401 77.0483 73.9359Q76.829 74.2316 76.5954 74.5163Q76.3618 74.8009 76.1145 75.0737Q75.8673 75.3465 75.6069 75.6069Q75.3465 75.8673 75.0737 76.1145Q74.8009 76.3618 74.5163 76.5954Q74.2316 76.829 73.9359 77.0483Q73.6401 77.2676 73.334 77.4722Q73.0279 77.6768 72.712 77.8661Q72.3962 78.0554 72.0715 78.2289Q71.7467 78.4025 71.4139 78.5599Q71.081 78.7174 70.7409 78.8583Q70.4007 78.9992 70.054 79.1232Q69.7073 79.2473 69.355 79.3541Q69.0026 79.461 68.6455 79.5505Q68.2883 79.64 67.9272 79.7118Q67.566 79.7836 67.2018 79.8376Q66.8376 79.8917 66.4712 79.9278Q66.1047 79.9639 65.737 79.9819Q65.3692 80 65.001 80L14.999 80Q14.6308 80 14.263 79.9819Q13.8953 79.9639 13.5288 79.9278Q13.1624 79.8917 12.7982 79.8376Q12.434 79.7836 12.0728 79.7118Q11.7117 79.64 11.3545 79.5505Q10.9974 79.461 10.645 79.3541Q10.2927 79.2473 9.94599 79.1232Q9.59931 78.9992 9.25913 78.8583Q8.91895 78.7174 8.5861 78.5599Q8.25325 78.4025 7.92852 78.2289Q7.60379 78.0554 7.28797 77.8661Q6.97215 77.6768 6.666 77.4722Q6.35985 77.2676 6.06411 77.0483Q5.76836 76.829 5.48373 76.5954Q5.19911 76.3618 4.92629 76.1145Q4.65346 75.8673 4.39311 75.6069Q4.13274 75.3465 3.88547 75.0737Q3.6382 74.8009 3.40462 74.5163Q3.17103 74.2316 2.95169 73.9359Q2.73235 73.6401 2.52779 73.334Q2.32322 73.0279 2.13393 72.712Q1.94463 72.3962 1.77106 72.0715Q1.59749 71.7467 1.44006 71.4139Q1.28264 71.081 1.14173 70.7409Q1.00082 70.4007 0.87678 70.054Q0.752736 69.7073 0.645852 69.355Q0.538968 69.0026 0.449501 68.6455Q0.360035 68.2883 0.288202 67.9272Q0.216368 67.566 0.162341 67.2018Q0.108315 66.8376 0.0722243 66.4712Q0.0361339 66.1047 0.0180669 65.737Q0 65.3692 0 65.001L0 14.999Q0 14.6308 0.0180669 14.263Q0.0361339 13.8953 0.0722243 13.5288Q0.108315 13.1624 0.162341 12.7982Q0.216368 12.434 0.288202 12.0728Q0.360035 11.7117 0.449501 11.3545Q0.538968 10.9974 0.645852 10.645Q0.752736 10.2927 0.87678 9.94599Q1.00082 9.59931 1.14173 9.25913Q1.28264 8.91895 1.44006 8.5861Q1.59749 8.25325 1.77106 7.92852Q1.94463 7.60379 2.13393 7.28797Q2.32322 6.97215 2.52779 6.666Q2.73235 6.35985 2.95169 6.06411Q3.17103 5.76836 3.40462 5.48373Q3.6382 5.19911 3.88547 4.92629Q4.13274 4.65346 4.39311 4.39311Q4.65346 4.13274 4.92629 3.88547Q5.19911 3.6382 5.48373 3.40462Q5.76836 3.17103 6.06411 2.95169Q6.35985 2.73235 6.666 2.52779Q6.97215 2.32322 7.28797 2.13393Q7.60379 1.94463 7.92852 1.77106Q8.25325 1.59749 8.5861 1.44006Q8.91895 1.28264 9.25913 1.14173Q9.59931 1.00082 9.94599 0.87678Q10.2927 0.752736 10.645 0.645852Q10.9974 0.538968 11.3545 0.449501Q11.7117 0.360035 12.0728 0.288202Q12.434 0.216368 12.7982 0.162341Q13.1624 0.108315 13.5288 0.0722243Q13.8953 0.0361339 14.263 0.0180669Q14.6308 0 14.999 0L14.999 0Z" id="path_1" />
    <clipPath id="clip_1">
      <use xlink:href="#path_1" />
    </clipPath>
  </defs>
  <g id="Волонтерство">
    <g id="Волонтерство" fill="#363B5D" transform="translate(99 31)">
      <path d="M1.65234 5.69824L1.65234 18.3018L5.32617 18.3018Q7.09277 18.3018 8.25293 17.2998Q9.41309 16.2979 9.41309 14.6807Q9.41309 13.3799 8.64844 12.5669Q7.88379 11.7539 6.60938 11.6045L6.60938 11.5693Q7.62891 11.2354 8.20898 10.4443Q8.78906 9.65332 8.78906 8.58105Q8.78906 7.29785 7.83105 6.49805Q6.87305 5.69824 5.23828 5.69824L1.65234 5.69824ZM3.12891 11.1035L3.12891 7.03418L4.8252 7.03418Q7.24219 7.03418 7.24219 8.87109Q7.24219 9.93457 6.54785 10.519Q5.85352 11.1035 4.64063 11.1035L3.12891 11.1035ZM12.353 17.2515Q13.5439 18.5127 15.5391 18.5127Q17.5869 18.5127 18.8042 17.2163Q20.0215 15.9199 20.0215 13.7666Q20.0215 11.5693 18.8921 10.3301Q17.7627 9.09082 15.75 9.09082Q13.6406 9.09082 12.4014 10.3652Q11.1621 11.6396 11.1621 13.9072Q11.1621 15.9902 12.353 17.2515ZM32.3833 17.2515Q33.5742 18.5127 35.5693 18.5127Q37.6172 18.5127 38.8345 17.2163Q40.0518 15.9199 40.0518 13.7666Q40.0518 11.5693 38.9224 10.3301Q37.793 9.09082 35.7803 9.09082Q33.6709 9.09082 32.4316 10.3652Q31.1924 11.6396 31.1924 13.9072Q31.1924 15.9902 32.3833 17.2515ZM67.3594 14.1621L61.0049 14.1621Q61.04 15.665 61.8135 16.4824Q62.5869 17.2998 63.9404 17.2998Q65.4609 17.2998 66.7354 16.2979L66.7354 17.6514Q65.5488 18.5127 63.5977 18.5127Q61.6904 18.5127 60.6006 17.2866Q59.5107 16.0605 59.5107 13.8369Q59.5107 11.7363 60.7017 10.4136Q61.8926 9.09082 63.6592 9.09082Q65.4258 9.09082 66.3926 10.2334Q67.3594 11.376 67.3594 13.4063L67.3594 14.1621ZM70.9805 17.001L71.0156 17.001Q71.9648 18.5127 73.7139 18.5127Q75.6211 18.5127 76.7197 17.1548Q77.8184 15.7969 77.8184 13.5381Q77.8184 11.5078 76.8428 10.2993Q75.8672 9.09082 74.127 9.09082Q72.0791 9.09082 71.0156 10.8838L70.9805 10.8838L70.9805 9.30176L69.5391 9.30176L69.5391 22.4414L70.9805 22.4414L70.9805 17.001ZM86.2559 17.8887Q85.2188 18.5127 83.7949 18.5127Q81.8701 18.5127 80.688 17.2603Q79.5059 16.0078 79.5059 14.0127Q79.5059 11.7891 80.7803 10.4399Q82.0547 9.09082 84.1816 9.09082Q85.3682 9.09082 86.2734 9.53027L86.2734 11.0068Q85.2715 10.3037 84.1289 10.3037Q82.749 10.3037 81.8657 11.2925Q80.9824 12.2813 80.9824 13.8896Q80.9824 15.4717 81.813 16.3857Q82.6436 17.2998 84.041 17.2998Q85.2188 17.2998 86.2559 16.5176L86.2559 17.8887ZM105.93 17.2515Q107.121 18.5127 109.116 18.5127Q111.164 18.5127 112.381 17.2163Q113.599 15.9199 113.599 13.7666Q113.599 11.5693 112.469 10.3301Q111.34 9.09082 109.327 9.09082Q107.218 9.09082 105.979 10.3652Q104.739 11.6396 104.739 13.9072Q104.739 15.9902 105.93 17.2515ZM28.8896 18.3018L27.457 18.3018L27.457 10.5234L25.3652 10.5234Q25.0049 14.8916 24.1304 16.6582Q23.2559 18.4248 21.7793 18.4248Q21.3311 18.4248 21.0059 18.3018L21.0059 17.0625Q21.3135 17.2207 21.6738 17.2207Q23.6074 17.2207 24.1611 9.30176L28.8896 9.30176L28.8896 18.3018ZM49.8252 18.3018L48.3838 18.3018L48.3838 14.2148L43.7959 14.2148L43.7959 18.3018L42.3545 18.3018L42.3545 9.30176L43.7959 9.30176L43.7959 12.9932L48.3838 12.9932L48.3838 9.30176L49.8252 9.30176L49.8252 18.3018ZM55.6963 10.5322L58.3945 10.5322L58.3945 9.30176L51.5479 9.30176L51.5479 10.5322L54.2549 10.5322L54.2549 18.3018L55.6963 18.3018L55.6963 10.5322ZM91.3887 10.5322L94.0869 10.5322L94.0869 9.30176L87.2402 9.30176L87.2402 10.5322L89.9473 10.5322L89.9473 18.3018L91.3887 18.3018L91.3887 10.5322ZM95.8184 18.3018L95.8184 9.30176L99.7383 9.30176Q101.065 9.30176 101.834 9.89063Q102.604 10.4795 102.604 11.499Q102.604 13.248 100.881 13.626Q102.946 13.8896 102.946 15.709Q102.946 16.8076 102.098 17.5547Q101.25 18.3018 99.9932 18.3018L95.8184 18.3018ZM13.4473 11.2485Q14.2559 10.3037 15.6445 10.3037Q17.042 10.3037 17.7935 11.2178Q18.5449 12.1318 18.5449 13.8193Q18.5449 15.4893 17.7935 16.3945Q17.042 17.2998 15.6445 17.2998Q14.2734 17.2998 13.4561 16.377Q12.6387 15.4541 12.6387 13.8545Q12.6387 12.1934 13.4473 11.2485ZM33.4775 11.2485Q34.2861 10.3037 35.6748 10.3037Q37.0723 10.3037 37.8237 11.2178Q38.5752 12.1318 38.5752 13.8193Q38.5752 15.4893 37.8237 16.3945Q37.0723 17.2998 35.6748 17.2998Q34.3037 17.2998 33.4863 16.377Q32.6689 15.4541 32.6689 13.8545Q32.6689 12.1934 33.4775 11.2485ZM65.8828 12.9404Q65.874 11.6924 65.2808 10.998Q64.6875 10.3037 63.6328 10.3037Q62.6133 10.3037 61.9014 11.0332Q61.1895 11.7627 61.0225 12.9404L65.8828 12.9404ZM70.9805 14.6279L70.9805 13.3711Q70.9805 12.0527 71.7451 11.1782Q72.5098 10.3037 73.7666 10.3037Q74.9531 10.3037 75.6475 11.1563Q76.3418 12.0088 76.3418 13.5117Q76.3418 15.2959 75.5991 16.2979Q74.8564 17.2998 73.5469 17.2998Q72.4307 17.2998 71.7056 16.522Q70.9805 15.7441 70.9805 14.6279ZM107.024 11.2485Q107.833 10.3037 109.222 10.3037Q110.619 10.3037 111.371 11.2178Q112.122 12.1318 112.122 13.8193Q112.122 15.4893 111.371 16.3945Q110.619 17.2998 109.222 17.2998Q107.851 17.2998 107.033 16.377Q106.216 15.4541 106.216 13.8545Q106.216 12.1934 107.024 11.2485ZM97.2598 10.5322L97.2598 13.0635L99.4219 13.0635Q101.162 13.0635 101.162 11.71Q101.162 10.5322 99.5977 10.5322L97.2598 10.5322ZM3.12891 16.9658L3.12891 12.4307L4.8252 12.4307Q7.86621 12.4307 7.86621 14.6631Q7.86621 15.7354 7.1499 16.3506Q6.43359 16.9658 5.13281 16.9658L3.12891 16.9658ZM97.2598 14.2939L97.2598 17.0713L99.7559 17.0713Q101.505 17.0713 101.505 15.6563Q101.505 14.2939 99.5449 14.2939L97.2598 14.2939Z" />
    </g>
    <g id="donation" transform="translate(21 22)">
      <g id="Group">
        <path d="M0.718223 2.09561C2.23629 2.634 3.46202 3.86302 4.00041 5.38108C4.15682 5.82452 4.57332 6.10079 5.01675 6.10079C5.13649 6.10079 5.25838 6.08031 5.37711 6.0382C5.93814 5.83969 6.23275 5.22252 6.03423 4.66137C5.27141 2.50338 3.5958 0.826761 1.43996 0.0616587C0.877793 -0.135844 0.261767 0.156617 0.0621144 0.717641C-0.136273 1.27993 0.156061 1.89608 0.718223 2.09561Z" transform="translate(28.09597 4.687511)" id="Shape" fill="#C5D5E6" stroke="none" />
        <path d="M18.9048 36.5536C19.0666 36.6409 19.2435 36.6852 19.4215 36.6852C19.5996 36.6852 19.7776 36.6409 19.9383 36.5536C32.2181 29.8553 38.8431 18.8357 38.8431 11.8688C38.8431 5.32372 33.5195 8.98426e-16 26.9743 8.98426e-16C22.3779 8.98426e-16 18.1526 2.69208 16.2115 6.86012C15.959 7.40066 16.1932 8.04274 16.7327 8.2941C17.2733 8.54661 17.9153 8.31143 18.1667 7.7719C19.7561 4.36125 23.213 2.15799 26.9744 2.15799C32.3294 2.15799 36.6852 6.5138 36.6852 11.8688C36.6852 18.2034 30.2404 28.2692 19.4217 34.3718C8.60275 28.2692 2.15799 18.2035 2.15799 11.8688C2.15799 6.5138 6.51494 2.15799 11.8688 2.15799C13.2207 2.15799 14.5285 2.42984 15.7574 2.96722C16.3033 3.20569 16.9388 2.95748 17.1783 2.41151C17.4168 1.86553 17.1676 1.23003 16.6216 0.990548C15.1197 0.333428 13.5206 0 11.8688 0C5.32474 0 0 5.3236 0 11.8688C0 18.8357 6.62608 29.8553 18.9048 36.5536Z" transform="translate(0.03467678 0.0006322112)" id="Shape" fill="#C5D5E6" stroke="none" />
      </g>
    </g>
    <g id="Rectangle-12-Copy">
      <g clip-path="url(#clip_1)">
        <use xlink:href="#path_1" fill="none" stroke="#C5D5E6" stroke-width="4" />
      </g>
    </g>
  </g>
</svg>