<?xml version="1.0" encoding="utf-8"?>
<svg width="80px" height="22px" viewBox="0 0 80 22" version="1.1" xmlns:xlink="http://www.w3.org/1999/xlink" xmlns="http://www.w3.org/2000/svg">
  <desc>Created with Lunacy</desc>
  <g id="webmoney-paying-logo">
    <g id="Capa_1_1_">
      <g id="Layer_1_copy_32_">
        <path d="M75.7936 18.728L73.68 16.312L71.2368 18.5648L67.112 13.9744L68.2592 12.9648L65.3712 9.7312L66.5248 8.72L63.5936 5.4896L68.168 1.3712L69.6208 2.9616L72.0736 0.7728L73.5232 2.2752L74.4896 1.4096C74.2736 1.2848 74.0576 1.1696 73.8384 1.0656C72.4448 0.384 70.88 0 69.232 0C63.4448 0 58.7232 4.72 58.7232 10.5088C58.7232 16.296 63.4448 21.016 69.232 21.016C71.112 21.016 72.8832 20.5184 74.4112 19.6464C74.9152 19.3616 75.3744 19.0528 75.7936 18.728ZM75.5024 2.3664L74.2528 3.4912L75.3776 4.7408L76.6256 3.616L75.5024 2.3664ZM73.6784 4.5536L71.9904 2.6784L70.1152 4.3664L71.8032 6.2416L73.6784 4.5536ZM68.0272 3.3264L70.2768 5.8256L67.7776 8.0752L65.528 5.576L68.0272 3.3264ZM17.6048 8.9856C17.9664 8.7936 18.5776 8.5424 19.2256 8.5424C20.712 8.5424 21.5152 9.5728 21.5152 11.488C21.5152 13.7312 20.4368 14.824 18.6976 14.824C18.0608 14.824 17.0784 14.6192 16.3584 14.2368L16.3584 5.8672L17.6048 5.568L17.6048 8.9856ZM75.8496 7.2048L77.096 6.08L78.2192 7.3296L76.9744 8.4544L75.8496 7.2048ZM9.776 6.1792L8.3728 6.1792L7.1488 12.5216L7.064 12.5216L5.3968 6.1792L4.3296 6.1792L2.7712 12.5216L2.6864 12.5216L1.344 6.1792L0 6.1792L1.9424 14.68L3.2384 14.68L4.8208 8.696L4.9056 8.696L6.536 14.68L7.832 14.68L9.776 6.1792ZM29.5984 6.1792L31.0848 6.1792L31.0848 14.68L29.7904 14.68L29.7904 8.5152L29.6832 8.5152L27.2368 14.68L26.4704 14.68L24.024 8.6608L23.9168 8.6608L23.9168 14.68L22.8384 14.68L22.8384 6.1792L24.288 6.1792L26.9744 12.88L27.0352 12.88L29.5984 6.1792ZM71.8432 8.136L73.5312 10.0096L75.4064 8.3216L73.7152 6.448L71.8432 8.136ZM69.568 12.3424L67.3184 9.8432L69.8176 7.5904L72.0672 10.0896L69.568 12.3424ZM44.0464 14.68L44.0464 10.3408C44.0464 9.1056 43.5056 8.5424 42.0688 8.5408C40.6896 8.5408 39.5504 9.104 39.0112 9.4272L39.0112 14.6784L40.256 14.6784L40.256 9.9312C40.6272 9.7152 41.24 9.4992 41.7184 9.4992C42.3344 9.4992 42.8 9.6672 42.8 10.6144L42.8 14.68L44.0464 14.68ZM10.1248 11.6832C10.1248 9.8592 11.048 8.5424 12.8464 8.5424C14.3456 8.5424 15.2688 9.512 15.2672 11.4704L15.2672 11.9104L11.36 11.9104C11.36 13.352 11.9488 13.9856 13.1824 13.9856C13.8288 13.9856 14.4288 13.7552 15.088 13.3632L15.088 14.2704C14.5488 14.5856 13.8288 14.8256 12.9664 14.8256C10.9536 14.8256 10.1248 13.5792 10.1248 11.6832ZM32.4032 11.6832C32.4032 9.5856 33.5552 8.5424 35.1376 8.5424C36.72 8.5424 37.872 9.584 37.872 11.6832C37.872 13.7328 36.7808 14.8256 35.1376 14.8256C33.496 14.8256 32.4032 13.7328 32.4032 11.6832ZM47.8832 8.5424C46.0832 8.5424 45.1616 9.8592 45.1616 11.6832C45.1616 13.5792 45.9888 14.8256 48.0016 14.8256C48.864 14.8256 49.5808 14.5856 50.1216 14.2704L50.1216 13.3632C49.464 13.7552 48.864 13.9856 48.2176 13.9856C46.984 13.9856 46.3936 13.352 46.3936 11.9104L50.3024 11.9104L50.3024 11.4704C50.3056 9.512 49.3808 8.5424 47.8832 8.5424ZM56.2528 8.744L54.968 8.744L53.6064 13.16L53.5344 13.16L52 8.7456L50.6816 8.7456L52.9824 14.744C52.6944 15.632 52.192 16.2784 51.376 16.2784L51.376 17.2592C52.7536 17.2592 53.4848 16.3968 54.0848 14.7408L56.2528 8.744ZM11.384 11.1056C11.5152 9.9088 12.08 9.344 12.8112 9.344C13.4592 9.344 14.0704 9.8448 14.1296 11.1056L11.384 11.1056ZM47.848 9.344C47.1168 9.344 46.552 9.9088 46.4176 11.1056L49.1664 11.1056C49.1072 9.8448 48.4928 9.344 47.848 9.344ZM35.1376 13.984C34.2864 13.984 33.6624 13.328 33.6624 11.6832C33.6624 10.064 34.3472 9.3808 35.1376 9.3808C35.9536 9.3808 36.6128 10.064 36.6128 11.6832C36.6128 13.328 35.9888 13.984 35.1376 13.984ZM18.6976 13.984C18.3968 13.984 17.9792 13.9616 17.5952 13.7936L17.5952 9.872C18.0752 9.608 18.424 9.4768 18.9008 9.4768C19.704 9.4768 20.2576 9.9696 20.2576 11.4896C20.2576 13.4336 19.5856 13.984 18.6976 13.984ZM78.6976 9.7904L79.8208 11.04L78.5728 12.1648L77.448 10.9152L78.6976 9.7904ZM75.1344 13.968L73.4432 12.096L75.3184 10.4064L77.0096 12.2784L75.1344 13.968ZM69.0976 14.1632L71.3456 16.6624L73.8448 14.4128L71.5952 11.9136L69.0976 14.1632ZM76.968 14.1936L78.656 16.0688L76.7808 17.7568L75.0912 15.8816L76.968 14.1936Z" transform="translate(0 0.6016)" id="Shape" fill="#FFFFFF" fill-rule="evenodd" stroke="none" />
      </g>
    </g>
  </g>
</svg>