<?xml version="1.0" encoding="utf-8"?>
<svg width="22px" height="39px" viewBox="0 0 22 39" version="1.1" xmlns:xlink="http://www.w3.org/1999/xlink" xmlns="http://www.w3.org/2000/svg">
  <desc>Created with Lunacy</desc>
  <g id="the-tube-terminal">
    <path d="M21.1703 38.9681L0.568966 38.9681C0.254707 38.9681 0 38.7113 0 38.3945L0 2.69444C0 1.20862 1.199 0 2.673 0L19.0664 0C20.5402 0 21.7394 1.20862 21.7394 2.69444L21.7394 38.3945C21.7392 38.7113 21.4845 38.9681 21.1703 38.9681ZM1.13867 25.6495L20.602 25.6495L20.602 2.69442C20.602 1.8412 19.9134 1.14703 19.067 1.14703L2.67374 1.14703C1.82731 1.14703 1.13867 1.8412 1.13867 2.69442L1.13867 25.6495ZM17.6231 18.0511L4.11584 18.0511C3.80158 18.0511 3.54688 17.7944 3.54688 17.4776L3.54688 4.43589C3.54688 4.11912 3.80158 3.86237 4.11584 3.86237L17.6231 3.86237C17.9373 3.86237 18.192 4.11912 18.192 4.43589L18.192 17.4776C18.192 17.7944 17.9373 18.0511 17.6231 18.0511ZM17.0549 16.904L4.68555 16.904L4.68555 5.0094L17.0549 5.0094L17.0549 16.904ZM4.11584 20.6595L4.41284 20.6595C4.7271 20.6595 4.98181 20.4028 4.98181 20.086C4.98181 19.7692 4.7271 19.5125 4.41284 19.5125L4.11584 19.5125C3.80158 19.5125 3.54688 19.7692 3.54688 20.086C3.54688 20.4028 3.80158 20.6595 4.11584 20.6595ZM6.85034 20.6595L6.55334 20.6595C6.23908 20.6595 5.98438 20.4028 5.98438 20.086C5.98438 19.7692 6.23908 19.5125 6.55334 19.5125L6.85034 19.5125C7.1646 19.5125 7.41931 19.7692 7.41931 20.086C7.41931 20.4028 7.1646 20.6595 6.85034 20.6595ZM8.99279 20.6595L9.28979 20.6595C9.60405 20.6595 9.85876 20.4028 9.85876 20.086C9.85876 19.7692 9.60405 19.5125 9.28979 19.5125L8.99279 19.5125C8.67854 19.5125 8.42383 19.7692 8.42383 20.086C8.42383 20.4028 8.67854 20.6595 8.99279 20.6595ZM17.6238 23.5187L13.2213 23.5187C12.9071 23.5187 12.6523 23.262 12.6523 22.9452L12.6523 20.086C12.6523 19.7692 12.9071 19.5125 13.2213 19.5125L17.6238 19.5125C17.938 19.5125 18.1927 19.7692 18.1927 20.086L18.1927 22.9452C18.1927 23.2618 17.938 23.5187 17.6238 23.5187ZM17.0536 22.3717L13.7891 22.3717L13.7891 20.6595L17.0536 20.6595L17.0536 22.3717ZM4.41284 22.4904L4.11584 22.4904C3.80158 22.4904 3.54688 22.2336 3.54688 21.9169C3.54688 21.6001 3.80158 21.3433 4.11584 21.3433L4.41284 21.3433C4.7271 21.3433 4.98181 21.6001 4.98181 21.9169C4.98181 22.2336 4.7271 22.4904 4.41284 22.4904ZM6.55334 22.4904L6.85034 22.4904C7.1646 22.4904 7.41931 22.2336 7.41931 21.9169C7.41931 21.6001 7.1646 21.3433 6.85034 21.3433L6.55334 21.3433C6.23908 21.3433 5.98438 21.6001 5.98438 21.9169C5.98438 22.2336 6.23908 22.4904 6.55334 22.4904ZM9.28979 22.4904L8.99279 22.4904C8.67854 22.4904 8.42383 22.2336 8.42383 21.9169C8.42383 21.6001 8.67854 21.3433 8.99279 21.3433L9.28979 21.3433C9.60405 21.3433 9.85876 21.6001 9.85876 21.9169C9.85876 22.2336 9.60405 22.4904 9.28979 22.4904ZM4.11584 24.3213L4.41284 24.3213C4.7271 24.3213 4.98181 24.0645 4.98181 23.7477C4.98181 23.4309 4.7271 23.1742 4.41284 23.1742L4.11584 23.1742C3.80158 23.1742 3.54688 23.4309 3.54688 23.7477C3.54688 24.0645 3.80158 24.3213 4.11584 24.3213ZM6.85034 24.3213L6.55334 24.3213C6.23908 24.3213 5.98438 24.0645 5.98438 23.7477C5.98438 23.4309 6.23908 23.1742 6.55334 23.1742L6.85034 23.1742C7.1646 23.1742 7.41931 23.4309 7.41931 23.7477C7.41931 24.0645 7.1646 24.3213 6.85034 24.3213ZM8.99279 24.3213L9.28979 24.3213C9.60405 24.3213 9.85876 24.0645 9.85876 23.7477C9.85876 23.4309 9.60405 23.1742 9.28979 23.1742L8.99279 23.1742C8.67854 23.1742 8.42383 23.4309 8.42383 23.7477C8.42383 24.0645 8.67854 24.3213 8.99279 24.3213ZM20.602 37.821L1.13867 37.821L1.13867 26.7964L20.602 26.7964L20.602 37.821Z" id="Shape" fill="#FFFFFF" fill-rule="evenodd" stroke="none" />
  </g>
</svg>