<?xml version="1.0" encoding="utf-8"?>
<svg width="619px" height="506px" viewBox="0 0 619 506" version="1.1" xmlns:xlink="http://www.w3.org/1999/xlink" xmlns="http://www.w3.org/2000/svg">
  <desc>Created with Lunacy</desc>
  <defs>
    <linearGradient x1="0.2622764" y1="0.8273336" x2="1.83454525" y2="-0.6469433" id="gradient_1">
      <stop offset="0" stop-color="#E53656" />
      <stop offset="1" stop-color="#6082D8" />
    </linearGradient>
  </defs>
  <g id="Сердце-изометрия" transform="matrix(0.9945219 0.1045285 -0.1045285 0.9945219 62.79297 9.995255)">
    <g id="Heart\" transform="translate(126.7932 90.07993)">
      <path d="M90.8991 66.4523C66.4829 62.8945 40.9989 68.8539 23.2479 84.0333C-8.22453 112.385 -7.67704 159.499 24.4948 187.978C63.8622 220.211 130.72 211.684 232.012 199.377L256.464 196.505C258.703 196.244 260.587 194.754 260.671 193.196L261.597 176.113C265.383 105.794 267.897 59.7715 228.53 27.5385C196.358 -0.940527 146.536 -9.30834 115.064 11.8355C97.3126 24.5726 88.7227 45.4066 90.8991 66.4523Z" transform="translate(0.3204378 13.35028)" id="Shape-Copy" fill="#B74256" stroke="none" />
      <path d="M90.8991 66.4523C66.4829 62.8945 40.9989 68.8539 23.2479 84.0333C-8.22453 112.385 -7.67704 159.499 24.4948 187.978C63.8622 220.211 130.72 211.684 232.012 199.377L256.464 196.505C258.703 196.244 260.587 194.754 260.671 193.196L261.597 176.113C265.383 105.794 267.897 59.7715 228.53 27.5385C196.358 -0.940527 146.536 -9.30834 115.064 11.8355C97.3126 24.5726 88.7227 45.4066 90.8991 66.4523Z" transform="translate(0.3204378 0.2083629)" id="Shape" fill="url(#gradient_1)" stroke="none" />
    </g>
    <g id="Oval" transform="matrix(0.9848077 -0.1736482 0.1736482 0.9848077 93.29131 342.6105)">
      <path d="M25.6605 51.9914C39.8325 55.2376 51.3211 46.3805 51.3211 32.2086C51.3211 18.0367 39.8325 3.91653 25.6605 0.670355C11.4886 -2.57582 0 6.28126 0 20.4532C0 34.6251 11.4886 48.7453 25.6605 51.9914Z" transform="matrix(0.8829476 -0.4694716 0.4694716 0.8829476 0.5228615 29.52109)" id="Oval-3-Copy-3" fill="none" stroke="#B74256" stroke-width="10" />
      <path d="M25.6605 51.9914C39.8325 55.2376 51.3211 46.3805 51.3211 32.2086C51.3211 18.0367 39.8325 3.91653 25.6605 0.670355C11.4886 -2.57582 0 6.28126 0 20.4532C0 34.6251 11.4886 48.7453 25.6605 51.9914Z" transform="matrix(0.9205049 -0.3907311 0.3907311 0.9205049 3.138239 20.11601)" id="Oval-3-Copy-2" fill="none" stroke="#E73453" stroke-width="10" />
    </g>
    <g id="Oval" transform="matrix(0.9563048 -0.2923717 0.2923717 0.9563048 32.19044 234.0755)">
      <path d="M21.1322 42.8165C32.8032 45.4898 42.2644 38.1957 42.2644 26.5247C42.2644 14.8537 32.8032 3.22537 21.1322 0.552057C9.46121 -2.12126 0 5.1728 0 16.8438C0 28.5148 9.46121 40.1431 21.1322 42.8165Z" transform="matrix(0.8829476 -0.4694716 0.4694716 0.8829476 0.1024504 25.40421)" id="Oval-3-Copy" fill="#B74256" stroke="none" />
      <path d="M21.1322 42.8165C32.8032 45.4898 42.2644 38.1957 42.2644 26.5247C42.2644 14.8537 32.8032 3.22537 21.1322 0.552057C9.46121 -2.12126 0 5.1728 0 16.8438C0 28.5148 9.46121 40.1431 21.1322 42.8165Z" transform="matrix(0.9205049 -0.3907311 0.3907311 0.9205049 3.575655 16.95733)" id="Oval-3" fill="#E73453" stroke="none" />
    </g>
    <g id="Oval-Copy-2" transform="matrix(0.9563048 -0.2923717 0.2923717 0.9563048 410.8087 106.0347)">
      <path d="M21.1322 42.8165C32.8032 45.4898 42.2644 38.1957 42.2644 26.5247C42.2644 14.8537 32.8032 3.22537 21.1322 0.552057C9.46121 -2.12126 0 5.1728 0 16.8438C0 28.5148 9.46121 40.1431 21.1322 42.8165Z" transform="matrix(0.8829476 -0.4694716 0.4694716 0.8829476 0.1024504 25.40421)" id="Oval-3-Copy" fill="#B74256" stroke="none" />
      <path d="M21.1322 42.8165C32.8032 45.4898 42.2644 38.1957 42.2644 26.5247C42.2644 14.8537 32.8032 3.22537 21.1322 0.552057C9.46121 -2.12126 0 5.1728 0 16.8438C0 28.5148 9.46121 40.1431 21.1322 42.8165Z" transform="matrix(0.9205049 -0.3907311 0.3907311 0.9205049 3.575655 16.95733)" id="Oval-3" fill="url(#gradient_1)" stroke="none" />
    </g>
    <g id="Group-3" transform="translate(-5.684342E-13 296.1189)">
      <path d="M18.999 0L67.5424 0Q68.0088 0 68.4746 0.0228851Q68.9405 0.0457703 69.4046 0.0914854Q69.8688 0.1372 70.3301 0.205635Q70.7915 0.27407 71.2489 0.36506Q71.7064 0.45605 72.1588 0.569376Q72.6112 0.682702 73.0575 0.818091Q73.5038 0.953479 73.943 1.1106Q74.3821 1.26773 74.813 1.44621Q75.2439 1.6247 75.6655 1.82411Q76.0871 2.02352 76.4985 2.24338Q76.9098 2.46324 77.3098 2.70301Q77.7099 2.94279 78.0977 3.20191Q78.4855 3.46103 78.8601 3.73886Q79.2347 4.01669 79.5952 4.31257Q79.9558 4.60845 80.3014 4.92167Q80.6469 5.23488 80.9767 5.56468Q81.3065 5.89447 81.6197 6.24005Q81.933 6.58563 82.2288 6.94616Q82.5247 7.30669 82.8025 7.68131Q83.0804 8.05592 83.3395 8.44372Q83.5986 8.83152 83.8384 9.23156Q84.0782 9.63161 84.298 10.0429Q84.5179 10.4543 84.7173 10.8759Q84.9167 11.2975 85.0952 11.7284Q85.2737 12.1593 85.4308 12.5984Q85.5879 13.0376 85.7233 13.4839Q85.8587 13.9302 85.972 14.3826Q86.0853 14.835 86.1763 15.2925Q86.2673 15.7499 86.3358 16.2113Q86.4042 16.6726 86.4499 17.1368Q86.4956 17.6009 86.5185 18.0668Q86.5414 18.5326 86.5414 18.999L86.5414 23.2654Q86.5414 23.7318 86.5185 24.1976Q86.4956 24.6635 86.4499 25.1276Q86.4042 25.5918 86.3358 26.0531Q86.2673 26.5145 86.1763 26.9719Q86.0853 27.4294 85.972 27.8818Q85.8587 28.3342 85.7233 28.7805Q85.5879 29.2268 85.4308 29.666Q85.2737 30.1051 85.0952 30.536Q84.9167 30.9669 84.7173 31.3885Q84.5179 31.8101 84.298 32.2215Q84.0782 32.6328 83.8384 33.0328Q83.5986 33.4329 83.3395 33.8207Q83.0804 34.2085 82.8025 34.5831Q82.5247 34.9577 82.2288 35.3182Q81.933 35.6788 81.6197 36.0243Q81.3065 36.3699 80.9767 36.6997Q80.6469 37.0295 80.3014 37.3427Q79.9558 37.656 79.5952 37.9518Q79.2347 38.2477 78.8601 38.5255Q78.4855 38.8034 78.0977 39.0625Q77.7099 39.3216 77.3098 39.5614Q76.9098 39.8012 76.4985 40.021Q76.0871 40.2409 75.6655 40.4403Q75.2439 40.6397 74.813 40.8182Q74.3821 40.9967 73.943 41.1538Q73.5038 41.3109 73.0575 41.4463Q72.6112 41.5817 72.1588 41.695Q71.7064 41.8083 71.2489 41.8993Q70.7915 41.9903 70.3301 42.0588Q69.8688 42.1272 69.4046 42.1729Q68.9405 42.2186 68.4746 42.2415Q68.0088 42.2644 67.5424 42.2644L18.999 42.2644Q18.5326 42.2644 18.0668 42.2415Q17.6009 42.2186 17.1368 42.1729Q16.6726 42.1272 16.2113 42.0588Q15.7499 41.9903 15.2925 41.8993Q14.835 41.8083 14.3826 41.695Q13.9302 41.5817 13.4839 41.4463Q13.0376 41.3109 12.5984 41.1538Q12.1593 40.9967 11.7284 40.8182Q11.2975 40.6397 10.8759 40.4403Q10.4543 40.2409 10.0429 40.021Q9.63161 39.8012 9.23156 39.5614Q8.83152 39.3216 8.44372 39.0625Q8.05592 38.8034 7.68131 38.5255Q7.30669 38.2477 6.94616 37.9518Q6.58563 37.656 6.24005 37.3427Q5.89447 37.0295 5.56468 36.6997Q5.23488 36.3699 4.92167 36.0244Q4.60845 35.6788 4.31257 35.3182Q4.01669 34.9577 3.73886 34.5831Q3.46103 34.2085 3.20191 33.8207Q2.94279 33.4329 2.70301 33.0328Q2.46324 32.6328 2.24338 32.2215Q2.02352 31.8101 1.82411 31.3885Q1.6247 30.9669 1.44621 30.536Q1.26773 30.1051 1.1106 29.666Q0.953479 29.2268 0.81809 28.7805Q0.682702 28.3342 0.569376 27.8818Q0.45605 27.4294 0.36506 26.9719Q0.27407 26.5145 0.205635 26.0531Q0.1372 25.5918 0.0914854 25.1276Q0.0457703 24.6635 0.0228851 24.1976Q0 23.7318 0 23.2654L0 18.999Q0 18.5326 0.0228851 18.0668Q0.0457703 17.6009 0.0914854 17.1368Q0.1372 16.6726 0.205635 16.2113Q0.27407 15.7499 0.36506 15.2925Q0.45605 14.835 0.569376 14.3826Q0.682702 13.9302 0.818091 13.4839Q0.953479 13.0376 1.1106 12.5984Q1.26773 12.1593 1.44621 11.7284Q1.6247 11.2975 1.82411 10.8759Q2.02352 10.4543 2.24338 10.0429Q2.46324 9.63161 2.70301 9.23156Q2.94279 8.83152 3.20191 8.44372Q3.46103 8.05592 3.73886 7.68131Q4.01669 7.30669 4.31257 6.94616Q4.60845 6.58563 4.92167 6.24005Q5.23488 5.89447 5.56468 5.56468Q5.89447 5.23488 6.24005 4.92167Q6.58563 4.60845 6.94616 4.31257Q7.30669 4.01669 7.68131 3.73886Q8.05592 3.46103 8.44372 3.20191Q8.83152 2.94279 9.23156 2.70301Q9.63161 2.46324 10.0429 2.24338Q10.4543 2.02352 10.8759 1.82411Q11.2975 1.6247 11.7284 1.44621Q12.1593 1.26773 12.5984 1.1106Q13.0376 0.953479 13.4839 0.81809Q13.9302 0.682702 14.3826 0.569376Q14.835 0.45605 15.2925 0.36506Q15.7499 0.27407 16.2113 0.205635Q16.6726 0.1372 17.1368 0.0914854Q17.6009 0.0457703 18.0668 0.0228851Q18.5326 0 18.999 0Z" transform="matrix(0.8191521 -0.5735765 0.5735765 0.8191521 0.01571608 57.50676)" id="Rectangle-3-Copy" fill="#B74256" stroke="none" />
      <path d="M18.999 0L67.5424 0Q68.0088 0 68.4746 0.0228851Q68.9405 0.0457703 69.4046 0.0914854Q69.8688 0.1372 70.3301 0.205635Q70.7915 0.27407 71.2489 0.36506Q71.7064 0.45605 72.1588 0.569376Q72.6112 0.682702 73.0575 0.818091Q73.5038 0.953479 73.943 1.1106Q74.3821 1.26773 74.813 1.44621Q75.2439 1.6247 75.6655 1.82411Q76.0871 2.02352 76.4985 2.24338Q76.9098 2.46324 77.3098 2.70301Q77.7099 2.94279 78.0977 3.20191Q78.4855 3.46103 78.8601 3.73886Q79.2347 4.01669 79.5952 4.31257Q79.9558 4.60845 80.3014 4.92167Q80.6469 5.23488 80.9767 5.56468Q81.3065 5.89447 81.6197 6.24005Q81.933 6.58563 82.2288 6.94616Q82.5247 7.30669 82.8025 7.68131Q83.0804 8.05592 83.3395 8.44372Q83.5986 8.83152 83.8384 9.23156Q84.0782 9.63161 84.298 10.0429Q84.5179 10.4543 84.7173 10.8759Q84.9167 11.2975 85.0952 11.7284Q85.2737 12.1593 85.4308 12.5984Q85.5879 13.0376 85.7233 13.4839Q85.8587 13.9302 85.972 14.3826Q86.0853 14.835 86.1763 15.2925Q86.2673 15.7499 86.3358 16.2113Q86.4042 16.6726 86.4499 17.1368Q86.4956 17.6009 86.5185 18.0668Q86.5414 18.5326 86.5414 18.999L86.5414 23.2654Q86.5414 23.7318 86.5185 24.1976Q86.4956 24.6635 86.4499 25.1276Q86.4042 25.5918 86.3358 26.0531Q86.2673 26.5145 86.1763 26.9719Q86.0853 27.4294 85.972 27.8818Q85.8587 28.3342 85.7233 28.7805Q85.5879 29.2268 85.4308 29.666Q85.2737 30.1051 85.0952 30.536Q84.9167 30.9669 84.7173 31.3885Q84.5179 31.8101 84.298 32.2215Q84.0782 32.6328 83.8384 33.0328Q83.5986 33.4329 83.3395 33.8207Q83.0804 34.2085 82.8025 34.5831Q82.5247 34.9577 82.2288 35.3182Q81.933 35.6788 81.6197 36.0243Q81.3065 36.3699 80.9767 36.6997Q80.6469 37.0295 80.3014 37.3427Q79.9558 37.656 79.5952 37.9518Q79.2347 38.2477 78.8601 38.5255Q78.4855 38.8034 78.0977 39.0625Q77.7099 39.3216 77.3098 39.5614Q76.9098 39.8012 76.4985 40.021Q76.0871 40.2409 75.6655 40.4403Q75.2439 40.6397 74.813 40.8182Q74.3821 40.9967 73.943 41.1538Q73.5038 41.3109 73.0575 41.4463Q72.6112 41.5817 72.1588 41.695Q71.7064 41.8083 71.2489 41.8993Q70.7915 41.9903 70.3301 42.0588Q69.8688 42.1272 69.4046 42.1729Q68.9405 42.2186 68.4746 42.2415Q68.0088 42.2644 67.5424 42.2644L18.999 42.2644Q18.5326 42.2644 18.0668 42.2415Q17.6009 42.2186 17.1368 42.1729Q16.6726 42.1272 16.2113 42.0588Q15.7499 41.9903 15.2925 41.8993Q14.835 41.8083 14.3826 41.695Q13.9302 41.5817 13.4839 41.4463Q13.0376 41.3109 12.5984 41.1538Q12.1593 40.9967 11.7284 40.8182Q11.2975 40.6397 10.8759 40.4403Q10.4543 40.2409 10.0429 40.021Q9.63161 39.8012 9.23156 39.5614Q8.83152 39.3216 8.44372 39.0625Q8.05592 38.8034 7.68131 38.5255Q7.30669 38.2477 6.94616 37.9518Q6.58563 37.656 6.24005 37.3427Q5.89447 37.0295 5.56468 36.6997Q5.23488 36.3699 4.92167 36.0244Q4.60845 35.6788 4.31257 35.3182Q4.01669 34.9577 3.73886 34.5831Q3.46103 34.2085 3.20191 33.8207Q2.94279 33.4329 2.70301 33.0328Q2.46324 32.6328 2.24338 32.2215Q2.02352 31.8101 1.82411 31.3885Q1.6247 30.9669 1.44621 30.536Q1.26773 30.1051 1.1106 29.666Q0.953479 29.2268 0.81809 28.7805Q0.682702 28.3342 0.569376 27.8818Q0.45605 27.4294 0.36506 26.9719Q0.27407 26.5145 0.205635 26.0531Q0.1372 25.5918 0.0914854 25.1276Q0.0457703 24.6635 0.0228851 24.1976Q0 23.7318 0 23.2654L0 18.999Q0 18.5326 0.0228851 18.0668Q0.0457703 17.6009 0.0914854 17.1368Q0.1372 16.6726 0.205635 16.2113Q0.27407 15.7499 0.36506 15.2925Q0.45605 14.835 0.569376 14.3826Q0.682702 13.9302 0.818091 13.4839Q0.953479 13.0376 1.1106 12.5984Q1.26773 12.1593 1.44621 11.7284Q1.6247 11.2975 1.82411 10.8759Q2.02352 10.4543 2.24338 10.0429Q2.46324 9.63161 2.70301 9.23156Q2.94279 8.83152 3.20191 8.44372Q3.46103 8.05592 3.73886 7.68131Q4.01669 7.30669 4.31257 6.94616Q4.60845 6.58563 4.92167 6.24005Q5.23488 5.89447 5.56468 5.56468Q5.89447 5.23488 6.24005 4.92167Q6.58563 4.60845 6.94616 4.31257Q7.30669 4.01669 7.68131 3.73886Q8.05592 3.46103 8.44372 3.20191Q8.83152 2.94279 9.23156 2.70301Q9.63161 2.46324 10.0429 2.24338Q10.4543 2.02352 10.8759 1.82411Q11.2975 1.6247 11.7284 1.44621Q12.1593 1.26773 12.5984 1.1106Q13.0376 0.953479 13.4839 0.81809Q13.9302 0.682702 14.3826 0.569376Q14.835 0.45605 15.2925 0.36506Q15.7499 0.27407 16.2113 0.205635Q16.6726 0.1372 17.1368 0.0914854Q17.6009 0.0457703 18.0668 0.0228851Q18.5326 0 18.999 0Z" transform="matrix(0.8191521 -0.5735765 0.5735765 0.8191521 1.072334 50.11049)" id="Rectangle-3" fill="#E73453" stroke="none" />
    </g>
    <g id="Group-3-Copy-2" transform="translate(401.5119 179.8918)">
      <path d="M18.999 0L67.5424 0Q68.0088 0 68.4746 0.0228851Q68.9405 0.0457703 69.4046 0.0914854Q69.8688 0.1372 70.3301 0.205635Q70.7915 0.27407 71.2489 0.36506Q71.7064 0.45605 72.1588 0.569376Q72.6112 0.682702 73.0575 0.818091Q73.5038 0.953479 73.943 1.1106Q74.3821 1.26773 74.813 1.44621Q75.2439 1.6247 75.6655 1.82411Q76.0871 2.02352 76.4985 2.24338Q76.9098 2.46324 77.3098 2.70301Q77.7099 2.94279 78.0977 3.20191Q78.4855 3.46103 78.8601 3.73886Q79.2347 4.01669 79.5952 4.31257Q79.9558 4.60845 80.3014 4.92167Q80.6469 5.23488 80.9767 5.56468Q81.3065 5.89447 81.6197 6.24005Q81.933 6.58563 82.2288 6.94616Q82.5247 7.30669 82.8025 7.68131Q83.0804 8.05592 83.3395 8.44372Q83.5986 8.83152 83.8384 9.23156Q84.0782 9.63161 84.298 10.0429Q84.5179 10.4543 84.7173 10.8759Q84.9167 11.2975 85.0952 11.7284Q85.2737 12.1593 85.4308 12.5984Q85.5879 13.0376 85.7233 13.4839Q85.8587 13.9302 85.972 14.3826Q86.0853 14.835 86.1763 15.2925Q86.2673 15.7499 86.3358 16.2113Q86.4042 16.6726 86.4499 17.1368Q86.4956 17.6009 86.5185 18.0668Q86.5414 18.5326 86.5414 18.999L86.5414 23.2654Q86.5414 23.7318 86.5185 24.1976Q86.4956 24.6635 86.4499 25.1276Q86.4042 25.5918 86.3358 26.0531Q86.2673 26.5145 86.1763 26.9719Q86.0853 27.4294 85.972 27.8818Q85.8587 28.3342 85.7233 28.7805Q85.5879 29.2268 85.4308 29.666Q85.2737 30.1051 85.0952 30.536Q84.9167 30.9669 84.7173 31.3885Q84.5179 31.8101 84.298 32.2215Q84.0782 32.6328 83.8384 33.0328Q83.5986 33.4329 83.3395 33.8207Q83.0804 34.2085 82.8025 34.5831Q82.5247 34.9577 82.2288 35.3182Q81.933 35.6788 81.6197 36.0243Q81.3065 36.3699 80.9767 36.6997Q80.6469 37.0295 80.3014 37.3427Q79.9558 37.656 79.5952 37.9518Q79.2347 38.2477 78.8601 38.5255Q78.4855 38.8034 78.0977 39.0625Q77.7099 39.3216 77.3098 39.5614Q76.9098 39.8012 76.4985 40.021Q76.0871 40.2409 75.6655 40.4403Q75.2439 40.6397 74.813 40.8182Q74.3821 40.9967 73.943 41.1538Q73.5038 41.3109 73.0575 41.4463Q72.6112 41.5817 72.1588 41.695Q71.7064 41.8083 71.2489 41.8993Q70.7915 41.9903 70.3301 42.0588Q69.8688 42.1272 69.4046 42.1729Q68.9405 42.2186 68.4746 42.2415Q68.0088 42.2644 67.5424 42.2644L18.999 42.2644Q18.5326 42.2644 18.0668 42.2415Q17.6009 42.2186 17.1368 42.1729Q16.6726 42.1272 16.2113 42.0588Q15.7499 41.9903 15.2925 41.8993Q14.835 41.8083 14.3826 41.695Q13.9302 41.5817 13.4839 41.4463Q13.0376 41.3109 12.5984 41.1538Q12.1593 40.9967 11.7284 40.8182Q11.2975 40.6397 10.8759 40.4403Q10.4543 40.2409 10.0429 40.021Q9.63161 39.8012 9.23156 39.5614Q8.83152 39.3216 8.44372 39.0625Q8.05592 38.8034 7.68131 38.5255Q7.30669 38.2477 6.94616 37.9518Q6.58563 37.656 6.24005 37.3427Q5.89447 37.0295 5.56468 36.6997Q5.23488 36.3699 4.92167 36.0244Q4.60845 35.6788 4.31257 35.3182Q4.01669 34.9577 3.73886 34.5831Q3.46103 34.2085 3.20191 33.8207Q2.94279 33.4329 2.70301 33.0328Q2.46324 32.6328 2.24338 32.2215Q2.02352 31.8101 1.82411 31.3885Q1.6247 30.9669 1.44621 30.536Q1.26773 30.1051 1.1106 29.666Q0.953479 29.2268 0.81809 28.7805Q0.682702 28.3342 0.569376 27.8818Q0.45605 27.4294 0.36506 26.9719Q0.27407 26.5145 0.205635 26.0531Q0.1372 25.5918 0.0914854 25.1276Q0.0457703 24.6635 0.0228851 24.1976Q0 23.7318 0 23.2654L0 18.999Q0 18.5326 0.0228851 18.0668Q0.0457703 17.6009 0.0914854 17.1368Q0.1372 16.6726 0.205635 16.2113Q0.27407 15.7499 0.36506 15.2925Q0.45605 14.835 0.569376 14.3826Q0.682702 13.9302 0.818091 13.4839Q0.953479 13.0376 1.1106 12.5984Q1.26773 12.1593 1.44621 11.7284Q1.6247 11.2975 1.82411 10.8759Q2.02352 10.4543 2.24338 10.0429Q2.46324 9.63161 2.70301 9.23156Q2.94279 8.83152 3.20191 8.44372Q3.46103 8.05592 3.73886 7.68131Q4.01669 7.30669 4.31257 6.94616Q4.60845 6.58563 4.92167 6.24005Q5.23488 5.89447 5.56468 5.56468Q5.89447 5.23488 6.24005 4.92167Q6.58563 4.60845 6.94616 4.31257Q7.30669 4.01669 7.68131 3.73886Q8.05592 3.46103 8.44372 3.20191Q8.83152 2.94279 9.23156 2.70301Q9.63161 2.46324 10.0429 2.24338Q10.4543 2.02352 10.8759 1.82411Q11.2975 1.6247 11.7284 1.44621Q12.1593 1.26773 12.5984 1.1106Q13.0376 0.953479 13.4839 0.81809Q13.9302 0.682702 14.3826 0.569376Q14.835 0.45605 15.2925 0.36506Q15.7499 0.27407 16.2113 0.205635Q16.6726 0.1372 17.1368 0.0914854Q17.6009 0.0457703 18.0668 0.0228851Q18.5326 0 18.999 0Z" transform="matrix(0.8191521 -0.5735765 0.5735765 0.8191521 0.01571608 57.50676)" id="Rectangle-3-Copy" fill="#B74256" stroke="none" />
      <path d="M18.999 0L67.5424 0Q68.0088 0 68.4746 0.0228851Q68.9405 0.0457703 69.4046 0.0914854Q69.8688 0.1372 70.3301 0.205635Q70.7915 0.27407 71.2489 0.36506Q71.7064 0.45605 72.1588 0.569376Q72.6112 0.682702 73.0575 0.818091Q73.5038 0.953479 73.943 1.1106Q74.3821 1.26773 74.813 1.44621Q75.2439 1.6247 75.6655 1.82411Q76.0871 2.02352 76.4985 2.24338Q76.9098 2.46324 77.3098 2.70301Q77.7099 2.94279 78.0977 3.20191Q78.4855 3.46103 78.8601 3.73886Q79.2347 4.01669 79.5952 4.31257Q79.9558 4.60845 80.3014 4.92167Q80.6469 5.23488 80.9767 5.56468Q81.3065 5.89447 81.6197 6.24005Q81.933 6.58563 82.2288 6.94616Q82.5247 7.30669 82.8025 7.68131Q83.0804 8.05592 83.3395 8.44372Q83.5986 8.83152 83.8384 9.23156Q84.0782 9.63161 84.298 10.0429Q84.5179 10.4543 84.7173 10.8759Q84.9167 11.2975 85.0952 11.7284Q85.2737 12.1593 85.4308 12.5984Q85.5879 13.0376 85.7233 13.4839Q85.8587 13.9302 85.972 14.3826Q86.0853 14.835 86.1763 15.2925Q86.2673 15.7499 86.3358 16.2113Q86.4042 16.6726 86.4499 17.1368Q86.4956 17.6009 86.5185 18.0668Q86.5414 18.5326 86.5414 18.999L86.5414 23.2654Q86.5414 23.7318 86.5185 24.1976Q86.4956 24.6635 86.4499 25.1276Q86.4042 25.5918 86.3358 26.0531Q86.2673 26.5145 86.1763 26.9719Q86.0853 27.4294 85.972 27.8818Q85.8587 28.3342 85.7233 28.7805Q85.5879 29.2268 85.4308 29.666Q85.2737 30.1051 85.0952 30.536Q84.9167 30.9669 84.7173 31.3885Q84.5179 31.8101 84.298 32.2215Q84.0782 32.6328 83.8384 33.0328Q83.5986 33.4329 83.3395 33.8207Q83.0804 34.2085 82.8025 34.5831Q82.5247 34.9577 82.2288 35.3182Q81.933 35.6788 81.6197 36.0243Q81.3065 36.3699 80.9767 36.6997Q80.6469 37.0295 80.3014 37.3427Q79.9558 37.656 79.5952 37.9518Q79.2347 38.2477 78.8601 38.5255Q78.4855 38.8034 78.0977 39.0625Q77.7099 39.3216 77.3098 39.5614Q76.9098 39.8012 76.4985 40.021Q76.0871 40.2409 75.6655 40.4403Q75.2439 40.6397 74.813 40.8182Q74.3821 40.9967 73.943 41.1538Q73.5038 41.3109 73.0575 41.4463Q72.6112 41.5817 72.1588 41.695Q71.7064 41.8083 71.2489 41.8993Q70.7915 41.9903 70.3301 42.0588Q69.8688 42.1272 69.4046 42.1729Q68.9405 42.2186 68.4746 42.2415Q68.0088 42.2644 67.5424 42.2644L18.999 42.2644Q18.5326 42.2644 18.0668 42.2415Q17.6009 42.2186 17.1368 42.1729Q16.6726 42.1272 16.2113 42.0588Q15.7499 41.9903 15.2925 41.8993Q14.835 41.8083 14.3826 41.695Q13.9302 41.5817 13.4839 41.4463Q13.0376 41.3109 12.5984 41.1538Q12.1593 40.9967 11.7284 40.8182Q11.2975 40.6397 10.8759 40.4403Q10.4543 40.2409 10.0429 40.021Q9.63161 39.8012 9.23156 39.5614Q8.83152 39.3216 8.44372 39.0625Q8.05592 38.8034 7.68131 38.5255Q7.30669 38.2477 6.94616 37.9518Q6.58563 37.656 6.24005 37.3427Q5.89447 37.0295 5.56468 36.6997Q5.23488 36.3699 4.92167 36.0244Q4.60845 35.6788 4.31257 35.3182Q4.01669 34.9577 3.73886 34.5831Q3.46103 34.2085 3.20191 33.8207Q2.94279 33.4329 2.70301 33.0328Q2.46324 32.6328 2.24338 32.2215Q2.02352 31.8101 1.82411 31.3885Q1.6247 30.9669 1.44621 30.536Q1.26773 30.1051 1.1106 29.666Q0.953479 29.2268 0.81809 28.7805Q0.682702 28.3342 0.569376 27.8818Q0.45605 27.4294 0.36506 26.9719Q0.27407 26.5145 0.205635 26.0531Q0.1372 25.5918 0.0914854 25.1276Q0.0457703 24.6635 0.0228851 24.1976Q0 23.7318 0 23.2654L0 18.999Q0 18.5326 0.0228851 18.0668Q0.0457703 17.6009 0.0914854 17.1368Q0.1372 16.6726 0.205635 16.2113Q0.27407 15.7499 0.36506 15.2925Q0.45605 14.835 0.569376 14.3826Q0.682702 13.9302 0.818091 13.4839Q0.953479 13.0376 1.1106 12.5984Q1.26773 12.1593 1.44621 11.7284Q1.6247 11.2975 1.82411 10.8759Q2.02352 10.4543 2.24338 10.0429Q2.46324 9.63161 2.70301 9.23156Q2.94279 8.83152 3.20191 8.44372Q3.46103 8.05592 3.73886 7.68131Q4.01669 7.30669 4.31257 6.94616Q4.60845 6.58563 4.92167 6.24005Q5.23488 5.89447 5.56468 5.56468Q5.89447 5.23488 6.24005 4.92167Q6.58563 4.60845 6.94616 4.31257Q7.30669 4.01669 7.68131 3.73886Q8.05592 3.46103 8.44372 3.20191Q8.83152 2.94279 9.23156 2.70301Q9.63161 2.46324 10.0429 2.24338Q10.4543 2.02352 10.8759 1.82411Q11.2975 1.6247 11.7284 1.44621Q12.1593 1.26773 12.5984 1.1106Q13.0376 0.953479 13.4839 0.81809Q13.9302 0.682702 14.3826 0.569376Q14.835 0.45605 15.2925 0.36506Q15.7499 0.27407 16.2113 0.205635Q16.6726 0.1372 17.1368 0.0914854Q17.6009 0.0457703 18.0668 0.0228851Q18.5326 0 18.999 0Z" transform="matrix(0.8191521 -0.5735765 0.5735765 0.8191521 1.072334 50.11049)" id="Rectangle-3" fill="url(#gradient_1)" stroke="none" />
    </g>
    <g id="Group-3-Copy" transform="translate(233.5108 324.6474)">
      <path d="M12.0745 0L77.4857 0Q77.7822 0 78.0782 0.0145443Q78.3743 0.0290886 78.6693 0.0581422Q78.9642 0.0871958 79.2574 0.130689Q79.5507 0.174182 79.8414 0.232009Q80.1321 0.289836 80.4196 0.361859Q80.7071 0.433882 80.9908 0.519926Q81.2744 0.60597 81.5535 0.705829Q81.8326 0.805687 82.1065 0.91912Q82.3803 1.03255 82.6483 1.15929Q82.9162 1.28602 83.1776 1.42575Q83.439 1.56548 83.6933 1.71786Q83.9475 1.87025 84.194 2.03493Q84.4405 2.19961 84.6785 2.37618Q84.9166 2.55275 85.1458 2.7408Q85.3749 2.92884 85.5945 3.1279Q85.8141 3.32696 86.0237 3.53655Q86.2333 3.74615 86.4324 3.96578Q86.6315 4.1854 86.8195 4.41453Q87.0075 4.64367 87.1841 4.88175Q87.3607 5.11983 87.5254 5.36629Q87.69 5.61275 87.8424 5.86699Q87.9948 6.12123 88.1346 6.38264Q88.2743 6.64406 88.401 6.91201Q88.5277 7.17997 88.6412 7.45382Q88.7546 7.72767 88.8545 8.00675Q88.9543 8.28584 89.0404 8.56949Q89.1264 8.85314 89.1984 9.14067Q89.2705 9.4282 89.3283 9.71892Q89.3861 10.0096 89.4296 10.3028Q89.4731 10.596 89.5022 10.891Q89.5312 11.186 89.5458 11.4821Q89.5603 11.7781 89.5603 12.0745L89.5603 12.0765Q89.5603 12.373 89.5457 12.669Q89.5312 12.9651 89.5022 13.2601Q89.4731 13.555 89.4296 13.8482Q89.3861 14.1415 89.3283 14.4322Q89.2705 14.7229 89.1984 15.0104Q89.1264 15.2979 89.0404 15.5816Q88.9543 15.8652 88.8545 16.1443Q88.7546 16.4234 88.6412 16.6973Q88.5277 16.9711 88.401 17.2391Q88.2743 17.507 88.1346 17.7684Q87.9948 18.0299 87.8424 18.2841Q87.69 18.5383 87.5254 18.7848Q87.3607 19.0313 87.1841 19.2693Q87.0075 19.5074 86.8195 19.7366Q86.6315 19.9657 86.4324 20.1853Q86.2333 20.4049 86.0237 20.6145Q85.8141 20.8241 85.5945 21.0232Q85.3749 21.2223 85.1458 21.4103Q84.9166 21.5983 84.6785 21.7749Q84.4405 21.9515 84.194 22.1162Q83.9475 22.2808 83.6933 22.4332Q83.439 22.5856 83.1776 22.7253Q82.9162 22.8651 82.6483 22.9918Q82.3803 23.1185 82.1065 23.232Q81.8326 23.3454 81.5535 23.4453Q81.2744 23.5451 80.9908 23.6312Q80.7071 23.7172 80.4196 23.7892Q80.1321 23.8613 79.8414 23.9191Q79.5507 23.9769 79.2574 24.0204Q78.9642 24.0639 78.6693 24.0929Q78.3743 24.122 78.0782 24.1365Q77.7822 24.1511 77.4857 24.1511L12.0745 24.1511Q11.7781 24.1511 11.4821 24.1365Q11.186 24.122 10.891 24.0929Q10.596 24.0639 10.3028 24.0204Q10.0096 23.9769 9.71892 23.9191Q9.4282 23.8613 9.14067 23.7892Q8.85314 23.7172 8.56949 23.6312Q8.28584 23.5451 8.00675 23.4453Q7.72767 23.3454 7.45382 23.232Q7.17997 23.1185 6.91201 22.9918Q6.64406 22.8651 6.38264 22.7253Q6.12123 22.5856 5.86699 22.4332Q5.61275 22.2808 5.36629 22.1162Q5.11983 21.9515 4.88175 21.7749Q4.64367 21.5983 4.41453 21.4103Q4.1854 21.2223 3.96578 21.0232Q3.74615 20.8241 3.53655 20.6145Q3.32696 20.4049 3.1279 20.1853Q2.92884 19.9657 2.7408 19.7366Q2.55275 19.5074 2.37618 19.2693Q2.19961 19.0313 2.03493 18.7848Q1.87025 18.5383 1.71786 18.2841Q1.56548 18.0299 1.42575 17.7684Q1.28602 17.507 1.15929 17.2391Q1.03255 16.9711 0.91912 16.6973Q0.805687 16.4234 0.705829 16.1443Q0.60597 15.8652 0.519926 15.5816Q0.433882 15.2979 0.361859 15.0104Q0.289836 14.7229 0.232009 14.4322Q0.174182 14.1415 0.130689 13.8482Q0.0871958 13.555 0.0581422 13.2601Q0.0290886 12.9651 0.0145443 12.669Q0 12.373 0 12.0765L0 12.0745Q0 11.7781 0.0145443 11.4821Q0.0290886 11.186 0.0581422 10.891Q0.0871958 10.596 0.130689 10.3028Q0.174182 10.0096 0.232009 9.71892Q0.289836 9.4282 0.361859 9.14067Q0.433882 8.85314 0.519926 8.56949Q0.60597 8.28584 0.705829 8.00675Q0.805687 7.72767 0.91912 7.45382Q1.03255 7.17997 1.15929 6.91201Q1.28602 6.64406 1.42575 6.38264Q1.56548 6.12123 1.71786 5.86699Q1.87025 5.61275 2.03493 5.36629Q2.19961 5.11983 2.37618 4.88175Q2.55275 4.64367 2.7408 4.41453Q2.92884 4.1854 3.1279 3.96578Q3.32696 3.74615 3.53655 3.53655Q3.74615 3.32696 3.96578 3.1279Q4.1854 2.92884 4.41453 2.7408Q4.64367 2.55275 4.88175 2.37618Q5.11983 2.19961 5.36629 2.03493Q5.61275 1.87025 5.86699 1.71786Q6.12123 1.56548 6.38264 1.42575Q6.64406 1.28602 6.91201 1.15929Q7.17997 1.03255 7.45382 0.91912Q7.72767 0.805687 8.00675 0.705829Q8.28584 0.60597 8.56949 0.519926Q8.85314 0.433882 9.14067 0.361859Q9.4282 0.289836 9.71892 0.232009Q10.0096 0.174182 10.3028 0.130689Q10.596 0.0871958 10.891 0.0581422Q11.186 0.0290886 11.4821 0.0145443Q11.7781 0 12.0745 0L12.0745 0Z" transform="matrix(0.8191521 -0.5735765 0.5735765 0.8191521 0.2770087 57.94851)" id="Rectangle-3-Copy" fill="#B74256" stroke="none" />
      <path d="M12.0745 0L77.4857 0Q77.7822 0 78.0782 0.0145443Q78.3743 0.0290886 78.6693 0.0581422Q78.9642 0.0871958 79.2574 0.130689Q79.5507 0.174182 79.8414 0.232009Q80.1321 0.289836 80.4196 0.361859Q80.7071 0.433882 80.9908 0.519926Q81.2744 0.60597 81.5535 0.705829Q81.8326 0.805687 82.1065 0.91912Q82.3803 1.03255 82.6483 1.15929Q82.9162 1.28602 83.1776 1.42575Q83.439 1.56548 83.6933 1.71786Q83.9475 1.87025 84.194 2.03493Q84.4405 2.19961 84.6785 2.37618Q84.9166 2.55275 85.1458 2.7408Q85.3749 2.92884 85.5945 3.1279Q85.8141 3.32696 86.0237 3.53655Q86.2333 3.74615 86.4324 3.96578Q86.6315 4.1854 86.8195 4.41453Q87.0075 4.64367 87.1841 4.88175Q87.3607 5.11983 87.5254 5.36629Q87.69 5.61275 87.8424 5.86699Q87.9948 6.12123 88.1346 6.38264Q88.2743 6.64406 88.401 6.91201Q88.5277 7.17997 88.6412 7.45382Q88.7546 7.72767 88.8545 8.00675Q88.9543 8.28584 89.0404 8.56949Q89.1264 8.85314 89.1984 9.14067Q89.2705 9.4282 89.3283 9.71892Q89.3861 10.0096 89.4296 10.3028Q89.4731 10.596 89.5022 10.891Q89.5312 11.186 89.5458 11.4821Q89.5603 11.7781 89.5603 12.0745L89.5603 12.0765Q89.5603 12.373 89.5457 12.669Q89.5312 12.9651 89.5022 13.2601Q89.4731 13.555 89.4296 13.8482Q89.3861 14.1415 89.3283 14.4322Q89.2705 14.7229 89.1984 15.0104Q89.1264 15.2979 89.0404 15.5816Q88.9543 15.8652 88.8545 16.1443Q88.7546 16.4234 88.6412 16.6973Q88.5277 16.9711 88.401 17.2391Q88.2743 17.507 88.1346 17.7684Q87.9948 18.0299 87.8424 18.2841Q87.69 18.5383 87.5254 18.7848Q87.3607 19.0313 87.1841 19.2693Q87.0075 19.5074 86.8195 19.7366Q86.6315 19.9657 86.4324 20.1853Q86.2333 20.4049 86.0237 20.6145Q85.8141 20.8241 85.5945 21.0232Q85.3749 21.2223 85.1458 21.4103Q84.9166 21.5983 84.6785 21.7749Q84.4405 21.9515 84.194 22.1162Q83.9475 22.2808 83.6933 22.4332Q83.439 22.5856 83.1776 22.7253Q82.9162 22.8651 82.6483 22.9918Q82.3803 23.1185 82.1065 23.232Q81.8326 23.3454 81.5535 23.4453Q81.2744 23.5451 80.9908 23.6312Q80.7071 23.7172 80.4196 23.7892Q80.1321 23.8613 79.8414 23.9191Q79.5507 23.9769 79.2574 24.0204Q78.9642 24.0639 78.6693 24.0929Q78.3743 24.122 78.0782 24.1365Q77.7822 24.1511 77.4857 24.1511L12.0745 24.1511Q11.7781 24.1511 11.4821 24.1365Q11.186 24.122 10.891 24.0929Q10.596 24.0639 10.3028 24.0204Q10.0096 23.9769 9.71892 23.9191Q9.4282 23.8613 9.14067 23.7892Q8.85314 23.7172 8.56949 23.6312Q8.28584 23.5451 8.00675 23.4453Q7.72767 23.3454 7.45382 23.232Q7.17997 23.1185 6.91201 22.9918Q6.64406 22.8651 6.38264 22.7253Q6.12123 22.5856 5.86699 22.4332Q5.61275 22.2808 5.36629 22.1162Q5.11983 21.9515 4.88175 21.7749Q4.64367 21.5983 4.41453 21.4103Q4.1854 21.2223 3.96578 21.0232Q3.74615 20.8241 3.53655 20.6145Q3.32696 20.4049 3.1279 20.1853Q2.92884 19.9657 2.7408 19.7366Q2.55275 19.5074 2.37618 19.2693Q2.19961 19.0313 2.03493 18.7848Q1.87025 18.5383 1.71786 18.2841Q1.56548 18.0299 1.42575 17.7684Q1.28602 17.507 1.15929 17.2391Q1.03255 16.9711 0.91912 16.6973Q0.805687 16.4234 0.705829 16.1443Q0.60597 15.8652 0.519926 15.5816Q0.433882 15.2979 0.361859 15.0104Q0.289836 14.7229 0.232009 14.4322Q0.174182 14.1415 0.130689 13.8482Q0.0871958 13.555 0.0581422 13.2601Q0.0290886 12.9651 0.0145443 12.669Q0 12.373 0 12.0765L0 12.0745Q0 11.7781 0.0145443 11.4821Q0.0290886 11.186 0.0581422 10.891Q0.0871958 10.596 0.130689 10.3028Q0.174182 10.0096 0.232009 9.71892Q0.289836 9.4282 0.361859 9.14067Q0.433882 8.85314 0.519926 8.56949Q0.60597 8.28584 0.705829 8.00675Q0.805687 7.72767 0.91912 7.45382Q1.03255 7.17997 1.15929 6.91201Q1.28602 6.64406 1.42575 6.38264Q1.56548 6.12123 1.71786 5.86699Q1.87025 5.61275 2.03493 5.36629Q2.19961 5.11983 2.37618 4.88175Q2.55275 4.64367 2.7408 4.41453Q2.92884 4.1854 3.1279 3.96578Q3.32696 3.74615 3.53655 3.53655Q3.74615 3.32696 3.96578 3.1279Q4.1854 2.92884 4.41453 2.7408Q4.64367 2.55275 4.88175 2.37618Q5.11983 2.19961 5.36629 2.03493Q5.61275 1.87025 5.86699 1.71786Q6.12123 1.56548 6.38264 1.42575Q6.64406 1.28602 6.91201 1.15929Q7.17997 1.03255 7.45382 0.91912Q7.72767 0.805687 8.00675 0.705829Q8.28584 0.60597 8.56949 0.519926Q8.85314 0.433882 9.14067 0.361859Q9.4282 0.289836 9.71892 0.232009Q10.0096 0.174182 10.3028 0.130689Q10.596 0.0871958 10.891 0.0581422Q11.186 0.0290886 11.4821 0.0145443Q11.7781 0 12.0745 0L12.0745 0Z" transform="matrix(0.8191521 -0.5735765 0.5735765 0.8191521 1.333622 51.60885)" id="Rectangle-3" fill="#E73453" stroke="none" />
    </g>
    <g id="Group-2" transform="translate(450.1159 2.11322)">
      <path d="M13.2066 0L81.8883 0Q82.2125 0 82.5363 0.015908Q82.8601 0.0318159 83.1828 0.0635935Q83.5054 0.0953711 83.8261 0.142942Q84.1468 0.190512 84.4648 0.253762Q84.7827 0.317011 85.0972 0.395786Q85.4117 0.474561 85.722 0.568673Q86.0322 0.662785 86.3375 0.772006Q86.6427 0.881227 86.9422 1.00529Q87.2418 1.12936 87.5348 1.26798Q87.8279 1.40659 88.1138 1.55942Q88.3998 1.71225 88.6778 1.87893Q88.9559 2.0456 89.2255 2.22572Q89.495 2.40584 89.7555 2.59896Q90.0159 2.79209 90.2665 2.99777Q90.5171 3.20344 90.7573 3.42116Q90.9975 3.63888 91.2268 3.86813Q91.456 4.09738 91.6737 4.3376Q91.8915 4.57782 92.0971 4.82843Q92.3028 5.07904 92.4959 5.33945Q92.6891 5.59985 92.8692 5.86942Q93.0493 6.13898 93.216 6.41706Q93.3827 6.69514 93.5355 6.98107Q93.6883 7.26699 93.8269 7.56007Q93.9655 7.85314 94.0896 8.15267Q94.2137 8.4522 94.3229 8.75745Q94.4321 9.0627 94.5262 9.37294Q94.6203 9.68319 94.6991 9.99768Q94.7779 10.3122 94.8411 10.6301Q94.9044 10.9481 94.952 11.2688Q94.9995 11.5895 95.0313 11.9122Q95.0631 12.2348 95.079 12.5586Q95.0949 12.8824 95.0949 13.2066L95.0949 13.2086Q95.0949 13.5328 95.079 13.8566Q95.0631 14.1805 95.0313 14.5031Q94.9995 14.8257 94.952 15.1464Q94.9044 15.4671 94.8411 15.7851Q94.7779 16.1031 94.6991 16.4176Q94.6203 16.7321 94.5262 17.0423Q94.4321 17.3526 94.3229 17.6578Q94.2137 17.9631 94.0896 18.2626Q93.9655 18.5621 93.8269 18.8552Q93.6883 19.1483 93.5355 19.4342Q93.3827 19.7201 93.216 19.9982Q93.0493 20.2763 92.8692 20.5458Q92.6891 20.8154 92.4959 21.0758Q92.3028 21.3362 92.0971 21.5868Q91.8915 21.8374 91.6737 22.0777Q91.456 22.3179 91.2268 22.5471Q90.9975 22.7764 90.7573 22.9941Q90.5171 23.2118 90.2665 23.4175Q90.0159 23.6232 89.7554 23.8163Q89.495 24.0094 89.2255 24.1895Q88.9559 24.3697 88.6778 24.5363Q88.3998 24.703 88.1138 24.8558Q87.8279 25.0087 87.5348 25.1473Q87.2418 25.2859 86.9422 25.41Q86.6427 25.534 86.3375 25.6432Q86.0322 25.7525 85.722 25.8466Q85.4117 25.9407 85.0972 26.0195Q84.7827 26.0982 84.4648 26.1615Q84.1468 26.2247 83.8261 26.2723Q83.5054 26.3199 83.1828 26.3517Q82.8601 26.3834 82.5363 26.3993Q82.2125 26.4153 81.8883 26.4153L13.2066 26.4153Q12.8824 26.4153 12.5586 26.3993Q12.2348 26.3834 11.9122 26.3517Q11.5895 26.3199 11.2688 26.2723Q10.9481 26.2247 10.6301 26.1615Q10.3122 26.0982 9.99768 26.0195Q9.68319 25.9407 9.37294 25.8466Q9.0627 25.7525 8.75745 25.6432Q8.4522 25.534 8.15267 25.41Q7.85314 25.2859 7.56007 25.1473Q7.26699 25.0087 6.98107 24.8558Q6.69514 24.703 6.41706 24.5363Q6.13898 24.3697 5.86942 24.1895Q5.59985 24.0094 5.33945 23.8163Q5.07904 23.6232 4.82843 23.4175Q4.57782 23.2118 4.3376 22.9941Q4.09738 22.7764 3.86813 22.5471Q3.63888 22.3179 3.42116 22.0777Q3.20344 21.8374 2.99777 21.5868Q2.79209 21.3362 2.59896 21.0758Q2.40584 20.8154 2.22572 20.5458Q2.0456 20.2763 1.87892 19.9982Q1.71225 19.7201 1.55942 19.4342Q1.40659 19.1483 1.26798 18.8552Q1.12936 18.5621 1.00529 18.2626Q0.881227 17.9631 0.772006 17.6578Q0.662784 17.3526 0.568673 17.0423Q0.474561 16.7321 0.395786 16.4176Q0.317011 16.1031 0.253762 15.7851Q0.190512 15.4671 0.142942 15.1464Q0.0953711 14.8257 0.0635935 14.5031Q0.0318159 14.1805 0.015908 13.8566Q0 13.5328 0 13.2086L0 13.2066Q0 12.8824 0.015908 12.5586Q0.0318159 12.2348 0.0635935 11.9122Q0.0953711 11.5895 0.142942 11.2688Q0.190512 10.9481 0.253762 10.6301Q0.317011 10.3122 0.395786 9.99768Q0.474561 9.68319 0.568673 9.37294Q0.662784 9.0627 0.772006 8.75745Q0.881227 8.4522 1.00529 8.15267Q1.12936 7.85314 1.26798 7.56007Q1.40659 7.26699 1.55942 6.98107Q1.71225 6.69514 1.87892 6.41706Q2.0456 6.13898 2.22572 5.86942Q2.40584 5.59985 2.59896 5.33945Q2.79209 5.07904 2.99777 4.82843Q3.20344 4.57782 3.42116 4.3376Q3.63888 4.09738 3.86813 3.86813Q4.09738 3.63888 4.3376 3.42116Q4.57782 3.20344 4.82843 2.99777Q5.07904 2.79209 5.33945 2.59896Q5.59985 2.40584 5.86942 2.22572Q6.13898 2.0456 6.41706 1.87892Q6.69514 1.71225 6.98107 1.55942Q7.26699 1.40659 7.56007 1.26798Q7.85314 1.12936 8.15267 1.00529Q8.4522 0.881227 8.75745 0.772006Q9.0627 0.662784 9.37294 0.568673Q9.68319 0.474561 9.99768 0.395786Q10.3122 0.317011 10.6301 0.253762Q10.9481 0.190512 11.2688 0.142942Q11.5895 0.0953711 11.9122 0.0635935Q12.2348 0.0318159 12.5586 0.015908Q12.8824 0 13.2066 0L13.2066 0Z" transform="matrix(0.8191521 -0.5735765 0.5735765 0.8191521 0.5370702 61.96455)" id="Rectangle-3-Copy-3" fill="#B74256" stroke="none" />
      <path d="M13.2066 0L81.8883 0Q82.2125 0 82.5363 0.015908Q82.8601 0.0318159 83.1828 0.0635935Q83.5054 0.0953711 83.8261 0.142942Q84.1468 0.190512 84.4648 0.253762Q84.7827 0.317011 85.0972 0.395786Q85.4117 0.474561 85.722 0.568673Q86.0322 0.662785 86.3375 0.772006Q86.6427 0.881227 86.9422 1.00529Q87.2418 1.12936 87.5348 1.26798Q87.8279 1.40659 88.1138 1.55942Q88.3998 1.71225 88.6778 1.87893Q88.9559 2.0456 89.2255 2.22572Q89.495 2.40584 89.7555 2.59896Q90.0159 2.79209 90.2665 2.99777Q90.5171 3.20344 90.7573 3.42116Q90.9975 3.63888 91.2268 3.86813Q91.456 4.09738 91.6737 4.3376Q91.8915 4.57782 92.0971 4.82843Q92.3028 5.07904 92.4959 5.33945Q92.6891 5.59985 92.8692 5.86942Q93.0493 6.13898 93.216 6.41706Q93.3827 6.69514 93.5355 6.98107Q93.6883 7.26699 93.8269 7.56007Q93.9655 7.85314 94.0896 8.15267Q94.2137 8.4522 94.3229 8.75745Q94.4321 9.0627 94.5262 9.37294Q94.6203 9.68319 94.6991 9.99768Q94.7779 10.3122 94.8411 10.6301Q94.9044 10.9481 94.952 11.2688Q94.9995 11.5895 95.0313 11.9122Q95.0631 12.2348 95.079 12.5586Q95.0949 12.8824 95.0949 13.2066L95.0949 13.2086Q95.0949 13.5328 95.079 13.8566Q95.0631 14.1805 95.0313 14.5031Q94.9995 14.8257 94.952 15.1464Q94.9044 15.4671 94.8411 15.7851Q94.7779 16.1031 94.6991 16.4176Q94.6203 16.7321 94.5262 17.0423Q94.4321 17.3526 94.3229 17.6578Q94.2137 17.9631 94.0896 18.2626Q93.9655 18.5621 93.8269 18.8552Q93.6883 19.1483 93.5355 19.4342Q93.3827 19.7201 93.216 19.9982Q93.0493 20.2763 92.8692 20.5458Q92.6891 20.8154 92.4959 21.0758Q92.3028 21.3362 92.0971 21.5868Q91.8915 21.8374 91.6737 22.0777Q91.456 22.3179 91.2268 22.5471Q90.9975 22.7764 90.7573 22.9941Q90.5171 23.2118 90.2665 23.4175Q90.0159 23.6232 89.7554 23.8163Q89.495 24.0094 89.2255 24.1895Q88.9559 24.3697 88.6778 24.5363Q88.3998 24.703 88.1138 24.8558Q87.8279 25.0087 87.5348 25.1473Q87.2418 25.2859 86.9422 25.41Q86.6427 25.534 86.3375 25.6432Q86.0322 25.7525 85.722 25.8466Q85.4117 25.9407 85.0972 26.0195Q84.7827 26.0982 84.4648 26.1615Q84.1468 26.2247 83.8261 26.2723Q83.5054 26.3199 83.1828 26.3517Q82.8601 26.3834 82.5363 26.3993Q82.2125 26.4153 81.8883 26.4153L13.2066 26.4153Q12.8824 26.4153 12.5586 26.3993Q12.2348 26.3834 11.9122 26.3517Q11.5895 26.3199 11.2688 26.2723Q10.9481 26.2247 10.6301 26.1615Q10.3122 26.0982 9.99768 26.0195Q9.68319 25.9407 9.37294 25.8466Q9.0627 25.7525 8.75745 25.6432Q8.4522 25.534 8.15267 25.41Q7.85314 25.2859 7.56007 25.1473Q7.26699 25.0087 6.98107 24.8558Q6.69514 24.703 6.41706 24.5363Q6.13898 24.3697 5.86942 24.1895Q5.59985 24.0094 5.33945 23.8163Q5.07904 23.6232 4.82843 23.4175Q4.57782 23.2118 4.3376 22.9941Q4.09738 22.7764 3.86813 22.5471Q3.63888 22.3179 3.42116 22.0777Q3.20344 21.8374 2.99777 21.5868Q2.79209 21.3362 2.59896 21.0758Q2.40584 20.8154 2.22572 20.5458Q2.0456 20.2763 1.87892 19.9982Q1.71225 19.7201 1.55942 19.4342Q1.40659 19.1483 1.26798 18.8552Q1.12936 18.5621 1.00529 18.2626Q0.881227 17.9631 0.772006 17.6578Q0.662784 17.3526 0.568673 17.0423Q0.474561 16.7321 0.395786 16.4176Q0.317011 16.1031 0.253762 15.7851Q0.190512 15.4671 0.142942 15.1464Q0.0953711 14.8257 0.0635935 14.5031Q0.0318159 14.1805 0.015908 13.8566Q0 13.5328 0 13.2086L0 13.2066Q0 12.8824 0.015908 12.5586Q0.0318159 12.2348 0.0635935 11.9122Q0.0953711 11.5895 0.142942 11.2688Q0.190512 10.9481 0.253762 10.6301Q0.317011 10.3122 0.395786 9.99768Q0.474561 9.68319 0.568673 9.37294Q0.662784 9.0627 0.772006 8.75745Q0.881227 8.4522 1.00529 8.15267Q1.12936 7.85314 1.26798 7.56007Q1.40659 7.26699 1.55942 6.98107Q1.71225 6.69514 1.87892 6.41706Q2.0456 6.13898 2.22572 5.86942Q2.40584 5.59985 2.59896 5.33945Q2.79209 5.07904 2.99777 4.82843Q3.20344 4.57782 3.42116 4.3376Q3.63888 4.09738 3.86813 3.86813Q4.09738 3.63888 4.3376 3.42116Q4.57782 3.20344 4.82843 2.99777Q5.07904 2.79209 5.33945 2.59896Q5.59985 2.40584 5.86942 2.22572Q6.13898 2.0456 6.41706 1.87892Q6.69514 1.71225 6.98107 1.55942Q7.26699 1.40659 7.56007 1.26798Q7.85314 1.12936 8.15267 1.00529Q8.4522 0.881227 8.75745 0.772006Q9.0627 0.662784 9.37294 0.568673Q9.68319 0.474561 9.99768 0.395786Q10.3122 0.317011 10.6301 0.253762Q10.9481 0.190512 11.2688 0.142942Q11.5895 0.0953711 11.9122 0.0635935Q12.2348 0.0318159 12.5586 0.015908Q12.8824 0 13.2066 0L13.2066 0Z" transform="matrix(0.8191521 -0.5735765 0.5735765 0.8191521 1.59368 54.56828)" id="Rectangle-3-Copy-2" fill="url(#gradient_1)" stroke="none" />
    </g>
    <g id="Group" transform="translate(320.1529 -5.968559E-13)">
      <path d="M13.2066 0L81.8883 0Q82.2125 0 82.5363 0.015908Q82.8601 0.0318159 83.1828 0.0635935Q83.5054 0.0953711 83.8261 0.142942Q84.1468 0.190512 84.4648 0.253762Q84.7827 0.317011 85.0972 0.395786Q85.4117 0.474561 85.722 0.568673Q86.0322 0.662785 86.3375 0.772006Q86.6427 0.881227 86.9422 1.00529Q87.2418 1.12936 87.5348 1.26798Q87.8279 1.40659 88.1138 1.55942Q88.3998 1.71225 88.6778 1.87893Q88.9559 2.0456 89.2255 2.22572Q89.495 2.40584 89.7555 2.59896Q90.0159 2.79209 90.2665 2.99777Q90.5171 3.20344 90.7573 3.42116Q90.9975 3.63888 91.2268 3.86813Q91.456 4.09738 91.6737 4.3376Q91.8915 4.57782 92.0971 4.82843Q92.3028 5.07904 92.4959 5.33945Q92.6891 5.59985 92.8692 5.86942Q93.0493 6.13898 93.216 6.41706Q93.3827 6.69514 93.5355 6.98107Q93.6883 7.26699 93.8269 7.56007Q93.9655 7.85314 94.0896 8.15267Q94.2137 8.4522 94.3229 8.75745Q94.4321 9.0627 94.5262 9.37294Q94.6203 9.68319 94.6991 9.99768Q94.7779 10.3122 94.8411 10.6301Q94.9044 10.9481 94.952 11.2688Q94.9995 11.5895 95.0313 11.9122Q95.0631 12.2348 95.079 12.5586Q95.0949 12.8824 95.0949 13.2066L95.0949 13.2086Q95.0949 13.5328 95.079 13.8566Q95.0631 14.1805 95.0313 14.5031Q94.9995 14.8257 94.952 15.1464Q94.9044 15.4671 94.8411 15.7851Q94.7779 16.1031 94.6991 16.4176Q94.6203 16.7321 94.5262 17.0423Q94.4321 17.3526 94.3229 17.6578Q94.2137 17.9631 94.0896 18.2626Q93.9655 18.5621 93.8269 18.8552Q93.6883 19.1483 93.5355 19.4342Q93.3827 19.7201 93.216 19.9982Q93.0493 20.2763 92.8692 20.5458Q92.6891 20.8154 92.4959 21.0758Q92.3028 21.3362 92.0971 21.5868Q91.8915 21.8374 91.6737 22.0777Q91.456 22.3179 91.2268 22.5471Q90.9975 22.7764 90.7573 22.9941Q90.5171 23.2118 90.2665 23.4175Q90.0159 23.6232 89.7554 23.8163Q89.495 24.0094 89.2255 24.1895Q88.9559 24.3697 88.6778 24.5363Q88.3998 24.703 88.1138 24.8558Q87.8279 25.0087 87.5348 25.1473Q87.2418 25.2859 86.9422 25.41Q86.6427 25.534 86.3375 25.6432Q86.0322 25.7525 85.722 25.8466Q85.4117 25.9407 85.0972 26.0195Q84.7827 26.0982 84.4648 26.1615Q84.1468 26.2247 83.8261 26.2723Q83.5054 26.3199 83.1828 26.3517Q82.8601 26.3834 82.5363 26.3993Q82.2125 26.4153 81.8883 26.4153L13.2066 26.4153Q12.8824 26.4153 12.5586 26.3993Q12.2348 26.3834 11.9122 26.3517Q11.5895 26.3199 11.2688 26.2723Q10.9481 26.2247 10.6301 26.1615Q10.3122 26.0982 9.99768 26.0195Q9.68319 25.9407 9.37294 25.8466Q9.0627 25.7525 8.75745 25.6432Q8.4522 25.534 8.15267 25.41Q7.85314 25.2859 7.56007 25.1473Q7.26699 25.0087 6.98107 24.8558Q6.69514 24.703 6.41706 24.5363Q6.13898 24.3697 5.86942 24.1895Q5.59985 24.0094 5.33945 23.8163Q5.07904 23.6232 4.82843 23.4175Q4.57782 23.2118 4.3376 22.9941Q4.09738 22.7764 3.86813 22.5471Q3.63888 22.3179 3.42116 22.0777Q3.20344 21.8374 2.99777 21.5868Q2.79209 21.3362 2.59896 21.0758Q2.40584 20.8154 2.22572 20.5458Q2.0456 20.2763 1.87892 19.9982Q1.71225 19.7201 1.55942 19.4342Q1.40659 19.1483 1.26798 18.8552Q1.12936 18.5621 1.00529 18.2626Q0.881227 17.9631 0.772006 17.6578Q0.662784 17.3526 0.568673 17.0423Q0.474561 16.7321 0.395786 16.4176Q0.317011 16.1031 0.253762 15.7851Q0.190512 15.4671 0.142942 15.1464Q0.0953711 14.8257 0.0635935 14.5031Q0.0318159 14.1805 0.015908 13.8566Q0 13.5328 0 13.2086L0 13.2066Q0 12.8824 0.015908 12.5586Q0.0318159 12.2348 0.0635935 11.9122Q0.0953711 11.5895 0.142942 11.2688Q0.190512 10.9481 0.253762 10.6301Q0.317011 10.3122 0.395786 9.99768Q0.474561 9.68319 0.568673 9.37294Q0.662784 9.0627 0.772006 8.75745Q0.881227 8.4522 1.00529 8.15267Q1.12936 7.85314 1.26798 7.56007Q1.40659 7.26699 1.55942 6.98107Q1.71225 6.69514 1.87892 6.41706Q2.0456 6.13898 2.22572 5.86942Q2.40584 5.59985 2.59896 5.33945Q2.79209 5.07904 2.99777 4.82843Q3.20344 4.57782 3.42116 4.3376Q3.63888 4.09738 3.86813 3.86813Q4.09738 3.63888 4.3376 3.42116Q4.57782 3.20344 4.82843 2.99777Q5.07904 2.79209 5.33945 2.59896Q5.59985 2.40584 5.86942 2.22572Q6.13898 2.0456 6.41706 1.87892Q6.69514 1.71225 6.98107 1.55942Q7.26699 1.40659 7.56007 1.26798Q7.85314 1.12936 8.15267 1.00529Q8.4522 0.881227 8.75745 0.772006Q9.0627 0.662784 9.37294 0.568673Q9.68319 0.474561 9.99768 0.395786Q10.3122 0.317011 10.6301 0.253762Q10.9481 0.190512 11.2688 0.142942Q11.5895 0.0953711 11.9122 0.0635935Q12.2348 0.0318159 12.5586 0.015908Q12.8824 0 13.2066 0L13.2066 0Z" transform="matrix(0.8191521 -0.5735765 0.5735765 0.8191521 0.5370702 61.96455)" id="Rectangle-3-Copy-5" fill="#B74256" stroke="none" />
      <path d="M13.2066 0L81.8883 0Q82.2125 0 82.5363 0.015908Q82.8601 0.0318159 83.1828 0.0635935Q83.5054 0.0953711 83.8261 0.142942Q84.1468 0.190512 84.4648 0.253762Q84.7827 0.317011 85.0972 0.395786Q85.4117 0.474561 85.722 0.568673Q86.0322 0.662785 86.3375 0.772006Q86.6427 0.881227 86.9422 1.00529Q87.2418 1.12936 87.5348 1.26798Q87.8279 1.40659 88.1138 1.55942Q88.3998 1.71225 88.6778 1.87893Q88.9559 2.0456 89.2255 2.22572Q89.495 2.40584 89.7555 2.59896Q90.0159 2.79209 90.2665 2.99777Q90.5171 3.20344 90.7573 3.42116Q90.9975 3.63888 91.2268 3.86813Q91.456 4.09738 91.6737 4.3376Q91.8915 4.57782 92.0971 4.82843Q92.3028 5.07904 92.4959 5.33945Q92.6891 5.59985 92.8692 5.86942Q93.0493 6.13898 93.216 6.41706Q93.3827 6.69514 93.5355 6.98107Q93.6883 7.26699 93.8269 7.56007Q93.9655 7.85314 94.0896 8.15267Q94.2137 8.4522 94.3229 8.75745Q94.4321 9.0627 94.5262 9.37294Q94.6203 9.68319 94.6991 9.99768Q94.7779 10.3122 94.8411 10.6301Q94.9044 10.9481 94.952 11.2688Q94.9995 11.5895 95.0313 11.9122Q95.0631 12.2348 95.079 12.5586Q95.0949 12.8824 95.0949 13.2066L95.0949 13.2086Q95.0949 13.5328 95.079 13.8566Q95.0631 14.1805 95.0313 14.5031Q94.9995 14.8257 94.952 15.1464Q94.9044 15.4671 94.8411 15.7851Q94.7779 16.1031 94.6991 16.4176Q94.6203 16.7321 94.5262 17.0423Q94.4321 17.3526 94.3229 17.6578Q94.2137 17.9631 94.0896 18.2626Q93.9655 18.5621 93.8269 18.8552Q93.6883 19.1483 93.5355 19.4342Q93.3827 19.7201 93.216 19.9982Q93.0493 20.2763 92.8692 20.5458Q92.6891 20.8154 92.4959 21.0758Q92.3028 21.3362 92.0971 21.5868Q91.8915 21.8374 91.6737 22.0777Q91.456 22.3179 91.2268 22.5471Q90.9975 22.7764 90.7573 22.9941Q90.5171 23.2118 90.2665 23.4175Q90.0159 23.6232 89.7554 23.8163Q89.495 24.0094 89.2255 24.1895Q88.9559 24.3697 88.6778 24.5363Q88.3998 24.703 88.1138 24.8558Q87.8279 25.0087 87.5348 25.1473Q87.2418 25.2859 86.9422 25.41Q86.6427 25.534 86.3375 25.6432Q86.0322 25.7525 85.722 25.8466Q85.4117 25.9407 85.0972 26.0195Q84.7827 26.0982 84.4648 26.1615Q84.1468 26.2247 83.8261 26.2723Q83.5054 26.3199 83.1828 26.3517Q82.8601 26.3834 82.5363 26.3993Q82.2125 26.4153 81.8883 26.4153L13.2066 26.4153Q12.8824 26.4153 12.5586 26.3993Q12.2348 26.3834 11.9122 26.3517Q11.5895 26.3199 11.2688 26.2723Q10.9481 26.2247 10.6301 26.1615Q10.3122 26.0982 9.99768 26.0195Q9.68319 25.9407 9.37294 25.8466Q9.0627 25.7525 8.75745 25.6432Q8.4522 25.534 8.15267 25.41Q7.85314 25.2859 7.56007 25.1473Q7.26699 25.0087 6.98107 24.8558Q6.69514 24.703 6.41706 24.5363Q6.13898 24.3697 5.86942 24.1895Q5.59985 24.0094 5.33945 23.8163Q5.07904 23.6232 4.82843 23.4175Q4.57782 23.2118 4.3376 22.9941Q4.09738 22.7764 3.86813 22.5471Q3.63888 22.3179 3.42116 22.0777Q3.20344 21.8374 2.99777 21.5868Q2.79209 21.3362 2.59896 21.0758Q2.40584 20.8154 2.22572 20.5458Q2.0456 20.2763 1.87892 19.9982Q1.71225 19.7201 1.55942 19.4342Q1.40659 19.1483 1.26798 18.8552Q1.12936 18.5621 1.00529 18.2626Q0.881227 17.9631 0.772006 17.6578Q0.662784 17.3526 0.568673 17.0423Q0.474561 16.7321 0.395786 16.4176Q0.317011 16.1031 0.253762 15.7851Q0.190512 15.4671 0.142942 15.1464Q0.0953711 14.8257 0.0635935 14.5031Q0.0318159 14.1805 0.015908 13.8566Q0 13.5328 0 13.2086L0 13.2066Q0 12.8824 0.015908 12.5586Q0.0318159 12.2348 0.0635935 11.9122Q0.0953711 11.5895 0.142942 11.2688Q0.190512 10.9481 0.253762 10.6301Q0.317011 10.3122 0.395786 9.99768Q0.474561 9.68319 0.568673 9.37294Q0.662784 9.0627 0.772006 8.75745Q0.881227 8.4522 1.00529 8.15267Q1.12936 7.85314 1.26798 7.56007Q1.40659 7.26699 1.55942 6.98107Q1.71225 6.69514 1.87892 6.41706Q2.0456 6.13898 2.22572 5.86942Q2.40584 5.59985 2.59896 5.33945Q2.79209 5.07904 2.99777 4.82843Q3.20344 4.57782 3.42116 4.3376Q3.63888 4.09738 3.86813 3.86813Q4.09738 3.63888 4.3376 3.42116Q4.57782 3.20344 4.82843 2.99777Q5.07904 2.79209 5.33945 2.59896Q5.59985 2.40584 5.86942 2.22572Q6.13898 2.0456 6.41706 1.87892Q6.69514 1.71225 6.98107 1.55942Q7.26699 1.40659 7.56007 1.26798Q7.85314 1.12936 8.15267 1.00529Q8.4522 0.881227 8.75745 0.772006Q9.0627 0.662784 9.37294 0.568673Q9.68319 0.474561 9.99768 0.395786Q10.3122 0.317011 10.6301 0.253762Q10.9481 0.190512 11.2688 0.142942Q11.5895 0.0953711 11.9122 0.0635935Q12.2348 0.0318159 12.5586 0.015908Q12.8824 0 13.2066 0L13.2066 0Z" transform="matrix(0.8191521 -0.5735765 0.5735765 0.8191521 1.59368 54.56828)" id="Rectangle-3-Copy-4" fill="url(#gradient_1)" stroke="none" />
    </g>
  </g>
</svg>