<?xml version="1.0" encoding="utf-8"?>
<svg width="170px" height="85px" viewBox="0 0 170 85" version="1.1" xmlns:xlink="http://www.w3.org/1999/xlink" xmlns="http://www.w3.org/2000/svg">
  <desc>Created with Lunacy</desc>
  <g id="Карта-Copy">
    <path d="M9.999 0L160.001 0Q160.246 0 160.492 0.0120442Q160.737 0.0240885 160.981 0.0481479Q161.225 0.0722074 161.468 0.108224Q161.711 0.144241 161.952 0.192128Q162.192 0.240015 162.431 0.299657Q162.669 0.3593 162.904 0.430553Q163.138 0.501807 163.37 0.584501Q163.601 0.667194 163.827 0.761128Q164.054 0.855062 164.276 0.960011Q164.498 1.06496 164.714 1.18067Q164.931 1.29638 165.142 1.42257Q165.352 1.54876 165.556 1.68514Q165.76 1.82151 165.957 1.96773Q166.155 2.11395 166.344 2.26967Q166.534 2.42539 166.716 2.59023Q166.898 2.75507 167.071 2.92864Q167.245 3.10221 167.41 3.28408Q167.575 3.46596 167.73 3.6557Q167.886 3.84545 168.032 4.0426Q168.178 4.23976 168.315 4.44385Q168.451 4.64795 168.577 4.85849Q168.704 5.06903 168.819 5.2855Q168.935 5.50198 169.04 5.72388Q169.145 5.94577 169.239 6.17255Q169.333 6.39932 169.415 6.63044Q169.498 6.86155 169.569 7.09644Q169.641 7.33134 169.7 7.56944Q169.76 7.80755 169.808 8.04829Q169.856 8.28904 169.892 8.53184Q169.928 8.77465 169.952 9.01893Q169.976 9.26321 169.988 9.50837Q170 9.75354 170 9.999L170 75.001Q170 75.2465 169.988 75.4916Q169.976 75.7368 169.952 75.9811Q169.928 76.2253 169.892 76.4682Q169.856 76.711 169.808 76.9517Q169.76 77.1925 169.7 77.4306Q169.641 77.6687 169.569 77.9035Q169.498 78.1384 169.415 78.3695Q169.333 78.6007 169.239 78.8274Q169.145 79.0542 169.04 79.2761Q168.935 79.498 168.819 79.7145Q168.704 79.931 168.577 80.1415Q168.451 80.3521 168.315 80.5561Q168.178 80.7602 168.032 80.9574Q167.886 81.1545 167.73 81.3443Q167.575 81.534 167.41 81.7159Q167.245 81.8978 167.071 82.0714Q166.898 82.2449 166.716 82.4098Q166.534 82.5746 166.344 82.7303Q166.155 82.8861 165.957 83.0323Q165.76 83.1785 165.556 83.3149Q165.352 83.4512 165.142 83.5774Q164.931 83.7036 164.714 83.8193Q164.498 83.935 164.276 84.04Q164.054 84.1449 163.827 84.2389Q163.601 84.3328 163.37 84.4155Q163.138 84.4982 162.904 84.5695Q162.669 84.6407 162.431 84.7003Q162.192 84.76 161.952 84.8079Q161.711 84.8558 161.468 84.8918Q161.225 84.9278 160.981 84.9519Q160.737 84.9759 160.492 84.988Q160.246 85 160.001 85L9.999 85Q9.75354 85 9.50837 84.988Q9.26321 84.9759 9.01893 84.9519Q8.77465 84.9278 8.53184 84.8918Q8.28904 84.8558 8.04829 84.8079Q7.80755 84.76 7.56944 84.7003Q7.33134 84.6407 7.09644 84.5695Q6.86155 84.4982 6.63044 84.4155Q6.39932 84.3328 6.17255 84.2389Q5.94577 84.1449 5.72388 84.04Q5.50198 83.935 5.2855 83.8193Q5.06903 83.7036 4.85849 83.5774Q4.64795 83.4512 4.44385 83.3149Q4.23976 83.1785 4.0426 83.0323Q3.84545 82.8861 3.6557 82.7303Q3.46596 82.5746 3.28408 82.4098Q3.10221 82.2449 2.92864 82.0714Q2.75507 81.8978 2.59023 81.7159Q2.42539 81.534 2.26967 81.3443Q2.11395 81.1545 1.96773 80.9574Q1.82151 80.7602 1.68514 80.5561Q1.54876 80.3521 1.42257 80.1415Q1.29638 79.931 1.18067 79.7145Q1.06496 79.498 0.960011 79.2761Q0.855062 79.0542 0.761128 78.8274Q0.667194 78.6007 0.584501 78.3696Q0.501807 78.1384 0.430553 77.9036Q0.3593 77.6687 0.299657 77.4306Q0.240015 77.1925 0.192128 76.9517Q0.144241 76.711 0.108224 76.4682Q0.0722074 76.2253 0.0481479 75.9811Q0.0240885 75.7368 0.0120442 75.4916Q0 75.2465 0 75.001L0 9.999Q0 9.75354 0.0120442 9.50837Q0.0240885 9.26321 0.0481479 9.01893Q0.0722074 8.77465 0.108224 8.53184Q0.144241 8.28904 0.192128 8.04829Q0.240015 7.80755 0.299657 7.56944Q0.3593 7.33134 0.430553 7.09644Q0.501807 6.86155 0.584501 6.63044Q0.667194 6.39932 0.761128 6.17255Q0.855062 5.94577 0.960011 5.72388Q1.06496 5.50198 1.18067 5.2855Q1.29638 5.06903 1.42257 4.85849Q1.54876 4.64795 1.68514 4.44385Q1.82151 4.23976 1.96773 4.0426Q2.11395 3.84545 2.26967 3.6557Q2.42539 3.46596 2.59023 3.28408Q2.75507 3.10221 2.92864 2.92864Q3.10221 2.75507 3.28408 2.59023Q3.46596 2.42539 3.6557 2.26967Q3.84545 2.11395 4.0426 1.96773Q4.23976 1.82151 4.44385 1.68514Q4.64795 1.54876 4.85849 1.42257Q5.06903 1.29638 5.2855 1.18067Q5.50198 1.06496 5.72388 0.960011Q5.94577 0.855062 6.17255 0.761128Q6.39932 0.667194 6.63044 0.584501Q6.86155 0.501807 7.09644 0.430553Q7.33134 0.3593 7.56944 0.299657Q7.80755 0.240015 8.04829 0.192128Q8.28904 0.144241 8.53184 0.108224Q8.77465 0.0722074 9.01893 0.0481479Q9.26321 0.0240885 9.50837 0.0120442Q9.75354 0 9.999 0Z" id="Rectangle-15" fill="#9C5D9A" stroke="none" />
    <g id="Приват24" fill="#FFFFFF" transform="translate(58 61)">
      <path d="M44.4902 6.00195Q44.4902 5.61523 44.3701 5.32813Q44.25 5.04102 44.042 4.85059Q43.834 4.66016 43.5527 4.56641Q43.2715 4.47266 42.9434 4.47266Q42.6621 4.47266 42.3926 4.54883Q42.123 4.625 41.8682 4.75977Q41.6133 4.89453 41.376 5.08203Q41.1387 5.26953 40.9336 5.49805L40.9336 4.4668Q41.3379 4.07422 41.8389 3.86621Q42.3398 3.6582 43.0605 3.6582Q43.5762 3.6582 44.0156 3.80762Q44.4551 3.95703 44.7773 4.24414Q45.0996 4.53125 45.2842 4.95313Q45.4688 5.375 45.4688 5.91992Q45.4688 6.41797 45.3545 6.82227Q45.2402 7.22656 45.0088 7.58398Q44.7773 7.94141 44.4258 8.26953Q44.0742 8.59766 43.5996 8.9375Q43.0078 9.35938 42.624 9.6582Q42.2402 9.95703 42.0146 10.2178Q41.7891 10.4785 41.6982 10.7393Q41.6074 11 41.6074 11.3398L45.791 11.3398L45.791 12.2012L40.6055 12.2012L40.6055 11.7852Q40.6055 11.2461 40.7227 10.8359Q40.8398 10.4258 41.1094 10.0566Q41.3789 9.6875 41.8154 9.31836Q42.252 8.94922 42.8848 8.48633Q43.3418 8.1582 43.6494 7.85938Q43.957 7.56055 44.1445 7.26172Q44.332 6.96289 44.4111 6.65527Q44.4902 6.34766 44.4902 6.00195ZM6.48047 12.2012L7.47656 12.2012L7.47656 3.79883L1.10156 3.79883L1.10156 12.2012L2.0918 12.2012L2.0918 4.71289L6.48047 4.71289L6.48047 12.2012ZM51.416 9.34766L51.416 3.79883L50.3906 3.79883Q50.0918 4.46094 49.6553 5.18457Q49.2188 5.9082 48.7061 6.63477Q48.1934 7.36133 47.6309 8.06738Q47.0684 8.77344 46.5176 9.39453L46.5176 10.2266L50.4668 10.2266L50.4668 12.2012L51.416 12.2012L51.416 10.2266L52.4941 10.2266L52.4941 9.34766L51.416 9.34766ZM50.4668 9.34766L47.6016 9.34766Q47.8887 8.99023 48.2109 8.5918Q48.5332 8.19336 48.8877 7.70117Q49.2422 7.20899 49.6348 6.60547Q50.0273 6.00195 50.4668 5.23438L50.4668 9.34766ZM10.4883 11.334L10.5117 11.334Q11.1445 12.3418 12.3105 12.3418Q13.582 12.3418 14.3145 11.4365Q15.0469 10.5313 15.0469 9.02539Q15.0469 7.67188 14.3965 6.86621Q13.7461 6.06055 12.5859 6.06055Q11.2207 6.06055 10.5117 7.25586L10.4883 7.25586L10.4883 6.20117L9.52734 6.20117L9.52734 14.9609L10.4883 14.9609L10.4883 11.334ZM34.207 12.2012L33.2461 12.2012L33.2461 11.2637L33.2227 11.2637Q32.5957 12.3418 31.377 12.3418Q30.4805 12.3418 29.9736 11.8672Q29.4668 11.3926 29.4668 10.6074Q29.4668 8.92578 31.4473 8.65039L33.2461 8.39844Q33.2461 6.86914 32.0098 6.86914Q30.9258 6.86914 30.0527 7.60742L30.0527 6.62305Q30.9375 6.06055 32.0918 6.06055Q34.207 6.06055 34.207 8.29883L34.207 12.2012ZM21.6094 12.2012L20.7422 12.2012L20.7422 7.41406Q20.6133 7.66602 20.3496 8.12305L17.5781 12.2012L16.582 12.2012L16.582 6.20117L17.4609 6.20117L17.4609 10.9297Q17.5313 10.7598 17.7656 10.3496L20.6133 6.20117L21.6094 6.20117L21.6094 12.2012ZM23.5547 6.20117L23.5547 12.2012L26.3379 12.2012Q27.1758 12.2012 27.7412 11.7031Q28.3066 11.2051 28.3066 10.4727Q28.3066 9.25977 26.9297 9.08398Q28.0781 8.83203 28.0781 7.66602Q28.0781 6.98633 27.5654 6.59375Q27.0527 6.20117 26.168 6.20117L23.5547 6.20117ZM37.9863 7.02148L39.7852 7.02148L39.7852 6.20117L35.2207 6.20117L35.2207 7.02148L37.0254 7.02148L37.0254 12.2012L37.9863 12.2012L37.9863 7.02148ZM10.4883 9.75195L10.4883 8.91406Q10.4883 8.03516 10.998 7.45215Q11.5078 6.86914 12.3457 6.86914Q13.1367 6.86914 13.5996 7.4375Q14.0625 8.00586 14.0625 9.00781Q14.0625 10.1973 13.5674 10.8652Q13.0723 11.5332 12.1992 11.5332Q11.4551 11.5332 10.9717 11.0146Q10.4883 10.4961 10.4883 9.75195ZM24.5156 8.70898L24.5156 7.02148L26.0742 7.02148Q27.1172 7.02148 27.1172 7.80664Q27.1172 8.70898 25.957 8.70898L24.5156 8.70898ZM33.2461 9.16602L31.7988 9.36523Q31.1309 9.45898 30.791 9.69629Q30.4512 9.93359 30.4512 10.5371Q30.4512 10.9766 30.7646 11.2549Q31.0781 11.5332 31.5996 11.5332Q32.3145 11.5332 32.7803 11.0322Q33.2461 10.5313 33.2461 9.76367L33.2461 9.16602ZM24.5156 11.3809L24.5156 9.5293L26.0391 9.5293Q27.3457 9.5293 27.3457 10.4375Q27.3457 11.3809 26.1797 11.3809L24.5156 11.3809Z" />
    </g>
    <g id="Приват24" fill="#FFFFFF" transform="translate(44 20)">
      <path d="M66.7354 9.00293Q66.7354 8.42285 66.5552 7.99219Q66.375 7.56152 66.063 7.27588Q65.751 6.99023 65.3291 6.84961Q64.9072 6.70898 64.415 6.70898Q63.9932 6.70898 63.5889 6.82324Q63.1846 6.9375 62.8022 7.13965Q62.4199 7.3418 62.064 7.62305Q61.708 7.9043 61.4004 8.24707L61.4004 6.7002Q62.0068 6.11133 62.7583 5.79932Q63.5098 5.4873 64.5908 5.4873Q65.3643 5.4873 66.0234 5.71143Q66.6826 5.93555 67.166 6.36621Q67.6494 6.79688 67.9263 7.42969Q68.2031 8.0625 68.2031 8.87988Q68.2031 9.62695 68.0317 10.2334Q67.8604 10.8398 67.5132 11.376Q67.166 11.9121 66.6387 12.4043Q66.1113 12.8965 65.3994 13.4063Q64.5117 14.0391 63.936 14.4873Q63.3604 14.9355 63.022 15.3267Q62.6836 15.7178 62.5474 16.1089Q62.4111 16.5 62.4111 17.0098L68.6865 17.0098L68.6865 18.3018L60.9082 18.3018L60.9082 17.6777Q60.9082 16.8691 61.084 16.2539Q61.2598 15.6387 61.6641 15.085Q62.0684 14.5313 62.7231 13.9775Q63.3779 13.4238 64.3271 12.7295Q65.0127 12.2373 65.4741 11.7891Q65.9355 11.3408 66.2168 10.8926Q66.498 10.4443 66.6167 9.98291Q66.7354 9.52149 66.7354 9.00293ZM9.7207 18.3018L11.2148 18.3018L11.2148 5.69824L1.65234 5.69824L1.65234 18.3018L3.1377 18.3018L3.1377 7.06934L9.7207 7.06934L9.7207 18.3018ZM77.124 14.0215L77.124 5.69824L75.5859 5.69824Q75.1377 6.69141 74.4829 7.77686Q73.8281 8.8623 73.0591 9.95215Q72.29 11.042 71.4463 12.1011Q70.6025 13.1602 69.7764 14.0918L69.7764 15.3398L75.7002 15.3398L75.7002 18.3018L77.124 18.3018L77.124 15.3398L78.7412 15.3398L78.7412 14.0215L77.124 14.0215ZM75.7002 14.0215L71.4023 14.0215Q71.833 13.4854 72.3164 12.8877Q72.7998 12.29 73.3315 11.5518Q73.8633 10.8135 74.4521 9.9082Q75.041 9.00293 75.7002 7.85156L75.7002 14.0215ZM15.7324 17.001L15.7676 17.001Q16.7168 18.5127 18.4658 18.5127Q20.373 18.5127 21.4717 17.1548Q22.5703 15.7969 22.5703 13.5381Q22.5703 11.5078 21.5947 10.2993Q20.6191 9.09082 18.8789 9.09082Q16.8311 9.09082 15.7676 10.8838L15.7324 10.8838L15.7324 9.30176L14.291 9.30176L14.291 22.4414L15.7324 22.4414L15.7324 17.001ZM51.3105 18.3018L49.8691 18.3018L49.8691 16.8955L49.834 16.8955Q48.8936 18.5127 47.0654 18.5127Q45.7207 18.5127 44.9604 17.8008Q44.2002 17.0889 44.2002 15.9111Q44.2002 13.3887 47.1709 12.9756L49.8691 12.5977Q49.8691 10.3037 48.0146 10.3037Q46.3887 10.3037 45.0791 11.4111L45.0791 9.93457Q46.4063 9.09082 48.1377 9.09082Q51.3105 9.09082 51.3105 12.4482L51.3105 18.3018ZM32.4141 18.3018L31.1133 18.3018L31.1133 11.1211Q30.9199 11.499 30.5244 12.1846L26.3672 18.3018L24.873 18.3018L24.873 9.30176L26.1914 9.30176L26.1914 16.3945Q26.2969 16.1396 26.6484 15.5244L30.9199 9.30176L32.4141 9.30176L32.4141 18.3018ZM35.332 9.30176L35.332 18.3018L39.5068 18.3018Q40.7637 18.3018 41.6118 17.5547Q42.46 16.8076 42.46 15.709Q42.46 13.8896 40.3945 13.626Q42.1172 13.248 42.1172 11.499Q42.1172 10.4795 41.3481 9.89063Q40.5791 9.30176 39.252 9.30176L35.332 9.30176ZM56.9795 10.5322L59.6777 10.5322L59.6777 9.30176L52.8311 9.30176L52.8311 10.5322L55.5381 10.5322L55.5381 18.3018L56.9795 18.3018L56.9795 10.5322ZM15.7324 14.6279L15.7324 13.3711Q15.7324 12.0527 16.4971 11.1782Q17.2617 10.3037 18.5186 10.3037Q19.7051 10.3037 20.3994 11.1563Q21.0938 12.0088 21.0938 13.5117Q21.0938 15.2959 20.3511 16.2979Q19.6084 17.2998 18.2988 17.2998Q17.1826 17.2998 16.4575 16.522Q15.7324 15.7441 15.7324 14.6279ZM36.7734 13.0635L36.7734 10.5322L39.1113 10.5322Q40.6758 10.5322 40.6758 11.71Q40.6758 13.0635 38.9355 13.0635L36.7734 13.0635ZM49.8691 13.749L47.6982 14.0479Q46.6963 14.1885 46.1865 14.5444Q45.6768 14.9004 45.6768 15.8057Q45.6768 16.4648 46.147 16.8823Q46.6172 17.2998 47.3994 17.2998Q48.4717 17.2998 49.1704 16.5483Q49.8691 15.7969 49.8691 14.6455L49.8691 13.749ZM36.7734 17.0713L36.7734 14.2939L39.0586 14.2939Q41.0186 14.2939 41.0186 15.6563Q41.0186 17.0713 39.2695 17.0713L36.7734 17.0713Z" />
    </g>
  </g>
</svg>