<?xml version="1.0" encoding="utf-8"?>
<svg width="170px" height="85px" viewBox="0 0 170 85" version="1.1" xmlns:xlink="http://www.w3.org/1999/xlink" xmlns="http://www.w3.org/2000/svg">
  <desc>Created with Lunacy</desc>
  <g id="Карта-Copy-4">
    <path d="M9.999 0L160.001 0Q160.246 0 160.492 0.0120442Q160.737 0.0240885 160.981 0.0481479Q161.225 0.0722074 161.468 0.108224Q161.711 0.144241 161.952 0.192128Q162.192 0.240015 162.431 0.299657Q162.669 0.3593 162.904 0.430553Q163.138 0.501807 163.37 0.584501Q163.601 0.667194 163.827 0.761128Q164.054 0.855062 164.276 0.960011Q164.498 1.06496 164.714 1.18067Q164.931 1.29638 165.142 1.42257Q165.352 1.54876 165.556 1.68514Q165.76 1.82151 165.957 1.96773Q166.155 2.11395 166.344 2.26967Q166.534 2.42539 166.716 2.59023Q166.898 2.75507 167.071 2.92864Q167.245 3.10221 167.41 3.28408Q167.575 3.46596 167.73 3.6557Q167.886 3.84545 168.032 4.0426Q168.178 4.23976 168.315 4.44385Q168.451 4.64795 168.577 4.85849Q168.704 5.06903 168.819 5.2855Q168.935 5.50198 169.04 5.72388Q169.145 5.94577 169.239 6.17255Q169.333 6.39932 169.415 6.63044Q169.498 6.86155 169.569 7.09644Q169.641 7.33134 169.7 7.56944Q169.76 7.80755 169.808 8.04829Q169.856 8.28904 169.892 8.53184Q169.928 8.77465 169.952 9.01893Q169.976 9.26321 169.988 9.50837Q170 9.75354 170 9.999L170 75.001Q170 75.2465 169.988 75.4916Q169.976 75.7368 169.952 75.9811Q169.928 76.2253 169.892 76.4682Q169.856 76.711 169.808 76.9517Q169.76 77.1925 169.7 77.4306Q169.641 77.6687 169.569 77.9035Q169.498 78.1384 169.415 78.3695Q169.333 78.6007 169.239 78.8274Q169.145 79.0542 169.04 79.2761Q168.935 79.498 168.819 79.7145Q168.704 79.931 168.577 80.1415Q168.451 80.3521 168.315 80.5561Q168.178 80.7602 168.032 80.9574Q167.886 81.1545 167.73 81.3443Q167.575 81.534 167.41 81.7159Q167.245 81.8978 167.071 82.0714Q166.898 82.2449 166.716 82.4098Q166.534 82.5746 166.344 82.7303Q166.155 82.8861 165.957 83.0323Q165.76 83.1785 165.556 83.3149Q165.352 83.4512 165.142 83.5774Q164.931 83.7036 164.714 83.8193Q164.498 83.935 164.276 84.04Q164.054 84.1449 163.827 84.2389Q163.601 84.3328 163.37 84.4155Q163.138 84.4982 162.904 84.5695Q162.669 84.6407 162.431 84.7003Q162.192 84.76 161.952 84.8079Q161.711 84.8558 161.468 84.8918Q161.225 84.9278 160.981 84.9519Q160.737 84.9759 160.492 84.988Q160.246 85 160.001 85L9.999 85Q9.75354 85 9.50837 84.988Q9.26321 84.9759 9.01893 84.9519Q8.77465 84.9278 8.53184 84.8918Q8.28904 84.8558 8.04829 84.8079Q7.80755 84.76 7.56944 84.7003Q7.33134 84.6407 7.09644 84.5695Q6.86155 84.4982 6.63044 84.4155Q6.39932 84.3328 6.17255 84.2389Q5.94577 84.1449 5.72388 84.04Q5.50198 83.935 5.2855 83.8193Q5.06903 83.7036 4.85849 83.5774Q4.64795 83.4512 4.44385 83.3149Q4.23976 83.1785 4.0426 83.0323Q3.84545 82.8861 3.6557 82.7303Q3.46596 82.5746 3.28408 82.4098Q3.10221 82.2449 2.92864 82.0714Q2.75507 81.8978 2.59023 81.7159Q2.42539 81.534 2.26967 81.3443Q2.11395 81.1545 1.96773 80.9574Q1.82151 80.7602 1.68514 80.5561Q1.54876 80.3521 1.42257 80.1415Q1.29638 79.931 1.18067 79.7145Q1.06496 79.498 0.960011 79.2761Q0.855062 79.0542 0.761128 78.8274Q0.667194 78.6007 0.584501 78.3696Q0.501807 78.1384 0.430553 77.9036Q0.3593 77.6687 0.299657 77.4306Q0.240015 77.1925 0.192128 76.9517Q0.144241 76.711 0.108224 76.4682Q0.0722074 76.2253 0.0481479 75.9811Q0.0240885 75.7368 0.0120442 75.4916Q0 75.2465 0 75.001L0 9.999Q0 9.75354 0.0120442 9.50837Q0.0240885 9.26321 0.0481479 9.01893Q0.0722074 8.77465 0.108224 8.53184Q0.144241 8.28904 0.192128 8.04829Q0.240015 7.80755 0.299657 7.56944Q0.3593 7.33134 0.430553 7.09644Q0.501807 6.86155 0.584501 6.63044Q0.667194 6.39932 0.761128 6.17255Q0.855062 5.94577 0.960011 5.72388Q1.06496 5.50198 1.18067 5.2855Q1.29638 5.06903 1.42257 4.85849Q1.54876 4.64795 1.68514 4.44385Q1.82151 4.23976 1.96773 4.0426Q2.11395 3.84545 2.26967 3.6557Q2.42539 3.46596 2.59023 3.28408Q2.75507 3.10221 2.92864 2.92864Q3.10221 2.75507 3.28408 2.59023Q3.46596 2.42539 3.6557 2.26967Q3.84545 2.11395 4.0426 1.96773Q4.23976 1.82151 4.44385 1.68514Q4.64795 1.54876 4.85849 1.42257Q5.06903 1.29638 5.2855 1.18067Q5.50198 1.06496 5.72388 0.960011Q5.94577 0.855062 6.17255 0.761128Q6.39932 0.667194 6.63044 0.584501Q6.86155 0.501807 7.09644 0.430553Q7.33134 0.3593 7.56944 0.299657Q7.80755 0.240015 8.04829 0.192128Q8.28904 0.144241 8.53184 0.108224Q8.77465 0.0722074 9.01893 0.0481479Q9.26321 0.0240885 9.50837 0.0120442Q9.75354 0 9.999 0Z" id="Rectangle-15" fill="#C5D5E6" stroke="none" />
    <g id="paypal-logo" transform="translate(70 20)">
      <path d="M19.3868 0L5.95227 0L0 27.3225L7.88318 27.3225L9.81409 18.2686L15.4463 18.2686C20.8336 18.2686 25.3391 14.9468 26.5469 9.29864C27.9119 2.90489 23.326 0 19.3868 0ZM10.9401 13.037L13.5092 13.037L14.7753 7.43011L18.6361 7.43011C18.8209 7.43011 18.9777 7.48091 19.1468 7.51023C18.8172 6.35182 17.8142 5.56295 16.4898 5.56295L12.6286 5.56295L10.9401 13.037ZM28.3227 5.94818C28.9353 7.32239 29.145 9.04875 28.693 11.1661C27.4855 16.8136 22.98 20.1355 17.593 20.1355L11.9608 20.1355L10.0302 29.1883L3.40705 29.1883L3.07977 30.6818L10.9636 30.6818L12.8942 21.629L18.526 21.629C23.9124 21.629 28.4185 18.3072 29.6264 12.6597C30.2618 9.68284 29.6005 7.47205 28.3227 5.94818ZM19.1448 9.29932C18.6747 11.3277 16.7472 12.9464 14.7845 13.0224L15.7088 8.92364L19.2089 8.92364C19.1877 9.04875 19.1792 9.16943 19.1448 9.29932Z" transform="translate(0.06443182 0)" id="PayPal" fill="#FFFFFF" fill-rule="evenodd" stroke="none" />
    </g>
    <g id="PayPal" fill="#FFFFFF" transform="translate(66 61)">
      <path d="M32.4316 12.2012L33.3926 12.2012L33.3926 3.31836L32.4316 3.31836L32.4316 12.2012ZM2.08594 12.2012L2.08594 9.02539L3.19336 9.02539Q4.59375 9.02539 5.41699 8.26367Q6.24023 7.50195 6.24023 6.30664Q6.24023 5.11133 5.49902 4.45508Q4.75781 3.79883 3.41016 3.79883L1.10156 3.79883L1.10156 12.2012L2.08594 12.2012ZM20.7188 12.2012L20.7188 9.02539L21.8262 9.02539Q23.2266 9.02539 24.0498 8.26367Q24.873 7.50195 24.873 6.30664Q24.873 5.11133 24.1318 4.45508Q23.3906 3.79883 22.043 3.79883L19.7344 3.79883L19.7344 12.2012L20.7188 12.2012ZM2.08594 8.13477L2.08594 4.68945L3.24023 4.68945Q5.20898 4.68945 5.20898 6.35352Q5.20898 7.20313 4.67285 7.66895Q4.13672 8.13477 3.11719 8.13477L2.08594 8.13477ZM20.7188 8.13477L20.7188 4.68945L21.873 4.68945Q23.8418 4.68945 23.8418 6.35352Q23.8418 7.20313 23.3057 7.66895Q22.7695 8.13477 21.75 8.13477L20.7188 8.13477ZM11.0273 12.2012L11.9883 12.2012L11.9883 8.29883Q11.9883 6.06055 9.87305 6.06055Q8.71875 6.06055 7.83398 6.62305L7.83398 7.60742Q8.70703 6.86914 9.79102 6.86914Q11.0273 6.86914 11.0273 8.39844L9.22852 8.65039Q7.24805 8.92578 7.24805 10.6074Q7.24805 11.3926 7.75488 11.8672Q8.26172 12.3418 9.1582 12.3418Q10.377 12.3418 11.0039 11.2637L11.0273 11.2637L11.0273 12.2012ZM30.6211 12.2012L29.6602 12.2012L29.6602 11.2637L29.6367 11.2637Q29.0098 12.3418 27.791 12.3418Q26.8945 12.3418 26.3877 11.8672Q25.8809 11.3926 25.8809 10.6074Q25.8809 8.92578 27.8613 8.65039L29.6602 8.39844Q29.6602 6.86914 28.4238 6.86914Q27.3398 6.86914 26.4668 7.60742L26.4668 6.62305Q27.3516 6.06055 28.5059 6.06055Q30.6211 6.06055 30.6211 8.29883L30.6211 12.2012ZM18.5742 6.20117L15.8145 13.1621Q15.0762 15.0254 13.7402 15.0254Q13.3652 15.0254 13.1133 14.9492L13.1133 14.0879Q13.4238 14.1934 13.6816 14.1934Q14.4082 14.1934 14.7715 13.3262L15.252 12.1895L12.9082 6.20117L13.9746 6.20117L15.5977 10.8184Q15.627 10.9063 15.7207 11.2754L15.7559 11.2754Q15.7852 11.1348 15.873 10.8301L17.5781 6.20117L18.5742 6.20117ZM9.58008 9.36523L11.0273 9.16602L11.0273 9.76367Q11.0273 10.5313 10.5615 11.0322Q10.0957 11.5332 9.38086 11.5332Q8.85938 11.5332 8.5459 11.2549Q8.23242 10.9766 8.23242 10.5371Q8.23242 9.93359 8.57227 9.69629Q8.91211 9.45898 9.58008 9.36523ZM29.6602 9.16602L28.2129 9.36523Q27.5449 9.45898 27.2051 9.69629Q26.8652 9.93359 26.8652 10.5371Q26.8652 10.9766 27.1787 11.2549Q27.4922 11.5332 28.0137 11.5332Q28.7285 11.5332 29.1943 11.0322Q29.6602 10.5313 29.6602 9.76367L29.6602 9.16602Z" />
    </g>
  </g>
</svg>