<?xml version="1.0" encoding="utf-8"?>
<svg width="375px" height="188px" viewBox="0 0 375 188" version="1.1" xmlns:xlink="http://www.w3.org/1999/xlink" xmlns="http://www.w3.org/2000/svg">
  <desc>Created with Lunacy</desc>
  <g id="КАРТА">
    <g id="Group-2">
      <path d="M14.999 0L360.001 0Q360.369 0 360.737 0.018067Q361.105 0.0361339 361.471 0.0722243Q361.838 0.108315 362.202 0.162342Q362.566 0.216368 362.927 0.288202Q363.288 0.360035 363.645 0.449501Q364.003 0.538968 364.355 0.645852Q364.707 0.752736 365.054 0.87678Q365.401 1.00082 365.741 1.14173Q366.081 1.28264 366.414 1.44006Q366.747 1.59749 367.071 1.77106Q367.396 1.94463 367.712 2.13393Q368.028 2.32322 368.334 2.52779Q368.64 2.73235 368.936 2.95169Q369.232 3.17103 369.516 3.40462Q369.801 3.6382 370.074 3.88547Q370.346 4.13275 370.607 4.39311Q370.867 4.65347 371.115 4.92629Q371.362 5.19911 371.595 5.48374Q371.829 5.76836 372.048 6.06411Q372.268 6.35985 372.472 6.666Q372.677 6.97215 372.866 7.28797Q373.055 7.60379 373.229 7.92852Q373.402 8.25325 373.56 8.5861Q373.717 8.91895 373.858 9.25913Q373.999 9.59931 374.123 9.94599Q374.247 10.2927 374.354 10.645Q374.461 10.9974 374.55 11.3545Q374.64 11.7117 374.712 12.0728Q374.784 12.434 374.838 12.7982Q374.892 13.1624 374.928 13.5288Q374.964 13.8953 374.982 14.263Q375 14.6308 375 14.999L375 173.001Q375 173.369 374.982 173.737Q374.964 174.105 374.928 174.471Q374.892 174.838 374.838 175.202Q374.784 175.566 374.712 175.927Q374.64 176.288 374.55 176.645Q374.461 177.003 374.354 177.355Q374.247 177.707 374.123 178.054Q373.999 178.401 373.858 178.741Q373.717 179.081 373.56 179.414Q373.402 179.747 373.229 180.071Q373.055 180.396 372.866 180.712Q372.677 181.028 372.472 181.334Q372.268 181.64 372.048 181.936Q371.829 182.232 371.595 182.516Q371.362 182.801 371.115 183.074Q370.867 183.347 370.607 183.607Q370.346 183.867 370.074 184.115Q369.801 184.362 369.516 184.595Q369.232 184.829 368.936 185.048Q368.64 185.268 368.334 185.472Q368.028 185.677 367.712 185.866Q367.396 186.055 367.071 186.229Q366.747 186.402 366.414 186.56Q366.081 186.717 365.741 186.858Q365.401 186.999 365.054 187.123Q364.707 187.247 364.355 187.354Q364.003 187.461 363.645 187.55Q363.288 187.64 362.927 187.712Q362.566 187.784 362.202 187.838Q361.838 187.892 361.471 187.928Q361.105 187.964 360.737 187.982Q360.369 188 360.001 188L14.999 188Q14.6308 188 14.263 187.982Q13.8953 187.964 13.5288 187.928Q13.1624 187.892 12.7982 187.838Q12.434 187.784 12.0728 187.712Q11.7117 187.64 11.3545 187.55Q10.9974 187.461 10.645 187.354Q10.2927 187.247 9.94599 187.123Q9.59931 186.999 9.25913 186.858Q8.91895 186.717 8.5861 186.56Q8.25325 186.402 7.92852 186.229Q7.60379 186.055 7.28797 185.866Q6.97215 185.677 6.666 185.472Q6.35985 185.268 6.06411 185.048Q5.76836 184.829 5.48374 184.595Q5.19911 184.362 4.92629 184.115Q4.65347 183.867 4.39311 183.607Q4.13275 183.347 3.88547 183.074Q3.6382 182.801 3.40462 182.516Q3.17103 182.232 2.95169 181.936Q2.73235 181.64 2.52779 181.334Q2.32322 181.028 2.13393 180.712Q1.94463 180.396 1.77106 180.071Q1.59749 179.747 1.44006 179.414Q1.28264 179.081 1.14173 178.741Q1.00082 178.401 0.87678 178.054Q0.752736 177.707 0.645852 177.355Q0.538968 177.003 0.449501 176.645Q0.360035 176.288 0.288202 175.927Q0.216368 175.566 0.162341 175.202Q0.108315 174.838 0.0722243 174.471Q0.0361339 174.105 0.018067 173.737Q0 173.369 0 173.001L0 14.999Q0 14.6308 0.0180669 14.263Q0.0361339 13.8953 0.0722243 13.5288Q0.108315 13.1624 0.162341 12.7982Q0.216368 12.434 0.288202 12.0728Q0.360035 11.7117 0.449501 11.3545Q0.538968 10.9974 0.645852 10.645Q0.752736 10.2927 0.87678 9.94599Q1.00082 9.59931 1.14173 9.25913Q1.28264 8.91895 1.44006 8.5861Q1.59749 8.25325 1.77106 7.92852Q1.94463 7.60379 2.13393 7.28797Q2.32322 6.97215 2.52779 6.666Q2.73235 6.35985 2.95169 6.06411Q3.17103 5.76836 3.40462 5.48373Q3.6382 5.19911 3.88547 4.92629Q4.13274 4.65346 4.39311 4.39311Q4.65346 4.13274 4.92629 3.88547Q5.19911 3.6382 5.48373 3.40462Q5.76836 3.17103 6.06411 2.95169Q6.35985 2.73235 6.666 2.52779Q6.97215 2.32322 7.28797 2.13393Q7.60379 1.94463 7.92852 1.77106Q8.25325 1.59749 8.5861 1.44006Q8.91895 1.28264 9.25913 1.14173Q9.59931 1.00082 9.94599 0.87678Q10.2927 0.752736 10.645 0.645852Q10.9974 0.538968 11.3545 0.449501Q11.7117 0.360035 12.0728 0.288202Q12.434 0.216368 12.7982 0.162341Q13.1624 0.108315 13.5288 0.0722243Q13.8953 0.0361339 14.263 0.0180669Q14.6308 0 14.999 0L14.999 0Z" id="Rectangle-15" fill="#C5D5E6" stroke="none" />
      <g id="Номер-карти" fill="#FFFFFF" transform="translate(26 20)">
        <path d="M7.50586 14.4014L8.6543 14.4014L8.6543 4.59863L7.50586 4.59863L7.50586 8.89844L2.43359 8.89844L2.43359 4.59863L1.28516 4.59863L1.28516 14.4014L2.43359 14.4014L2.43359 9.93066L7.50586 9.93066L7.50586 14.4014ZM11.522 13.5845Q12.4482 14.5654 14 14.5654Q15.5928 14.5654 16.5396 13.5571Q17.4863 12.5488 17.4863 10.874Q17.4863 9.16504 16.6079 8.20117Q15.7295 7.2373 14.1641 7.2373Q12.5234 7.2373 11.5596 8.22852Q10.5957 9.21973 10.5957 10.9834Q10.5957 12.6035 11.522 13.5845ZM29.791 11.1816L34.7334 11.1816L34.7334 10.5938Q34.7334 9.01465 33.9814 8.12598Q33.2295 7.2373 31.8555 7.2373Q30.4814 7.2373 29.5552 8.26611Q28.6289 9.29492 28.6289 10.9287Q28.6289 12.6582 29.4766 13.6118Q30.3242 14.5654 31.8076 14.5654Q33.3252 14.5654 34.248 13.8955L34.248 12.8428Q33.2568 13.6221 32.0742 13.6221Q31.0215 13.6221 30.4199 12.9863Q29.8184 12.3506 29.791 11.1816ZM37.5771 13.3896L37.5498 13.3896L37.5498 17.6211L36.4287 17.6211L36.4287 7.40137L37.5498 7.40137L37.5498 8.63184L37.5771 8.63184Q38.4043 7.2373 39.9971 7.2373Q41.3506 7.2373 42.1094 8.17725Q42.8682 9.11719 42.8682 10.6963Q42.8682 12.4531 42.0137 13.5093Q41.1592 14.5654 39.6758 14.5654Q38.3154 14.5654 37.5771 13.3896ZM60.4639 14.4014L59.3428 14.4014L59.3428 13.3076L59.3154 13.3076Q58.584 14.5654 57.1621 14.5654Q56.1162 14.5654 55.5249 14.0117Q54.9336 13.458 54.9336 12.542Q54.9336 10.5801 57.2441 10.2588L59.3428 9.96484Q59.3428 8.18066 57.9004 8.18066Q56.6357 8.18066 55.6172 9.04199L55.6172 7.89355Q56.6494 7.2373 57.9961 7.2373Q60.4639 7.2373 60.4639 9.84863L60.4639 14.4014ZM63.6973 13.3896L63.7246 13.3896Q64.4629 14.5654 65.8232 14.5654Q67.3066 14.5654 68.1611 13.5093Q69.0156 12.4531 69.0156 10.6963Q69.0156 9.11719 68.2568 8.17725Q67.498 7.2373 66.1445 7.2373Q64.5518 7.2373 63.7246 8.63184L63.6973 8.63184L63.6973 7.40137L62.5762 7.40137L62.5762 17.6211L63.6973 17.6211L63.6973 13.3896ZM26.8379 14.4014L25.7305 14.4014L25.7305 8.63184Q25.5801 9.06934 25.2656 9.91699L23.5156 14.4014L22.5107 14.4014L20.7061 9.91699Q20.5625 9.55469 20.2412 8.63184L20.2412 14.4014L19.2773 14.4014L19.2773 7.40137L20.7061 7.40137L22.5518 11.9678Q22.75 12.4668 23.0576 13.3486L23.5566 11.9951L25.3477 7.40137L26.8379 7.40137L26.8379 14.4014ZM52.7324 14.4014L54.3047 14.4014L50.8047 10.7783L54.0518 7.40137L52.582 7.40137L49.6426 10.6074L49.6152 10.6074L49.6152 7.40137L48.4941 7.40137L48.4941 14.4014L49.6152 14.4014L49.6152 11.0381L49.6426 11.0381L52.7324 14.4014ZM75.2021 8.3584L73.1035 8.3584L73.1035 14.4014L71.9824 14.4014L71.9824 8.3584L69.877 8.3584L69.877 7.40137L75.2021 7.40137L75.2021 8.3584ZM81.4023 14.4014L82.4141 14.4014L82.4141 7.40137L81.252 7.40137L77.9297 12.2412Q77.6563 12.7197 77.5742 12.918L77.5742 7.40137L76.5488 7.40137L76.5488 14.4014L77.7109 14.4014L80.9443 9.64355Q81.252 9.11035 81.4023 8.81641L81.4023 14.4014ZM12.373 8.91553Q13.002 8.18066 14.082 8.18066Q15.1689 8.18066 15.7534 8.8916Q16.3379 9.60254 16.3379 10.915Q16.3379 12.2139 15.7534 12.918Q15.1689 13.6221 14.082 13.6221Q13.0156 13.6221 12.3799 12.9043Q11.7441 12.1865 11.7441 10.9424Q11.7441 9.65039 12.373 8.91553ZM33.1167 8.7207Q33.5781 9.26074 33.585 10.2314L29.8047 10.2314Q29.9346 9.31543 30.4883 8.74805Q31.042 8.18066 31.835 8.18066Q32.6553 8.18066 33.1167 8.7207ZM37.5498 10.5664L37.5498 11.5439Q37.5498 12.4121 38.1138 13.0171Q38.6777 13.6221 39.5459 13.6221Q40.5645 13.6221 41.1421 12.8428Q41.7197 12.0635 41.7197 10.6758Q41.7197 9.50684 41.1797 8.84375Q40.6396 8.18066 39.7168 8.18066Q38.7393 8.18066 38.1445 8.86084Q37.5498 9.54102 37.5498 10.5664ZM63.6973 11.5439L63.6973 10.5664Q63.6973 9.54102 64.292 8.86084Q64.8867 8.18066 65.8643 8.18066Q66.7871 8.18066 67.3271 8.84375Q67.8672 9.50684 67.8672 10.6758Q67.8672 12.0635 67.2896 12.8428Q66.7119 13.6221 65.6934 13.6221Q64.8252 13.6221 64.2612 13.0171Q63.6973 12.4121 63.6973 11.5439ZM59.3428 10.8604L57.6543 11.0928Q56.875 11.2021 56.4785 11.479Q56.082 11.7559 56.082 12.46Q56.082 12.9727 56.4478 13.2974Q56.8135 13.6221 57.4219 13.6221Q58.2559 13.6221 58.7993 13.0376Q59.3428 12.4531 59.3428 11.5576L59.3428 10.8604Z" />
      </g>
      <g id="Термін-дії" fill="#FFFFFF" transform="translate(26 109)">
        <path d="M33.9131 5.41895Q34.125 5.62402 34.4258 5.62402Q34.7334 5.62402 34.9487 5.41211Q35.1641 5.2002 35.1641 4.89941Q35.1641 4.58496 34.9487 4.37646Q34.7334 4.16797 34.4258 4.16797Q34.125 4.16797 33.9131 4.37646Q33.7012 4.58496 33.7012 4.89941Q33.7012 5.21387 33.9131 5.41895ZM57.3877 5.62402Q57.0869 5.62402 56.875 5.41895Q56.6631 5.21387 56.6631 4.89941Q56.6631 4.58496 56.875 4.37646Q57.0869 4.16797 57.3877 4.16797Q57.6953 4.16797 57.9106 4.37646Q58.126 4.58496 58.126 4.89941Q58.126 5.2002 57.9106 5.41211Q57.6953 5.62402 57.3877 5.62402ZM7.08203 5.6377L4.25195 5.6377L4.25195 14.4014L3.10352 14.4014L3.10352 5.6377L0.280273 5.6377L0.280273 4.59863L7.08203 4.59863L7.08203 5.6377ZM58.9634 5.87354Q59.165 6.0752 59.4521 6.0752Q59.7256 6.0752 59.9238 5.87695Q60.1221 5.67871 60.1221 5.39844Q60.1221 5.11816 59.917 4.92334Q59.7119 4.72852 59.4316 4.72852Q59.1514 4.72852 58.9565 4.91992Q58.7617 5.11133 58.7617 5.39844Q58.7617 5.67188 58.9634 5.87354ZM61.6055 5.88379Q61.8037 6.0752 62.0771 6.0752Q62.3643 6.0752 62.5557 5.87695Q62.7471 5.67871 62.7471 5.39844Q62.7471 5.11816 62.5488 4.92334Q62.3506 4.72852 62.0635 4.72852Q61.79 4.72852 61.5986 4.91992Q61.4072 5.11133 61.4072 5.39844Q61.4072 5.69238 61.6055 5.88379ZM14.0957 11.1816L9.15332 11.1816Q9.18066 12.3506 9.78223 12.9863Q10.3838 13.6221 11.4365 13.6221Q12.6191 13.6221 13.6104 12.8428L13.6104 13.8955Q12.6875 14.5654 11.1699 14.5654Q9.68652 14.5654 8.83887 13.6118Q7.99121 12.6582 7.99121 10.9287Q7.99121 9.29492 8.91748 8.26611Q9.84375 7.2373 11.2178 7.2373Q12.5918 7.2373 13.3438 8.12598Q14.0957 9.01465 14.0957 10.5938L14.0957 11.1816ZM16.9121 13.3896L16.9395 13.3896Q17.6777 14.5654 19.0381 14.5654Q20.5215 14.5654 21.376 13.5093Q22.2305 12.4531 22.2305 10.6963Q22.2305 9.11719 21.4717 8.17725Q20.7129 7.2373 19.3594 7.2373Q17.7666 7.2373 16.9395 8.63184L16.9121 8.63184L16.9121 7.40137L15.791 7.40137L15.791 17.6211L16.9121 17.6211L16.9121 13.3896ZM31.582 14.4014L30.4746 14.4014L30.4746 8.63184Q30.3242 9.06934 30.0098 9.91699L28.2598 14.4014L27.2549 14.4014L25.4502 9.91699Q25.3066 9.55469 24.9854 8.63184L24.9854 14.4014L24.0215 14.4014L24.0215 7.40137L25.4502 7.40137L27.2959 11.9678Q27.4941 12.4668 27.8018 13.3486L28.3008 11.9951L30.0918 7.40137L31.582 7.40137L31.582 14.4014ZM33.8516 14.4014L34.9727 14.4014L34.9727 7.40137L33.8516 7.40137L33.8516 14.4014ZM43.0527 14.4014L41.9316 14.4014L41.9316 11.2227L38.3633 11.2227L38.3633 14.4014L37.2422 14.4014L37.2422 7.40137L38.3633 7.40137L38.3633 10.2725L41.9316 10.2725L41.9316 7.40137L43.0527 7.40137L43.0527 14.4014ZM54.3115 16.9512L55.2617 16.9512L55.2617 13.4512L54.2227 13.4512L54.2227 7.40137L50.5859 7.40137Q50.5586 10.8672 48.7676 13.4512L48.1455 13.4512L48.1455 16.9512L49.1025 16.9512L49.1025 14.4014L54.3115 14.4014L54.3115 16.9512ZM57.9346 14.4014L56.8135 14.4014L56.8135 7.40137L57.9346 7.40137L57.9346 14.4014ZM60.2041 14.4014L61.3252 14.4014L61.3252 7.40137L60.2041 7.40137L60.2041 14.4014ZM12.9473 10.2314Q12.9404 9.26074 12.479 8.7207Q12.0176 8.18066 11.1973 8.18066Q10.4043 8.18066 9.85059 8.74805Q9.29688 9.31543 9.16699 10.2314L12.9473 10.2314ZM16.9121 11.5439L16.9121 10.5664Q16.9121 9.54102 17.5068 8.86084Q18.1016 8.18066 19.0791 8.18066Q20.002 8.18066 20.542 8.84375Q21.082 9.50684 21.082 10.6758Q21.082 12.0635 20.5044 12.8428Q19.9268 13.6221 18.9082 13.6221Q18.04 13.6221 17.4761 13.0171Q16.9121 12.4121 16.9121 11.5439ZM53.1016 8.35156L53.1016 13.4512L49.957 13.4512Q51.3652 11.1816 51.5498 8.35156L53.1016 8.35156Z" />
      </g>
      <g id="CVC/CVV" fill="#FFFFFF" transform="translate(221 109)">
        <path d="M7.95703 13.9912Q6.87012 14.5654 5.25 14.5654Q3.1582 14.5654 1.90039 13.2188Q0.642578 11.8721 0.642578 9.68457Q0.642578 7.33301 2.05762 5.88379Q3.47266 4.43457 5.64648 4.43457Q7.04102 4.43457 7.95703 4.83789L7.95703 6.06152Q6.9043 5.47363 5.63281 5.47363Q3.94434 5.47363 2.89502 6.60156Q1.8457 7.72949 1.8457 9.61621Q1.8457 11.4072 2.82666 12.4702Q3.80762 13.5332 5.40039 13.5332Q6.87695 13.5332 7.95703 12.877L7.95703 13.9912ZM22.6133 14.5654Q24.2334 14.5654 25.3203 13.9912L25.3203 12.877Q24.2402 13.5332 22.7637 13.5332Q21.1709 13.5332 20.1899 12.4702Q19.209 11.4072 19.209 9.61621Q19.209 7.72949 20.2583 6.60156Q21.3076 5.47363 22.9961 5.47363Q24.2676 5.47363 25.3203 6.06152L25.3203 4.83789Q24.4043 4.43457 23.0098 4.43457Q20.8359 4.43457 19.4209 5.88379Q18.0059 7.33301 18.0059 9.68457Q18.0059 11.8721 19.2637 13.2188Q20.5215 14.5654 22.6133 14.5654ZM36.7363 14.5654Q38.3564 14.5654 39.4434 13.9912L39.4434 12.877Q38.3633 13.5332 36.8867 13.5332Q35.2939 13.5332 34.313 12.4702Q33.332 11.4072 33.332 9.61621Q33.332 7.72949 34.3813 6.60156Q35.4307 5.47363 37.1191 5.47363Q38.3906 5.47363 39.4434 6.06152L39.4434 4.83789Q38.5273 4.43457 37.1328 4.43457Q34.959 4.43457 33.5439 5.88379Q32.1289 7.33301 32.1289 9.68457Q32.1289 11.8721 33.3867 13.2188Q34.6445 14.5654 36.7363 14.5654ZM17.2402 4.59863L13.6104 14.4014L12.3457 14.4014L8.79102 4.59863L10.0693 4.59863L12.7832 12.3711Q12.9131 12.7471 12.9814 13.2393L13.0088 13.2393Q13.0635 12.8291 13.2344 12.3574L16.0029 4.59863L17.2402 4.59863ZM31.5889 4.59863L26.8857 16.0283L25.8398 16.0283L30.5293 4.59863L31.5889 4.59863ZM48.7266 4.59863L45.0967 14.4014L43.832 14.4014L40.2773 4.59863L41.5557 4.59863L44.2695 12.3711Q44.3994 12.7471 44.4678 13.2393L44.4951 13.2393Q44.5498 12.8291 44.7207 12.3574L47.4893 4.59863L48.7266 4.59863ZM53.792 14.4014L57.4219 4.59863L56.1846 4.59863L53.416 12.3574Q53.2451 12.8291 53.1904 13.2393L53.1631 13.2393Q53.0947 12.7471 52.9648 12.3711L50.251 4.59863L48.9727 4.59863L52.5273 14.4014L53.792 14.4014Z" />
      </g>
    </g>
    <g id="Group-3" transform="translate(25 39)">
      <path d="M4.999 0L69.001 0Q69.1237 0 69.2463 0.00602151Q69.3689 0.012043 69.491 0.0240715Q69.6131 0.0361001 69.7345 0.0541066Q69.8559 0.0721132 69.9762 0.0960544Q70.0966 0.119996 70.2157 0.149814Q70.3347 0.179632 70.4521 0.215255Q70.5696 0.250879 70.6851 0.292221Q70.8007 0.333564 70.914 0.380526Q71.0274 0.427489 71.1383 0.479957Q71.2493 0.532426 71.3575 0.590276Q71.4657 0.648125 71.571 0.711215Q71.6763 0.774305 71.7783 0.842483Q71.8803 0.910662 71.9789 0.983765Q72.0775 1.05687 72.1723 1.13472Q72.2672 1.21257 72.3581 1.29499Q72.449 1.3774 72.5358 1.46417Q72.6226 1.55095 72.705 1.64188Q72.7874 1.73281 72.8653 1.82767Q72.9431 1.92253 73.0162 2.0211Q73.0893 2.11967 73.1575 2.2217Q73.2257 2.32374 73.2888 2.429Q73.3519 2.53426 73.4097 2.64249Q73.4676 2.75072 73.52 2.86165Q73.5725 2.97259 73.6195 3.08597Q73.6664 3.19934 73.7078 3.31489Q73.7491 3.43043 73.7847 3.54787Q73.8204 3.6653 73.8502 3.78434Q73.88 3.90338 73.9039 4.02374Q73.9279 4.1441 73.9459 4.26549Q73.9639 4.38688 73.9759 4.50901Q73.9879 4.63114 73.994 4.75371Q74 4.87628 74 4.999L74 35.001Q74 35.1237 73.994 35.2463Q73.9879 35.3689 73.9759 35.491Q73.9639 35.6131 73.9459 35.7345Q73.9279 35.8559 73.9039 35.9762Q73.88 36.0966 73.8502 36.2157Q73.8204 36.3347 73.7847 36.4521Q73.7491 36.5696 73.7078 36.6851Q73.6664 36.8007 73.6195 36.914Q73.5725 37.0274 73.52 37.1383Q73.4676 37.2493 73.4097 37.3575Q73.3519 37.4657 73.2888 37.571Q73.2257 37.6763 73.1575 37.7783Q73.0893 37.8803 73.0162 37.9789Q72.9431 38.0775 72.8653 38.1723Q72.7874 38.2672 72.705 38.3581Q72.6226 38.4491 72.5358 38.5358Q72.449 38.6226 72.3581 38.705Q72.2672 38.7874 72.1723 38.8653Q72.0775 38.9431 71.9789 39.0162Q71.8803 39.0893 71.7783 39.1575Q71.6763 39.2257 71.571 39.2888Q71.4657 39.3519 71.3575 39.4097Q71.2493 39.4676 71.1383 39.52Q71.0274 39.5725 70.914 39.6195Q70.8007 39.6664 70.6851 39.7078Q70.5696 39.7491 70.4521 39.7847Q70.3347 39.8204 70.2157 39.8502Q70.0966 39.88 69.9762 39.9039Q69.8559 39.9279 69.7345 39.9459Q69.6131 39.9639 69.491 39.9759Q69.3689 39.988 69.2463 39.994Q69.1237 40 69.001 40L4.999 40Q4.87628 40 4.75371 39.994Q4.63114 39.988 4.50901 39.9759Q4.38688 39.9639 4.26549 39.9459Q4.1441 39.9279 4.02374 39.9039Q3.90338 39.88 3.78434 39.8502Q3.6653 39.8204 3.54787 39.7847Q3.43043 39.7491 3.31489 39.7078Q3.19934 39.6664 3.08597 39.6195Q2.97259 39.5725 2.86165 39.52Q2.75072 39.4676 2.64249 39.4097Q2.53426 39.3519 2.429 39.2888Q2.32374 39.2257 2.2217 39.1575Q2.11967 39.0893 2.0211 39.0162Q1.92253 38.9431 1.82767 38.8653Q1.73281 38.7874 1.64188 38.705Q1.55095 38.6226 1.46417 38.5358Q1.3774 38.4491 1.29499 38.3581Q1.21257 38.2672 1.13472 38.1723Q1.05687 38.0775 0.983765 37.9789Q0.910662 37.8803 0.842483 37.7783Q0.774305 37.6763 0.711215 37.571Q0.648125 37.4657 0.590276 37.3575Q0.532426 37.2493 0.479957 37.1383Q0.427489 37.0274 0.380526 36.914Q0.333564 36.8007 0.292221 36.6851Q0.250879 36.5696 0.215255 36.4521Q0.179632 36.3347 0.149814 36.2156Q0.119996 36.0966 0.0960544 35.9762Q0.0721132 35.8559 0.0541066 35.7345Q0.0361001 35.6131 0.0240715 35.491Q0.012043 35.3689 0.00602151 35.2463Q0 35.1237 0 35.001L0 4.999Q0 4.87628 0.00602151 4.75371Q0.012043 4.63114 0.0240715 4.50901Q0.0361001 4.38688 0.0541066 4.26549Q0.0721132 4.1441 0.0960544 4.02374Q0.119996 3.90338 0.149814 3.78434Q0.179632 3.6653 0.215255 3.54787Q0.250879 3.43043 0.292221 3.31489Q0.333564 3.19934 0.380526 3.08597Q0.427489 2.97259 0.479957 2.86165Q0.532426 2.75072 0.590276 2.64249Q0.648125 2.53426 0.711215 2.429Q0.774305 2.32374 0.842483 2.2217Q0.910662 2.11967 0.983765 2.0211Q1.05687 1.92253 1.13472 1.82767Q1.21257 1.73281 1.29499 1.64188Q1.3774 1.55095 1.46417 1.46417Q1.55095 1.3774 1.64188 1.29499Q1.73281 1.21257 1.82767 1.13472Q1.92253 1.05687 2.0211 0.983765Q2.11967 0.910662 2.2217 0.842483Q2.32374 0.774305 2.429 0.711215Q2.53426 0.648125 2.64249 0.590276Q2.75072 0.532426 2.86165 0.479957Q2.97259 0.427489 3.08597 0.380526Q3.19934 0.333564 3.31489 0.292221Q3.43043 0.250879 3.54787 0.215255Q3.6653 0.179632 3.78434 0.149814Q3.90338 0.119996 4.02374 0.0960544Q4.1441 0.0721132 4.26549 0.0541066Q4.38688 0.0361001 4.50901 0.0240715Q4.63114 0.012043 4.75371 0.00602151Q4.87628 0 4.999 0Z" id="Rectangle-16" fill="#F3F7FA" stroke="none" />
      <path d="M4.999 0L69.001 0Q69.1237 0 69.2463 0.00602151Q69.3689 0.012043 69.491 0.0240715Q69.6131 0.0361001 69.7345 0.0541066Q69.8559 0.0721132 69.9762 0.0960544Q70.0966 0.119996 70.2157 0.149814Q70.3347 0.179632 70.4521 0.215255Q70.5696 0.250879 70.6851 0.292221Q70.8007 0.333564 70.914 0.380526Q71.0274 0.427489 71.1383 0.479957Q71.2493 0.532426 71.3575 0.590276Q71.4657 0.648125 71.571 0.711215Q71.6763 0.774305 71.7783 0.842483Q71.8803 0.910662 71.9789 0.983765Q72.0775 1.05687 72.1723 1.13472Q72.2672 1.21257 72.3581 1.29499Q72.449 1.3774 72.5358 1.46417Q72.6226 1.55095 72.705 1.64188Q72.7874 1.73281 72.8653 1.82767Q72.9431 1.92253 73.0162 2.0211Q73.0893 2.11967 73.1575 2.2217Q73.2257 2.32374 73.2888 2.429Q73.3519 2.53426 73.4097 2.64249Q73.4676 2.75072 73.52 2.86165Q73.5725 2.97259 73.6195 3.08597Q73.6664 3.19934 73.7078 3.31489Q73.7491 3.43043 73.7847 3.54787Q73.8204 3.6653 73.8502 3.78434Q73.88 3.90338 73.9039 4.02374Q73.9279 4.1441 73.9459 4.26549Q73.9639 4.38688 73.9759 4.50901Q73.9879 4.63114 73.994 4.75371Q74 4.87628 74 4.999L74 35.001Q74 35.1237 73.994 35.2463Q73.9879 35.3689 73.9759 35.491Q73.9639 35.6131 73.9459 35.7345Q73.9279 35.8559 73.9039 35.9762Q73.88 36.0966 73.8502 36.2157Q73.8204 36.3347 73.7847 36.4521Q73.7491 36.5696 73.7078 36.6851Q73.6664 36.8007 73.6195 36.914Q73.5725 37.0274 73.52 37.1383Q73.4676 37.2493 73.4097 37.3575Q73.3519 37.4657 73.2888 37.571Q73.2257 37.6763 73.1575 37.7783Q73.0893 37.8803 73.0162 37.9789Q72.9431 38.0775 72.8653 38.1723Q72.7874 38.2672 72.705 38.3581Q72.6226 38.4491 72.5358 38.5358Q72.449 38.6226 72.3581 38.705Q72.2672 38.7874 72.1723 38.8653Q72.0775 38.9431 71.9789 39.0162Q71.8803 39.0893 71.7783 39.1575Q71.6763 39.2257 71.571 39.2888Q71.4657 39.3519 71.3575 39.4097Q71.2493 39.4676 71.1383 39.52Q71.0274 39.5725 70.914 39.6195Q70.8007 39.6664 70.6851 39.7078Q70.5696 39.7491 70.4521 39.7847Q70.3347 39.8204 70.2157 39.8502Q70.0966 39.88 69.9762 39.9039Q69.8559 39.9279 69.7345 39.9459Q69.6131 39.9639 69.491 39.9759Q69.3689 39.988 69.2463 39.994Q69.1237 40 69.001 40L4.999 40Q4.87628 40 4.75371 39.994Q4.63114 39.988 4.50901 39.9759Q4.38688 39.9639 4.26549 39.9459Q4.1441 39.9279 4.02374 39.9039Q3.90338 39.88 3.78434 39.8502Q3.6653 39.8204 3.54787 39.7847Q3.43043 39.7491 3.31489 39.7078Q3.19934 39.6664 3.08597 39.6195Q2.97259 39.5725 2.86165 39.52Q2.75072 39.4676 2.64249 39.4097Q2.53426 39.3519 2.429 39.2888Q2.32374 39.2257 2.2217 39.1575Q2.11967 39.0893 2.0211 39.0162Q1.92253 38.9431 1.82767 38.8653Q1.73281 38.7874 1.64188 38.705Q1.55095 38.6226 1.46417 38.5358Q1.3774 38.4491 1.29499 38.3581Q1.21257 38.2672 1.13472 38.1723Q1.05687 38.0775 0.983765 37.9789Q0.910662 37.8803 0.842483 37.7783Q0.774305 37.6763 0.711215 37.571Q0.648125 37.4657 0.590276 37.3575Q0.532426 37.2493 0.479957 37.1383Q0.427489 37.0274 0.380526 36.914Q0.333564 36.8007 0.292221 36.6851Q0.250879 36.5696 0.215255 36.4521Q0.179632 36.3347 0.149814 36.2156Q0.119996 36.0966 0.0960544 35.9762Q0.0721132 35.8559 0.0541066 35.7345Q0.0361001 35.6131 0.0240715 35.491Q0.012043 35.3689 0.00602151 35.2463Q0 35.1237 0 35.001L0 4.999Q0 4.87628 0.00602151 4.75371Q0.012043 4.63114 0.0240715 4.50901Q0.0361001 4.38688 0.0541066 4.26549Q0.0721132 4.1441 0.0960544 4.02374Q0.119996 3.90338 0.149814 3.78434Q0.179632 3.6653 0.215255 3.54787Q0.250879 3.43043 0.292221 3.31489Q0.333564 3.19934 0.380526 3.08597Q0.427489 2.97259 0.479957 2.86165Q0.532426 2.75072 0.590276 2.64249Q0.648125 2.53426 0.711215 2.429Q0.774305 2.32374 0.842483 2.2217Q0.910662 2.11967 0.983765 2.0211Q1.05687 1.92253 1.13472 1.82767Q1.21257 1.73281 1.29499 1.64188Q1.3774 1.55095 1.46417 1.46417Q1.55095 1.3774 1.64188 1.29499Q1.73281 1.21257 1.82767 1.13472Q1.92253 1.05687 2.0211 0.983765Q2.11967 0.910662 2.2217 0.842483Q2.32374 0.774305 2.429 0.711215Q2.53426 0.648125 2.64249 0.590276Q2.75072 0.532426 2.86165 0.479957Q2.97259 0.427489 3.08597 0.380526Q3.19934 0.333564 3.31489 0.292221Q3.43043 0.250879 3.54787 0.215255Q3.6653 0.179632 3.78434 0.149814Q3.90338 0.119996 4.02374 0.0960544Q4.1441 0.0721132 4.26549 0.0541066Q4.38688 0.0361001 4.50901 0.0240715Q4.63114 0.012043 4.75371 0.00602151Q4.87628 0 4.999 0Z" transform="translate(84 0)" id="Rectangle-16-Copy-3" fill="#F3F7FA" stroke="none" />
      <path d="M4.999 0L69.001 0Q69.1237 0 69.2463 0.00602151Q69.3689 0.012043 69.491 0.0240715Q69.6131 0.0361001 69.7345 0.0541066Q69.8559 0.0721132 69.9762 0.0960544Q70.0966 0.119996 70.2157 0.149814Q70.3347 0.179632 70.4521 0.215255Q70.5696 0.250879 70.6851 0.292221Q70.8007 0.333564 70.914 0.380526Q71.0274 0.427489 71.1383 0.479957Q71.2493 0.532426 71.3575 0.590276Q71.4657 0.648125 71.571 0.711215Q71.6763 0.774305 71.7783 0.842483Q71.8803 0.910662 71.9789 0.983765Q72.0775 1.05687 72.1723 1.13472Q72.2672 1.21257 72.3581 1.29499Q72.449 1.3774 72.5358 1.46417Q72.6226 1.55095 72.705 1.64188Q72.7874 1.73281 72.8653 1.82767Q72.9431 1.92253 73.0162 2.0211Q73.0893 2.11967 73.1575 2.2217Q73.2257 2.32374 73.2888 2.429Q73.3519 2.53426 73.4097 2.64249Q73.4676 2.75072 73.52 2.86165Q73.5725 2.97259 73.6195 3.08597Q73.6664 3.19934 73.7078 3.31489Q73.7491 3.43043 73.7847 3.54787Q73.8204 3.6653 73.8502 3.78434Q73.88 3.90338 73.9039 4.02374Q73.9279 4.1441 73.9459 4.26549Q73.9639 4.38688 73.9759 4.50901Q73.9879 4.63114 73.994 4.75371Q74 4.87628 74 4.999L74 35.001Q74 35.1237 73.994 35.2463Q73.9879 35.3689 73.9759 35.491Q73.9639 35.6131 73.9459 35.7345Q73.9279 35.8559 73.9039 35.9762Q73.88 36.0966 73.8502 36.2157Q73.8204 36.3347 73.7847 36.4521Q73.7491 36.5696 73.7078 36.6851Q73.6664 36.8007 73.6195 36.914Q73.5725 37.0274 73.52 37.1383Q73.4676 37.2493 73.4097 37.3575Q73.3519 37.4657 73.2888 37.571Q73.2257 37.6763 73.1575 37.7783Q73.0893 37.8803 73.0162 37.9789Q72.9431 38.0775 72.8653 38.1723Q72.7874 38.2672 72.705 38.3581Q72.6226 38.4491 72.5358 38.5358Q72.449 38.6226 72.3581 38.705Q72.2672 38.7874 72.1723 38.8653Q72.0775 38.9431 71.9789 39.0162Q71.8803 39.0893 71.7783 39.1575Q71.6763 39.2257 71.571 39.2888Q71.4657 39.3519 71.3575 39.4097Q71.2493 39.4676 71.1383 39.52Q71.0274 39.5725 70.914 39.6195Q70.8007 39.6664 70.6851 39.7078Q70.5696 39.7491 70.4521 39.7847Q70.3347 39.8204 70.2157 39.8502Q70.0966 39.88 69.9762 39.9039Q69.8559 39.9279 69.7345 39.9459Q69.6131 39.9639 69.491 39.9759Q69.3689 39.988 69.2463 39.994Q69.1237 40 69.001 40L4.999 40Q4.87628 40 4.75371 39.994Q4.63114 39.988 4.50901 39.9759Q4.38688 39.9639 4.26549 39.9459Q4.1441 39.9279 4.02374 39.9039Q3.90338 39.88 3.78434 39.8502Q3.6653 39.8204 3.54787 39.7847Q3.43043 39.7491 3.31489 39.7078Q3.19934 39.6664 3.08597 39.6195Q2.97259 39.5725 2.86165 39.52Q2.75072 39.4676 2.64249 39.4097Q2.53426 39.3519 2.429 39.2888Q2.32374 39.2257 2.2217 39.1575Q2.11967 39.0893 2.0211 39.0162Q1.92253 38.9431 1.82767 38.8653Q1.73281 38.7874 1.64188 38.705Q1.55095 38.6226 1.46417 38.5358Q1.3774 38.4491 1.29499 38.3581Q1.21257 38.2672 1.13472 38.1723Q1.05687 38.0775 0.983765 37.9789Q0.910662 37.8803 0.842483 37.7783Q0.774305 37.6763 0.711215 37.571Q0.648125 37.4657 0.590276 37.3575Q0.532426 37.2493 0.479957 37.1383Q0.427489 37.0274 0.380526 36.914Q0.333564 36.8007 0.292221 36.6851Q0.250879 36.5696 0.215255 36.4521Q0.179632 36.3347 0.149814 36.2156Q0.119996 36.0966 0.0960544 35.9762Q0.0721132 35.8559 0.0541066 35.7345Q0.0361001 35.6131 0.0240715 35.491Q0.012043 35.3689 0.00602151 35.2463Q0 35.1237 0 35.001L0 4.999Q0 4.87628 0.00602151 4.75371Q0.012043 4.63114 0.0240715 4.50901Q0.0361001 4.38688 0.0541066 4.26549Q0.0721132 4.1441 0.0960544 4.02374Q0.119996 3.90338 0.149814 3.78434Q0.179632 3.6653 0.215255 3.54787Q0.250879 3.43043 0.292221 3.31489Q0.333564 3.19934 0.380526 3.08597Q0.427489 2.97259 0.479957 2.86165Q0.532426 2.75072 0.590276 2.64249Q0.648125 2.53426 0.711215 2.429Q0.774305 2.32374 0.842483 2.2217Q0.910662 2.11967 0.983765 2.0211Q1.05687 1.92253 1.13472 1.82767Q1.21257 1.73281 1.29499 1.64188Q1.3774 1.55095 1.46417 1.46417Q1.55095 1.3774 1.64188 1.29499Q1.73281 1.21257 1.82767 1.13472Q1.92253 1.05687 2.0211 0.983765Q2.11967 0.910662 2.2217 0.842483Q2.32374 0.774305 2.429 0.711215Q2.53426 0.648125 2.64249 0.590276Q2.75072 0.532426 2.86165 0.479957Q2.97259 0.427489 3.08597 0.380526Q3.19934 0.333564 3.31489 0.292221Q3.43043 0.250879 3.54787 0.215255Q3.6653 0.179632 3.78434 0.149814Q3.90338 0.119996 4.02374 0.0960544Q4.1441 0.0721132 4.26549 0.0541066Q4.38688 0.0361001 4.50901 0.0240715Q4.63114 0.012043 4.75371 0.00602151Q4.87628 0 4.999 0Z" transform="translate(168 0)" id="Rectangle-16-Copy-4" fill="#F3F7FA" stroke="none" />
      <path d="M4.999 0L69.001 0Q69.1237 0 69.2463 0.00602151Q69.3689 0.012043 69.491 0.0240715Q69.6131 0.0361001 69.7345 0.0541066Q69.8559 0.0721132 69.9762 0.0960544Q70.0966 0.119996 70.2157 0.149814Q70.3347 0.179632 70.4521 0.215255Q70.5696 0.250879 70.6851 0.292221Q70.8007 0.333564 70.914 0.380526Q71.0274 0.427489 71.1383 0.479957Q71.2493 0.532426 71.3575 0.590276Q71.4657 0.648125 71.571 0.711215Q71.6763 0.774305 71.7783 0.842483Q71.8803 0.910662 71.9789 0.983765Q72.0775 1.05687 72.1723 1.13472Q72.2672 1.21257 72.3581 1.29499Q72.449 1.3774 72.5358 1.46417Q72.6226 1.55095 72.705 1.64188Q72.7874 1.73281 72.8653 1.82767Q72.9431 1.92253 73.0162 2.0211Q73.0893 2.11967 73.1575 2.2217Q73.2257 2.32374 73.2888 2.429Q73.3519 2.53426 73.4097 2.64249Q73.4676 2.75072 73.52 2.86165Q73.5725 2.97259 73.6195 3.08597Q73.6664 3.19934 73.7078 3.31489Q73.7491 3.43043 73.7847 3.54787Q73.8204 3.6653 73.8502 3.78434Q73.88 3.90338 73.9039 4.02374Q73.9279 4.1441 73.9459 4.26549Q73.9639 4.38688 73.9759 4.50901Q73.9879 4.63114 73.994 4.75371Q74 4.87628 74 4.999L74 35.001Q74 35.1237 73.994 35.2463Q73.9879 35.3689 73.9759 35.491Q73.9639 35.6131 73.9459 35.7345Q73.9279 35.8559 73.9039 35.9762Q73.88 36.0966 73.8502 36.2157Q73.8204 36.3347 73.7847 36.4521Q73.7491 36.5696 73.7078 36.6851Q73.6664 36.8007 73.6195 36.914Q73.5725 37.0274 73.52 37.1383Q73.4676 37.2493 73.4097 37.3575Q73.3519 37.4657 73.2888 37.571Q73.2257 37.6763 73.1575 37.7783Q73.0893 37.8803 73.0162 37.9789Q72.9431 38.0775 72.8653 38.1723Q72.7874 38.2672 72.705 38.3581Q72.6226 38.4491 72.5358 38.5358Q72.449 38.6226 72.3581 38.705Q72.2672 38.7874 72.1723 38.8653Q72.0775 38.9431 71.9789 39.0162Q71.8803 39.0893 71.7783 39.1575Q71.6763 39.2257 71.571 39.2888Q71.4657 39.3519 71.3575 39.4097Q71.2493 39.4676 71.1383 39.52Q71.0274 39.5725 70.914 39.6195Q70.8007 39.6664 70.6851 39.7078Q70.5696 39.7491 70.4521 39.7847Q70.3347 39.8204 70.2157 39.8502Q70.0966 39.88 69.9762 39.9039Q69.8559 39.9279 69.7345 39.9459Q69.6131 39.9639 69.491 39.9759Q69.3689 39.988 69.2463 39.994Q69.1237 40 69.001 40L4.999 40Q4.87628 40 4.75371 39.994Q4.63114 39.988 4.50901 39.9759Q4.38688 39.9639 4.26549 39.9459Q4.1441 39.9279 4.02374 39.9039Q3.90338 39.88 3.78434 39.8502Q3.6653 39.8204 3.54787 39.7847Q3.43043 39.7491 3.31489 39.7078Q3.19934 39.6664 3.08597 39.6195Q2.97259 39.5725 2.86165 39.52Q2.75072 39.4676 2.64249 39.4097Q2.53426 39.3519 2.429 39.2888Q2.32374 39.2257 2.2217 39.1575Q2.11967 39.0893 2.0211 39.0162Q1.92253 38.9431 1.82767 38.8653Q1.73281 38.7874 1.64188 38.705Q1.55095 38.6226 1.46417 38.5358Q1.3774 38.4491 1.29499 38.3581Q1.21257 38.2672 1.13472 38.1723Q1.05687 38.0775 0.983765 37.9789Q0.910662 37.8803 0.842483 37.7783Q0.774305 37.6763 0.711215 37.571Q0.648125 37.4657 0.590276 37.3575Q0.532426 37.2493 0.479957 37.1383Q0.427489 37.0274 0.380526 36.914Q0.333564 36.8007 0.292221 36.6851Q0.250879 36.5696 0.215255 36.4521Q0.179632 36.3347 0.149814 36.2156Q0.119996 36.0966 0.0960544 35.9762Q0.0721132 35.8559 0.0541066 35.7345Q0.0361001 35.6131 0.0240715 35.491Q0.012043 35.3689 0.00602151 35.2463Q0 35.1237 0 35.001L0 4.999Q0 4.87628 0.00602151 4.75371Q0.012043 4.63114 0.0240715 4.50901Q0.0361001 4.38688 0.0541066 4.26549Q0.0721132 4.1441 0.0960544 4.02374Q0.119996 3.90338 0.149814 3.78434Q0.179632 3.6653 0.215255 3.54787Q0.250879 3.43043 0.292221 3.31489Q0.333564 3.19934 0.380526 3.08597Q0.427489 2.97259 0.479957 2.86165Q0.532426 2.75072 0.590276 2.64249Q0.648125 2.53426 0.711215 2.429Q0.774305 2.32374 0.842483 2.2217Q0.910662 2.11967 0.983765 2.0211Q1.05687 1.92253 1.13472 1.82767Q1.21257 1.73281 1.29499 1.64188Q1.3774 1.55095 1.46417 1.46417Q1.55095 1.3774 1.64188 1.29499Q1.73281 1.21257 1.82767 1.13472Q1.92253 1.05687 2.0211 0.983765Q2.11967 0.910662 2.2217 0.842483Q2.32374 0.774305 2.429 0.711215Q2.53426 0.648125 2.64249 0.590276Q2.75072 0.532426 2.86165 0.479957Q2.97259 0.427489 3.08597 0.380526Q3.19934 0.333564 3.31489 0.292221Q3.43043 0.250879 3.54787 0.215255Q3.6653 0.179632 3.78434 0.149814Q3.90338 0.119996 4.02374 0.0960544Q4.1441 0.0721132 4.26549 0.0541066Q4.38688 0.0361001 4.50901 0.0240715Q4.63114 0.012043 4.75371 0.00602151Q4.87628 0 4.999 0Z" transform="translate(252 0)" id="Rectangle-16-Copy-5" fill="#F3F7FA" stroke="none" />
      <path d="M4.999 0L125.001 0Q125.124 0 125.246 0.00602151Q125.369 0.012043 125.491 0.0240715Q125.613 0.0361001 125.735 0.0541066Q125.856 0.0721132 125.976 0.0960544Q126.097 0.119996 126.216 0.149814Q126.335 0.179632 126.452 0.215255Q126.57 0.250879 126.685 0.292221Q126.801 0.333564 126.914 0.380526Q127.027 0.427489 127.138 0.479957Q127.249 0.532426 127.358 0.590276Q127.466 0.648125 127.571 0.711215Q127.676 0.774305 127.778 0.842483Q127.88 0.910662 127.979 0.983765Q128.077 1.05687 128.172 1.13472Q128.267 1.21257 128.358 1.29499Q128.449 1.3774 128.536 1.46417Q128.623 1.55095 128.705 1.64188Q128.787 1.73281 128.865 1.82767Q128.943 1.92253 129.016 2.0211Q129.089 2.11967 129.158 2.2217Q129.226 2.32374 129.289 2.429Q129.352 2.53426 129.41 2.64249Q129.468 2.75072 129.52 2.86165Q129.572 2.97259 129.619 3.08597Q129.666 3.19934 129.708 3.31489Q129.749 3.43043 129.785 3.54787Q129.82 3.6653 129.85 3.78434Q129.88 3.90338 129.904 4.02374Q129.928 4.1441 129.946 4.26549Q129.964 4.38688 129.976 4.50901Q129.988 4.63114 129.994 4.75371Q130 4.87628 130 4.999L130 35.001Q130 35.1237 129.994 35.2463Q129.988 35.3689 129.976 35.491Q129.964 35.6131 129.946 35.7345Q129.928 35.8559 129.904 35.9762Q129.88 36.0966 129.85 36.2157Q129.82 36.3347 129.785 36.4521Q129.749 36.5696 129.708 36.6851Q129.666 36.8007 129.619 36.914Q129.572 37.0274 129.52 37.1383Q129.468 37.2493 129.41 37.3575Q129.352 37.4657 129.289 37.571Q129.226 37.6763 129.158 37.7783Q129.089 37.8803 129.016 37.9789Q128.943 38.0775 128.865 38.1723Q128.787 38.2672 128.705 38.3581Q128.623 38.4491 128.536 38.5358Q128.449 38.6226 128.358 38.705Q128.267 38.7874 128.172 38.8653Q128.077 38.9431 127.979 39.0162Q127.88 39.0893 127.778 39.1575Q127.676 39.2257 127.571 39.2888Q127.466 39.3519 127.358 39.4097Q127.249 39.4676 127.138 39.52Q127.027 39.5725 126.914 39.6195Q126.801 39.6664 126.685 39.7078Q126.57 39.7491 126.452 39.7847Q126.335 39.8204 126.216 39.8502Q126.097 39.88 125.976 39.9039Q125.856 39.9279 125.735 39.9459Q125.613 39.9639 125.491 39.9759Q125.369 39.988 125.246 39.994Q125.124 40 125.001 40L4.999 40Q4.87628 40 4.75371 39.994Q4.63114 39.988 4.50901 39.9759Q4.38688 39.9639 4.26549 39.9459Q4.1441 39.9279 4.02374 39.9039Q3.90338 39.88 3.78434 39.8502Q3.6653 39.8204 3.54787 39.7847Q3.43043 39.7491 3.31489 39.7078Q3.19934 39.6664 3.08597 39.6195Q2.97259 39.5725 2.86165 39.52Q2.75072 39.4676 2.64249 39.4097Q2.53426 39.3519 2.429 39.2888Q2.32374 39.2257 2.2217 39.1575Q2.11967 39.0893 2.0211 39.0162Q1.92253 38.9431 1.82767 38.8653Q1.73281 38.7874 1.64188 38.705Q1.55095 38.6226 1.46417 38.5358Q1.3774 38.4491 1.29499 38.3581Q1.21257 38.2672 1.13472 38.1723Q1.05687 38.0775 0.983765 37.9789Q0.910662 37.8803 0.842483 37.7783Q0.774305 37.6763 0.711215 37.571Q0.648125 37.4657 0.590276 37.3575Q0.532426 37.2493 0.479957 37.1383Q0.427489 37.0274 0.380526 36.914Q0.333564 36.8007 0.292221 36.6851Q0.250879 36.5696 0.215255 36.4521Q0.179632 36.3347 0.149814 36.2156Q0.119996 36.0966 0.0960544 35.9762Q0.0721132 35.8559 0.0541066 35.7345Q0.0361001 35.6131 0.0240715 35.491Q0.012043 35.3689 0.00602151 35.2463Q0 35.1237 0 35.001L0 4.999Q0 4.87628 0.00602151 4.75371Q0.012043 4.63114 0.0240715 4.50901Q0.0361001 4.38688 0.0541066 4.26549Q0.0721132 4.1441 0.0960544 4.02374Q0.119996 3.90338 0.149814 3.78434Q0.179632 3.6653 0.215255 3.54787Q0.250879 3.43043 0.292221 3.31489Q0.333564 3.19934 0.380526 3.08597Q0.427489 2.97259 0.479957 2.86165Q0.532426 2.75072 0.590276 2.64249Q0.648125 2.53426 0.711215 2.429Q0.774305 2.32374 0.842483 2.2217Q0.910662 2.11967 0.983765 2.0211Q1.05687 1.92253 1.13472 1.82767Q1.21257 1.73281 1.29499 1.64188Q1.3774 1.55095 1.46417 1.46417Q1.55095 1.3774 1.64188 1.29499Q1.73281 1.21257 1.82767 1.13472Q1.92253 1.05687 2.0211 0.983765Q2.11967 0.910662 2.2217 0.842483Q2.32374 0.774305 2.429 0.711215Q2.53426 0.648125 2.64249 0.590276Q2.75072 0.532426 2.86165 0.479957Q2.97259 0.427489 3.08597 0.380526Q3.19934 0.333564 3.31489 0.292221Q3.43043 0.250879 3.54787 0.215255Q3.6653 0.179632 3.78434 0.149814Q3.90338 0.119996 4.02374 0.0960544Q4.1441 0.0721132 4.26549 0.0541066Q4.38688 0.0361001 4.50901 0.0240715Q4.63114 0.012043 4.75371 0.00602151Q4.87628 0 4.999 0Z" transform="translate(0 89)" id="Rectangle-16-Copy" fill="#F3F7FA" stroke="none" />
      <path d="M4.999 0L125.001 0Q125.124 0 125.246 0.00602151Q125.369 0.012043 125.491 0.0240715Q125.613 0.0361001 125.735 0.0541066Q125.856 0.0721132 125.976 0.0960544Q126.097 0.119996 126.216 0.149814Q126.335 0.179632 126.452 0.215255Q126.57 0.250879 126.685 0.292221Q126.801 0.333564 126.914 0.380526Q127.027 0.427489 127.138 0.479957Q127.249 0.532426 127.358 0.590276Q127.466 0.648125 127.571 0.711215Q127.676 0.774305 127.778 0.842483Q127.88 0.910662 127.979 0.983765Q128.077 1.05687 128.172 1.13472Q128.267 1.21257 128.358 1.29499Q128.449 1.3774 128.536 1.46417Q128.623 1.55095 128.705 1.64188Q128.787 1.73281 128.865 1.82767Q128.943 1.92253 129.016 2.0211Q129.089 2.11967 129.158 2.2217Q129.226 2.32374 129.289 2.429Q129.352 2.53426 129.41 2.64249Q129.468 2.75072 129.52 2.86165Q129.572 2.97259 129.619 3.08597Q129.666 3.19934 129.708 3.31489Q129.749 3.43043 129.785 3.54787Q129.82 3.6653 129.85 3.78434Q129.88 3.90338 129.904 4.02374Q129.928 4.1441 129.946 4.26549Q129.964 4.38688 129.976 4.50901Q129.988 4.63114 129.994 4.75371Q130 4.87628 130 4.999L130 35.001Q130 35.1237 129.994 35.2463Q129.988 35.3689 129.976 35.491Q129.964 35.6131 129.946 35.7345Q129.928 35.8559 129.904 35.9762Q129.88 36.0966 129.85 36.2157Q129.82 36.3347 129.785 36.4521Q129.749 36.5696 129.708 36.6851Q129.666 36.8007 129.619 36.914Q129.572 37.0274 129.52 37.1383Q129.468 37.2493 129.41 37.3575Q129.352 37.4657 129.289 37.571Q129.226 37.6763 129.158 37.7783Q129.089 37.8803 129.016 37.9789Q128.943 38.0775 128.865 38.1723Q128.787 38.2672 128.705 38.3581Q128.623 38.4491 128.536 38.5358Q128.449 38.6226 128.358 38.705Q128.267 38.7874 128.172 38.8653Q128.077 38.9431 127.979 39.0162Q127.88 39.0893 127.778 39.1575Q127.676 39.2257 127.571 39.2888Q127.466 39.3519 127.358 39.4097Q127.249 39.4676 127.138 39.52Q127.027 39.5725 126.914 39.6195Q126.801 39.6664 126.685 39.7078Q126.57 39.7491 126.452 39.7847Q126.335 39.8204 126.216 39.8502Q126.097 39.88 125.976 39.9039Q125.856 39.9279 125.735 39.9459Q125.613 39.9639 125.491 39.9759Q125.369 39.988 125.246 39.994Q125.124 40 125.001 40L4.999 40Q4.87628 40 4.75371 39.994Q4.63114 39.988 4.50901 39.9759Q4.38688 39.9639 4.26549 39.9459Q4.1441 39.9279 4.02374 39.9039Q3.90338 39.88 3.78434 39.8502Q3.6653 39.8204 3.54787 39.7847Q3.43043 39.7491 3.31489 39.7078Q3.19934 39.6664 3.08597 39.6195Q2.97259 39.5725 2.86165 39.52Q2.75072 39.4676 2.64249 39.4097Q2.53426 39.3519 2.429 39.2888Q2.32374 39.2257 2.2217 39.1575Q2.11967 39.0893 2.0211 39.0162Q1.92253 38.9431 1.82767 38.8653Q1.73281 38.7874 1.64188 38.705Q1.55095 38.6226 1.46417 38.5358Q1.3774 38.4491 1.29499 38.3581Q1.21257 38.2672 1.13472 38.1723Q1.05687 38.0775 0.983765 37.9789Q0.910662 37.8803 0.842483 37.7783Q0.774305 37.6763 0.711215 37.571Q0.648125 37.4657 0.590276 37.3575Q0.532426 37.2493 0.479957 37.1383Q0.427489 37.0274 0.380526 36.914Q0.333564 36.8007 0.292221 36.6851Q0.250879 36.5696 0.215255 36.4521Q0.179632 36.3347 0.149814 36.2156Q0.119996 36.0966 0.0960544 35.9762Q0.0721132 35.8559 0.0541066 35.7345Q0.0361001 35.6131 0.0240715 35.491Q0.012043 35.3689 0.00602151 35.2463Q0 35.1237 0 35.001L0 4.999Q0 4.87628 0.00602151 4.75371Q0.012043 4.63114 0.0240715 4.50901Q0.0361001 4.38688 0.0541066 4.26549Q0.0721132 4.1441 0.0960544 4.02374Q0.119996 3.90338 0.149814 3.78434Q0.179632 3.6653 0.215255 3.54787Q0.250879 3.43043 0.292221 3.31489Q0.333564 3.19934 0.380526 3.08597Q0.427489 2.97259 0.479957 2.86165Q0.532426 2.75072 0.590276 2.64249Q0.648125 2.53426 0.711215 2.429Q0.774305 2.32374 0.842483 2.2217Q0.910662 2.11967 0.983765 2.0211Q1.05687 1.92253 1.13472 1.82767Q1.21257 1.73281 1.29499 1.64188Q1.3774 1.55095 1.46417 1.46417Q1.55095 1.3774 1.64188 1.29499Q1.73281 1.21257 1.82767 1.13472Q1.92253 1.05687 2.0211 0.983765Q2.11967 0.910662 2.2217 0.842483Q2.32374 0.774305 2.429 0.711215Q2.53426 0.648125 2.64249 0.590276Q2.75072 0.532426 2.86165 0.479957Q2.97259 0.427489 3.08597 0.380526Q3.19934 0.333564 3.31489 0.292221Q3.43043 0.250879 3.54787 0.215255Q3.6653 0.179632 3.78434 0.149814Q3.90338 0.119996 4.02374 0.0960544Q4.1441 0.0721132 4.26549 0.0541066Q4.38688 0.0361001 4.50901 0.0240715Q4.63114 0.012043 4.75371 0.00602151Q4.87628 0 4.999 0Z" transform="translate(195 89)" id="Rectangle-16-Copy-2" fill="#F3F7FA" stroke="none" />
    </g>
  </g>
</svg>