<?xml version="1.0" encoding="utf-8"?>
<svg width="171px" height="86px" viewBox="0 0 171 86" version="1.1" xmlns:xlink="http://www.w3.org/1999/xlink" xmlns="http://www.w3.org/2000/svg">
  <desc>Created with Lunacy</desc>
  <g id="Карта" transform="translate(0.5 0.5)">
    <path d="M9.999 0L160.001 0Q160.246 0 160.492 0.0120442Q160.737 0.0240885 160.981 0.0481479Q161.225 0.0722074 161.468 0.108224Q161.711 0.144241 161.952 0.192128Q162.192 0.240015 162.431 0.299657Q162.669 0.3593 162.904 0.430553Q163.138 0.501807 163.37 0.584501Q163.601 0.667194 163.827 0.761128Q164.054 0.855062 164.276 0.960011Q164.498 1.06496 164.714 1.18067Q164.931 1.29638 165.142 1.42257Q165.352 1.54876 165.556 1.68514Q165.76 1.82151 165.957 1.96773Q166.155 2.11395 166.344 2.26967Q166.534 2.42539 166.716 2.59023Q166.898 2.75507 167.071 2.92864Q167.245 3.10221 167.41 3.28408Q167.575 3.46596 167.73 3.6557Q167.886 3.84545 168.032 4.0426Q168.178 4.23976 168.315 4.44385Q168.451 4.64795 168.577 4.85849Q168.704 5.06903 168.819 5.2855Q168.935 5.50198 169.04 5.72388Q169.145 5.94577 169.239 6.17255Q169.333 6.39932 169.415 6.63044Q169.498 6.86155 169.569 7.09644Q169.641 7.33134 169.7 7.56944Q169.76 7.80755 169.808 8.04829Q169.856 8.28904 169.892 8.53184Q169.928 8.77465 169.952 9.01893Q169.976 9.26321 169.988 9.50837Q170 9.75354 170 9.999L170 75.001Q170 75.2465 169.988 75.4916Q169.976 75.7368 169.952 75.9811Q169.928 76.2253 169.892 76.4682Q169.856 76.711 169.808 76.9517Q169.76 77.1925 169.7 77.4306Q169.641 77.6687 169.569 77.9035Q169.498 78.1384 169.415 78.3695Q169.333 78.6007 169.239 78.8274Q169.145 79.0542 169.04 79.2761Q168.935 79.498 168.819 79.7145Q168.704 79.931 168.577 80.1415Q168.451 80.3521 168.315 80.5561Q168.178 80.7602 168.032 80.9574Q167.886 81.1545 167.73 81.3443Q167.575 81.534 167.41 81.7159Q167.245 81.8978 167.071 82.0714Q166.898 82.2449 166.716 82.4098Q166.534 82.5746 166.344 82.7303Q166.155 82.8861 165.957 83.0323Q165.76 83.1785 165.556 83.3149Q165.352 83.4512 165.142 83.5774Q164.931 83.7036 164.714 83.8193Q164.498 83.935 164.276 84.04Q164.054 84.1449 163.827 84.2389Q163.601 84.3328 163.37 84.4155Q163.138 84.4982 162.904 84.5695Q162.669 84.6407 162.431 84.7003Q162.192 84.76 161.952 84.8079Q161.711 84.8558 161.468 84.8918Q161.225 84.9278 160.981 84.9519Q160.737 84.9759 160.492 84.988Q160.246 85 160.001 85L9.999 85Q9.75354 85 9.50837 84.988Q9.26321 84.9759 9.01893 84.9519Q8.77465 84.9278 8.53184 84.8918Q8.28904 84.8558 8.04829 84.8079Q7.80755 84.76 7.56944 84.7003Q7.33134 84.6407 7.09644 84.5695Q6.86155 84.4982 6.63044 84.4155Q6.39932 84.3328 6.17255 84.2389Q5.94577 84.1449 5.72388 84.04Q5.50198 83.935 5.2855 83.8193Q5.06903 83.7036 4.85849 83.5774Q4.64795 83.4512 4.44385 83.3149Q4.23976 83.1785 4.0426 83.0323Q3.84545 82.8861 3.6557 82.7303Q3.46596 82.5746 3.28408 82.4098Q3.10221 82.2449 2.92864 82.0714Q2.75507 81.8978 2.59023 81.7159Q2.42539 81.534 2.26967 81.3443Q2.11395 81.1545 1.96773 80.9574Q1.82151 80.7602 1.68514 80.5561Q1.54876 80.3521 1.42257 80.1415Q1.29638 79.931 1.18067 79.7145Q1.06496 79.498 0.960011 79.2761Q0.855062 79.0542 0.761128 78.8274Q0.667194 78.6007 0.584501 78.3696Q0.501807 78.1384 0.430553 77.9036Q0.3593 77.6687 0.299657 77.4306Q0.240015 77.1925 0.192128 76.9517Q0.144241 76.711 0.108224 76.4682Q0.0722074 76.2253 0.0481479 75.9811Q0.0240885 75.7368 0.0120442 75.4916Q0 75.2465 0 75.001L0 9.999Q0 9.75354 0.0120442 9.50837Q0.0240885 9.26321 0.0481479 9.01893Q0.0722074 8.77465 0.108224 8.53184Q0.144241 8.28904 0.192128 8.04829Q0.240015 7.80755 0.299657 7.56944Q0.3593 7.33134 0.430553 7.09644Q0.501807 6.86155 0.584501 6.63044Q0.667194 6.39932 0.761128 6.17255Q0.855062 5.94577 0.960011 5.72388Q1.06496 5.50198 1.18067 5.2855Q1.29638 5.06903 1.42257 4.85849Q1.54876 4.64795 1.68514 4.44385Q1.82151 4.23976 1.96773 4.0426Q2.11395 3.84545 2.26967 3.6557Q2.42539 3.46596 2.59023 3.28408Q2.75507 3.10221 2.92864 2.92864Q3.10221 2.75507 3.28408 2.59023Q3.46596 2.42539 3.6557 2.26967Q3.84545 2.11395 4.0426 1.96773Q4.23976 1.82151 4.44385 1.68514Q4.64795 1.54876 4.85849 1.42257Q5.06903 1.29638 5.2855 1.18067Q5.50198 1.06496 5.72388 0.960011Q5.94577 0.855062 6.17255 0.761128Q6.39932 0.667194 6.63044 0.584501Q6.86155 0.501807 7.09644 0.430553Q7.33134 0.3593 7.56944 0.299657Q7.80755 0.240015 8.04829 0.192128Q8.28904 0.144241 8.53184 0.108224Q8.77465 0.0722074 9.01893 0.0481479Q9.26321 0.0240885 9.50837 0.0120442Q9.75354 0 9.999 0Z" id="Rectangle-15" fill="#C5D5E6" stroke="none" />
    <g id="Мастеркард" transform="translate(30 20)">
      <path d="M12.5 25C19.4036 25 25 19.4036 25 12.5C25 5.59644 19.4036 0 12.5 0C5.59644 0 0 5.59644 0 12.5C0 19.4036 5.59644 25 12.5 25Z" id="Oval" fill="#FFFFFF" fill-opacity="0.8" stroke="none" />
      <path d="M12.5 25C19.4036 25 25 19.4036 25 12.5C25 5.59644 19.4036 0 12.5 0C5.59644 0 0 5.59644 0 12.5C0 19.4036 5.59644 25 12.5 25Z" transform="translate(16 0)" id="Oval-Copy" fill="#FFFFFF" fill-opacity="0.7" stroke="none" />
    </g>
    <g id="visa-pay-logo" transform="translate(92 24)">
      <g id="Layer_1_copy_24_">
        <path d="M34.146 9.85C34.118 12.813 31.462 14.725 27.375 14.725C25.632 14.707 23.953 14.364 23.043 13.965L23.59 10.772L24.091 11C25.368 11.532 26.195 11.747 27.752 11.747C28.869 11.747 30.065 11.309 30.077 10.354C30.084 9.729 29.576 9.284 28.061 8.584C26.585 7.901 24.631 6.757 24.656 4.708C24.677 1.935 27.385 0 31.227 0C32.733 0 33.94 0.31 34.71 0.599L34.184 3.691L33.833 3.526C33.117 3.238 32.195 2.96 30.923 2.98C29.401 2.98 28.695 3.614 28.695 4.207C28.687 4.875 29.519 5.315 30.879 5.977C33.126 6.992 34.163 8.229 34.146 9.85ZM0.05 0.122L0 0.408C4.691 1.545 7.795 4.288 9.083 7.585L7.772 1.281C7.546 0.412 6.891 0.153 6.078 0.122L0.05 0.122ZM23.043 0.246L19.153 0.246L16.722 14.512L20.61 14.512L23.043 0.246ZM17.581 0.258L11.458 14.497L7.344 14.504L3.862 2.607C6.365 4.209 8.497 6.751 9.248 8.521L9.654 9.99L13.462 0.261L17.581 0.258ZM44.688 0.26L41.684 0.26C40.751 0.26 40.057 0.514 39.647 1.444L33.874 14.518L37.957 14.518C37.957 14.518 38.623 12.76 38.774 12.375C39.221 12.375 43.188 12.381 43.753 12.381C43.869 12.879 44.227 14.518 44.227 14.518L47.834 14.518L44.688 0.26ZM41.442 5.469C41.442 5.469 40.213 8.637 39.893 9.456L43.123 9.456C42.967 8.743 42.222 5.337 42.222 5.337L41.96 4.107C41.8617 4.36969 41.7306 4.71063 41.6247 4.98583L41.6245 4.98634L41.6243 4.98692L41.624 4.98773C41.5139 5.27416 41.4313 5.48888 41.442 5.469Z" transform="translate(0 0.554)" id="Shape" fill="#FFFFFF" fill-rule="evenodd" stroke="none" />
      </g>
    </g>
    <g id="Карта-Visa/MasterCard" fill="#FFFFFF" transform="translate(17 61)">
      <path d="M119.994 12.2012L120.955 12.2012L120.955 3.31836L119.994 3.31836L119.994 7.0332L119.971 7.0332Q119.408 6.06055 118.172 6.06055Q116.924 6.06055 116.174 6.95703Q115.424 7.85352 115.424 9.3418Q115.424 10.7305 116.101 11.5361Q116.777 12.3418 117.908 12.3418Q119.303 12.3418 119.971 11.1816L119.994 11.1816L119.994 12.2012ZM43.3535 4.67773Q43.0957 4.67773 42.9141 4.50195Q42.7324 4.32617 42.7324 4.05664Q42.7324 3.78711 42.9141 3.6084Q43.0957 3.42969 43.3535 3.42969Q43.6172 3.42969 43.8018 3.6084Q43.9863 3.78711 43.9863 4.05664Q43.9863 4.31445 43.8018 4.49609Q43.6172 4.67774 43.3535 4.67773ZM103.975 11.8496Q103.043 12.3418 101.654 12.3418Q99.8613 12.3418 98.7832 11.1875Q97.7051 10.0332 97.7051 8.1582Q97.7051 6.14258 98.918 4.90039Q100.131 3.6582 101.994 3.6582Q103.189 3.6582 103.975 4.00391L103.975 5.05273Q103.072 4.54883 101.982 4.54883Q100.535 4.54883 99.6357 5.51563Q98.7363 6.48242 98.7363 8.09961Q98.7363 9.63477 99.5771 10.5459Q100.418 11.457 101.783 11.457Q103.049 11.457 103.975 10.8945L103.975 11.8496ZM5.57813 12.2012L6.94922 12.2012L3.09375 7.83008L6.69727 3.79883L5.47266 3.79883L2.33203 7.46094Q2.19141 7.61914 2.10938 7.74805L2.08594 7.74805L2.08594 3.79883L1.10156 3.79883L1.10156 12.2012L2.08594 12.2012L2.08594 8.06445L2.10938 8.06445Q2.15039 8.14063 2.33203 8.35742L5.57813 12.2012ZM38.6719 12.2012L41.7832 3.79883L40.7227 3.79883L38.3496 10.4492Q38.2031 10.8535 38.1563 11.2051L38.1328 11.2051Q38.0742 10.7832 37.9629 10.4609L35.6367 3.79883L34.541 3.79883L37.5879 12.2012L38.6719 12.2012ZM56.7246 13.5957L60.7559 3.79883L59.8477 3.79883L55.8281 13.5957L56.7246 13.5957ZM70.3359 12.2012L69.3574 12.2012L69.3574 6.56445Q69.3574 5.89648 69.4395 4.92969L69.416 4.92969Q69.2754 5.49805 69.1641 5.74414L66.293 12.2012L65.8125 12.2012L62.9473 5.79102Q62.8242 5.50977 62.6953 4.92969L62.6719 4.92969Q62.7188 5.43359 62.7188 6.57617L62.7188 12.2012L61.7695 12.2012L61.7695 3.79883L63.0703 3.79883L65.6484 9.6582Q65.9473 10.332 66.0352 10.666L66.0703 10.666Q66.3223 9.97461 66.4746 9.63477L69.1055 3.79883L70.3359 3.79883L70.3359 12.2012ZM85.5 12.3301Q86.0566 12.3301 86.3965 12.1426L86.3965 11.3223Q86.1328 11.5215 85.7695 11.5215Q85.2949 11.5215 85.0898 11.2637Q84.8848 11.0059 84.8848 10.4023L84.8848 7.02148L86.3965 7.02148L86.3965 6.20117L84.8848 6.20117L84.8848 4.42578L83.9238 4.73633L83.9238 6.20117L82.8926 6.20117L82.8926 7.02148L83.9238 7.02148L83.9238 10.5723Q83.9238 12.3301 85.5 12.3301ZM11.2676 12.2012L12.2285 12.2012L12.2285 8.29883Q12.2285 6.06055 10.1133 6.06055Q8.95898 6.06055 8.07422 6.62305L8.07422 7.60742Q8.94727 6.86914 10.0313 6.86914Q11.2676 6.86914 11.2676 8.39844L9.46875 8.65039Q7.48828 8.92578 7.48828 10.6074Q7.48828 11.3926 7.99512 11.8672Q8.50195 12.3418 9.39844 12.3418Q10.6172 12.3418 11.2441 11.2637L11.2676 11.2637L11.2676 12.2012ZM15.0234 11.334L15 11.334L15 14.9609L14.0391 14.9609L14.0391 6.20117L15 6.20117L15 7.25586L15.0234 7.25586Q15.7324 6.06055 17.0977 6.06055Q18.2578 6.06055 18.9082 6.86621Q19.5586 7.67188 19.5586 9.02539Q19.5586 10.5313 18.8262 11.4365Q18.0938 12.3418 16.8223 12.3418Q15.6563 12.3418 15.0234 11.334ZM30.3105 12.2012L29.3496 12.2012L29.3496 11.2637L29.3262 11.2637Q28.6992 12.3418 27.4805 12.3418Q26.584 12.3418 26.0771 11.8672Q25.5703 11.3926 25.5703 10.6074Q25.5703 8.92578 27.5508 8.65039L29.3496 8.39844Q29.3496 6.86914 28.1133 6.86914Q27.0293 6.86914 26.1563 7.60742L26.1563 6.62305Q27.041 6.06055 28.1953 6.06055Q30.3105 6.06055 30.3105 8.29883L30.3105 12.2012ZM45.4043 10.9531L45.4043 11.9844Q46.084 12.3418 47.0098 12.3418Q47.4785 12.3418 47.9063 12.2363Q48.334 12.1309 48.6621 11.9141Q48.9902 11.6973 49.1865 11.3691Q49.3828 11.041 49.3828 10.5957Q49.3828 10.2324 49.2627 9.96875Q49.1426 9.70508 48.9199 9.50293Q48.6973 9.30078 48.3809 9.13965Q48.0645 8.97852 47.666 8.82617Q47.3672 8.70898 47.1328 8.60938Q46.8984 8.50977 46.7344 8.38672Q46.5703 8.26367 46.4854 8.10547Q46.4004 7.94727 46.4004 7.71289Q46.4004 7.52539 46.4854 7.37012Q46.5703 7.21484 46.7256 7.10352Q46.8809 6.99219 47.0977 6.93066Q47.3145 6.86914 47.584 6.86914Q48.4453 6.86914 49.1074 7.30273L49.1074 6.33008Q48.4922 6.06055 47.7129 6.06055Q47.2734 6.06055 46.8604 6.17188Q46.4473 6.2832 46.125 6.50293Q45.8027 6.72266 45.6094 7.04785Q45.416 7.37305 45.416 7.79492Q45.416 8.14063 45.5186 8.39844Q45.6211 8.65625 45.8232 8.8584Q46.0254 9.06055 46.3271 9.22168Q46.6289 9.38281 47.0273 9.54102Q47.3145 9.65234 47.5635 9.75488Q47.8125 9.85742 47.9971 9.98633Q48.1816 10.1152 48.29 10.2822Q48.3984 10.4492 48.3984 10.6895Q48.3984 11.5332 47.1328 11.5332Q46.1895 11.5332 45.4043 10.9531ZM55.1543 12.2012L54.1934 12.2012L54.1934 11.2637L54.1699 11.2637Q53.543 12.3418 52.3242 12.3418Q51.4277 12.3418 50.9209 11.8672Q50.4141 11.3926 50.4141 10.6074Q50.4141 8.92578 52.3945 8.65039L54.1934 8.39844Q54.1934 6.86914 52.957 6.86914Q51.873 6.86914 51 7.60742L51 6.62305Q51.8848 6.06055 53.0391 6.06055Q55.1543 6.06055 55.1543 8.29883L55.1543 12.2012ZM75.75 12.2012L76.7109 12.2012L76.7109 8.29883Q76.7109 6.06055 74.5957 6.06055Q73.4414 6.06055 72.5566 6.62305L72.5566 7.60742Q73.4297 6.86914 74.5137 6.86914Q75.75 6.86914 75.75 8.39844L73.9512 8.65039Q71.9707 8.92578 71.9707 10.6074Q71.9707 11.3926 72.4775 11.8672Q72.9844 12.3418 73.8809 12.3418Q75.0996 12.3418 75.7266 11.2637L75.75 11.2637L75.75 12.2012ZM78.1582 11.9844L78.1582 10.9531Q78.9434 11.5332 79.8867 11.5332Q81.1523 11.5332 81.1523 10.6895Q81.1523 10.4492 81.0439 10.2822Q80.9355 10.1152 80.751 9.98633Q80.5664 9.85742 80.3174 9.75488Q80.0684 9.65234 79.7813 9.54102Q79.3828 9.38281 79.0811 9.22168Q78.7793 9.06055 78.5771 8.8584Q78.375 8.65625 78.2725 8.39844Q78.1699 8.14063 78.1699 7.79492Q78.1699 7.37305 78.3633 7.04785Q78.5566 6.72266 78.8789 6.50293Q79.2012 6.2832 79.6143 6.17188Q80.0273 6.06055 80.4668 6.06055Q81.2461 6.06055 81.8613 6.33008L81.8613 7.30273Q81.1992 6.86914 80.3379 6.86914Q80.0684 6.86914 79.8516 6.93066Q79.6348 6.99219 79.4795 7.10352Q79.3242 7.21484 79.2393 7.37012Q79.1543 7.52539 79.1543 7.71289Q79.1543 7.94727 79.2393 8.10547Q79.3242 8.26367 79.4883 8.38672Q79.6523 8.50977 79.8867 8.60938Q80.1211 8.70898 80.4199 8.82617Q80.8184 8.97852 81.1348 9.13965Q81.4512 9.30078 81.6738 9.50293Q81.8965 9.70508 82.0166 9.96875Q82.1367 10.2324 82.1367 10.5957Q82.1367 11.041 81.9404 11.3691Q81.7441 11.6973 81.416 11.9141Q81.0879 12.1309 80.6602 12.2363Q80.2324 12.3418 79.7637 12.3418Q78.8379 12.3418 78.1582 11.9844ZM92.502 9.44141L88.2656 9.44141Q88.2891 10.4434 88.8047 10.9883Q89.3203 11.5332 90.2227 11.5332Q91.2363 11.5332 92.0859 10.8652L92.0859 11.7676Q91.2949 12.3418 89.9941 12.3418Q88.7227 12.3418 87.9961 11.5244Q87.2695 10.707 87.2695 9.22461Q87.2695 7.82422 88.0635 6.94238Q88.8574 6.06055 90.0352 6.06055Q91.2129 6.06055 91.8574 6.82227Q92.502 7.58398 92.502 8.9375L92.502 9.44141ZM108.891 12.2012L109.852 12.2012L109.852 8.29883Q109.852 6.06055 107.736 6.06055Q106.582 6.06055 105.697 6.62305L105.697 7.60742Q106.57 6.86914 107.654 6.86914Q108.891 6.86914 108.891 8.39844L107.092 8.65039Q105.111 8.92578 105.111 10.6074Q105.111 11.3926 105.618 11.8672Q106.125 12.3418 107.021 12.3418Q108.24 12.3418 108.867 11.2637L108.891 11.2637L108.891 12.2012ZM96.3574 6.98047Q96.832 6.98047 97.084 7.17383L97.084 6.17773Q96.8848 6.0957 96.5098 6.0957Q95.9883 6.0957 95.5664 6.4502Q95.1445 6.80469 94.9395 7.4375L94.916 7.4375L94.916 6.20117L93.9551 6.20117L93.9551 12.2012L94.916 12.2012L94.916 9.14258Q94.916 8.14063 95.3291 7.56055Q95.7422 6.98047 96.3574 6.98047ZM114.791 7.17383Q114.539 6.98047 114.064 6.98047Q113.449 6.98047 113.036 7.56055Q112.623 8.14063 112.623 9.14258L112.623 12.2012L111.662 12.2012L111.662 6.20117L112.623 6.20117L112.623 7.4375L112.646 7.4375Q112.852 6.80469 113.273 6.4502Q113.695 6.0957 114.217 6.0957Q114.592 6.0957 114.791 6.17773L114.791 7.17383ZM23.0625 7.02148L24.8613 7.02148L24.8613 6.20117L20.2969 6.20117L20.2969 7.02148L22.1016 7.02148L22.1016 12.2012L23.0625 12.2012L23.0625 7.02148ZM43.8223 12.2012L42.8613 12.2012L42.8613 6.20117L43.8223 6.20117L43.8223 12.2012ZM15 8.91406L15 9.75195Q15 10.4961 15.4834 11.0146Q15.9668 11.5332 16.7109 11.5332Q17.584 11.5332 18.0791 10.8652Q18.5742 10.1973 18.5742 9.00781Q18.5742 8.00586 18.1113 7.4375Q17.6484 6.86914 16.8574 6.86914Q16.0195 6.86914 15.5098 7.45215Q15 8.03516 15 8.91406ZM91.5176 8.62695Q91.5117 7.79492 91.1162 7.33203Q90.7207 6.86914 90.0176 6.86914Q89.3379 6.86914 88.8633 7.35547Q88.3887 7.8418 88.2773 8.62695L91.5176 8.62695ZM119.994 8.60352L119.994 9.48828Q119.994 10.373 119.493 10.9531Q118.992 11.5332 118.189 11.5332Q117.375 11.5332 116.892 10.9326Q116.408 10.332 116.408 9.29492Q116.408 8.1582 116.912 7.51367Q117.416 6.86914 118.295 6.86914Q119.033 6.86914 119.514 7.37305Q119.994 7.87695 119.994 8.60352ZM9.82031 9.36523L11.2676 9.16602L11.2676 9.76367Q11.2676 10.5313 10.8018 11.0322Q10.3359 11.5332 9.62109 11.5332Q9.09961 11.5332 8.78613 11.2549Q8.47266 10.9766 8.47266 10.5371Q8.47266 9.93359 8.8125 9.69629Q9.15234 9.45898 9.82031 9.36523ZM29.3496 9.16602L27.9023 9.36523Q27.2344 9.45898 26.8945 9.69629Q26.5547 9.93359 26.5547 10.5371Q26.5547 10.9766 26.8682 11.2549Q27.1816 11.5332 27.7031 11.5332Q28.418 11.5332 28.8838 11.0322Q29.3496 10.5313 29.3496 9.76367L29.3496 9.16602ZM54.1934 9.16602L52.7461 9.36523Q52.0781 9.45898 51.7383 9.69629Q51.3984 9.93359 51.3984 10.5371Q51.3984 10.9766 51.7119 11.2549Q52.0254 11.5332 52.5469 11.5332Q53.2617 11.5332 53.7275 11.0322Q54.1934 10.5313 54.1934 9.76367L54.1934 9.16602ZM74.3027 9.36523L75.75 9.16602L75.75 9.76367Q75.75 10.5313 75.2842 11.0322Q74.8184 11.5332 74.1035 11.5332Q73.582 11.5332 73.2686 11.2549Q72.9551 10.9766 72.9551 10.5371Q72.9551 9.93359 73.2949 9.69629Q73.6348 9.45898 74.3027 9.36523ZM107.443 9.36523L108.891 9.16602L108.891 9.76367Q108.891 10.5313 108.425 11.0322Q107.959 11.5332 107.244 11.5332Q106.723 11.5332 106.409 11.2549Q106.096 10.9766 106.096 10.5371Q106.096 9.93359 106.436 9.69629Q106.775 9.45898 107.443 9.36523Z" />
    </g>
  </g>
</svg>