<?xml version="1.0" encoding="utf-8"?>
<svg width="170px" height="85px" viewBox="0 0 170 85" version="1.1" xmlns:xlink="http://www.w3.org/1999/xlink" xmlns="http://www.w3.org/2000/svg">
  <desc>Created with Lunacy</desc>
  <g id="Карта-Copy-3">
    <path d="M9.999 0L160.001 0Q160.246 0 160.492 0.0120442Q160.737 0.0240885 160.981 0.0481479Q161.225 0.0722074 161.468 0.108224Q161.711 0.144241 161.952 0.192128Q162.192 0.240015 162.431 0.299657Q162.669 0.3593 162.904 0.430553Q163.138 0.501807 163.37 0.584501Q163.601 0.667194 163.827 0.761128Q164.054 0.855062 164.276 0.960011Q164.498 1.06496 164.714 1.18067Q164.931 1.29638 165.142 1.42257Q165.352 1.54876 165.556 1.68514Q165.76 1.82151 165.957 1.96773Q166.155 2.11395 166.344 2.26967Q166.534 2.42539 166.716 2.59023Q166.898 2.75507 167.071 2.92864Q167.245 3.10221 167.41 3.28408Q167.575 3.46596 167.73 3.6557Q167.886 3.84545 168.032 4.0426Q168.178 4.23976 168.315 4.44385Q168.451 4.64795 168.577 4.85849Q168.704 5.06903 168.819 5.2855Q168.935 5.50198 169.04 5.72388Q169.145 5.94577 169.239 6.17255Q169.333 6.39932 169.415 6.63044Q169.498 6.86155 169.569 7.09644Q169.641 7.33134 169.7 7.56944Q169.76 7.80755 169.808 8.04829Q169.856 8.28904 169.892 8.53184Q169.928 8.77465 169.952 9.01893Q169.976 9.26321 169.988 9.50837Q170 9.75354 170 9.999L170 75.001Q170 75.2465 169.988 75.4916Q169.976 75.7368 169.952 75.9811Q169.928 76.2253 169.892 76.4682Q169.856 76.711 169.808 76.9517Q169.76 77.1925 169.7 77.4306Q169.641 77.6687 169.569 77.9035Q169.498 78.1384 169.415 78.3695Q169.333 78.6007 169.239 78.8274Q169.145 79.0542 169.04 79.2761Q168.935 79.498 168.819 79.7145Q168.704 79.931 168.577 80.1415Q168.451 80.3521 168.315 80.5561Q168.178 80.7602 168.032 80.9574Q167.886 81.1545 167.73 81.3443Q167.575 81.534 167.41 81.7159Q167.245 81.8978 167.071 82.0714Q166.898 82.2449 166.716 82.4098Q166.534 82.5746 166.344 82.7303Q166.155 82.8861 165.957 83.0323Q165.76 83.1785 165.556 83.3149Q165.352 83.4512 165.142 83.5774Q164.931 83.7036 164.714 83.8193Q164.498 83.935 164.276 84.04Q164.054 84.1449 163.827 84.2389Q163.601 84.3328 163.37 84.4155Q163.138 84.4982 162.904 84.5695Q162.669 84.6407 162.431 84.7003Q162.192 84.76 161.952 84.8079Q161.711 84.8558 161.468 84.8918Q161.225 84.9278 160.981 84.9519Q160.737 84.9759 160.492 84.988Q160.246 85 160.001 85L9.999 85Q9.75354 85 9.50837 84.988Q9.26321 84.9759 9.01893 84.9519Q8.77465 84.9278 8.53184 84.8918Q8.28904 84.8558 8.04829 84.8079Q7.80755 84.76 7.56944 84.7003Q7.33134 84.6407 7.09644 84.5695Q6.86155 84.4982 6.63044 84.4155Q6.39932 84.3328 6.17255 84.2389Q5.94577 84.1449 5.72388 84.04Q5.50198 83.935 5.2855 83.8193Q5.06903 83.7036 4.85849 83.5774Q4.64795 83.4512 4.44385 83.3149Q4.23976 83.1785 4.0426 83.0323Q3.84545 82.8861 3.6557 82.7303Q3.46596 82.5746 3.28408 82.4098Q3.10221 82.2449 2.92864 82.0714Q2.75507 81.8978 2.59023 81.7159Q2.42539 81.534 2.26967 81.3443Q2.11395 81.1545 1.96773 80.9574Q1.82151 80.7602 1.68514 80.5561Q1.54876 80.3521 1.42257 80.1415Q1.29638 79.931 1.18067 79.7145Q1.06496 79.498 0.960011 79.2761Q0.855062 79.0542 0.761128 78.8274Q0.667194 78.6007 0.584501 78.3696Q0.501807 78.1384 0.430553 77.9036Q0.3593 77.6687 0.299657 77.4306Q0.240015 77.1925 0.192128 76.9517Q0.144241 76.711 0.108224 76.4682Q0.0722074 76.2253 0.0481479 75.9811Q0.0240885 75.7368 0.0120442 75.4916Q0 75.2465 0 75.001L0 9.999Q0 9.75354 0.0120442 9.50837Q0.0240885 9.26321 0.0481479 9.01893Q0.0722074 8.77465 0.108224 8.53184Q0.144241 8.28904 0.192128 8.04829Q0.240015 7.80755 0.299657 7.56944Q0.3593 7.33134 0.430553 7.09644Q0.501807 6.86155 0.584501 6.63044Q0.667194 6.39932 0.761128 6.17255Q0.855062 5.94577 0.960011 5.72388Q1.06496 5.50198 1.18067 5.2855Q1.29638 5.06903 1.42257 4.85849Q1.54876 4.64795 1.68514 4.44385Q1.82151 4.23976 1.96773 4.0426Q2.11395 3.84545 2.26967 3.6557Q2.42539 3.46596 2.59023 3.28408Q2.75507 3.10221 2.92864 2.92864Q3.10221 2.75507 3.28408 2.59023Q3.46596 2.42539 3.6557 2.26967Q3.84545 2.11395 4.0426 1.96773Q4.23976 1.82151 4.44385 1.68514Q4.64795 1.54876 4.85849 1.42257Q5.06903 1.29638 5.2855 1.18067Q5.50198 1.06496 5.72388 0.960011Q5.94577 0.855062 6.17255 0.761128Q6.39932 0.667194 6.63044 0.584501Q6.86155 0.501807 7.09644 0.430553Q7.33134 0.3593 7.56944 0.299657Q7.80755 0.240015 8.04829 0.192128Q8.28904 0.144241 8.53184 0.108224Q8.77465 0.0722074 9.01893 0.0481479Q9.26321 0.0240885 9.50837 0.0120442Q9.75354 0 9.999 0Z" id="Rectangle-15" fill="#C5D5E6" stroke="none" />
    <g id="WebMoney" fill="#FFFFFF" transform="translate(53 61)">
      <path d="M19.4414 11.334L19.418 11.334L19.418 12.2012L18.457 12.2012L18.457 3.31836L19.418 3.31836L19.418 7.25586L19.4414 7.25586Q20.1504 6.06055 21.5156 6.06055Q22.6699 6.06055 23.3232 6.86621Q23.9766 7.67188 23.9766 9.02539Q23.9766 10.5313 23.2441 11.4365Q22.5117 12.3418 21.2402 12.3418Q20.0508 12.3418 19.4414 11.334ZM8.68945 12.2012L11.0625 3.79883L9.99609 3.79883L8.2793 10.2676Q8.14453 10.7715 8.12109 11.0762L8.09766 11.0762Q8.05078 10.625 7.95703 10.291L6.17578 3.79883L5.23242 3.79883L3.375 10.2441Q3.22266 10.7773 3.19336 11.0879L3.16406 11.0879Q3.13477 10.6484 3.02344 10.2441L1.23633 3.79883L0.152344 3.79883L2.61328 12.2012L3.75586 12.2012L5.49609 6.04883Q5.61328 5.63867 5.64844 5.20508L5.67188 5.20508Q5.69531 5.66797 5.80664 6.06055L7.53516 12.2012L8.68945 12.2012ZM33.2285 12.2012L34.207 12.2012L34.207 3.79883L32.9766 3.79883L30.3457 9.63477Q30.1934 9.97461 29.9414 10.666L29.9063 10.666Q29.8184 10.332 29.5195 9.6582L26.9414 3.79883L25.6406 3.79883L25.6406 12.2012L26.5898 12.2012L26.5898 6.57617Q26.5898 5.43359 26.543 4.92969L26.5664 4.92969Q26.6953 5.50977 26.8184 5.79102L29.6836 12.2012L30.1641 12.2012L33.0352 5.74414Q33.1465 5.49805 33.2871 4.92969L33.3105 4.92969Q33.2285 5.89648 33.2285 6.56445L33.2285 12.2012ZM12.7676 9.44141L17.0039 9.44141L17.0039 8.9375Q17.0039 7.58398 16.3594 6.82227Q15.7148 6.06055 14.5371 6.06055Q13.3594 6.06055 12.5654 6.94238Q11.7715 7.82422 11.7715 9.22461Q11.7715 10.707 12.498 11.5244Q13.2246 12.3418 14.4961 12.3418Q15.7969 12.3418 16.5879 11.7676L16.5879 10.8652Q15.7383 11.5332 14.7246 11.5332Q13.8223 11.5332 13.3066 10.9883Q12.791 10.4434 12.7676 9.44141ZM38.7949 12.3418Q37.4648 12.3418 36.6709 11.501Q35.877 10.6602 35.877 9.27148Q35.877 7.75977 36.7031 6.91016Q37.5293 6.06055 38.9355 6.06055Q40.2773 6.06055 41.0303 6.88672Q41.7832 7.71289 41.7832 9.17773Q41.7832 10.6133 40.9717 11.4775Q40.1602 12.3418 38.7949 12.3418ZM47.3379 12.2012L48.2988 12.2012L48.2988 8.5332Q48.2988 7.33203 47.7773 6.69629Q47.2559 6.06055 46.2715 6.06055Q44.9824 6.06055 44.3027 7.19727L44.2793 7.19727L44.2793 6.20117L43.3184 6.20117L43.3184 12.2012L44.2793 12.2012L44.2793 8.7793Q44.2793 7.95313 44.751 7.41113Q45.2227 6.86914 45.9434 6.86914Q47.3379 6.86914 47.3379 8.7793L47.3379 12.2012ZM54.9316 9.44141L50.6953 9.44141Q50.7188 10.4434 51.2344 10.9883Q51.75 11.5332 52.6523 11.5332Q53.666 11.5332 54.5156 10.8652L54.5156 11.7676Q53.7246 12.3418 52.4238 12.3418Q51.1523 12.3418 50.4258 11.5244Q49.6992 10.707 49.6992 9.22461Q49.6992 7.82422 50.4932 6.94238Q51.2871 6.06055 52.4648 6.06055Q53.6426 6.06055 54.2871 6.82227Q54.9316 7.58398 54.9316 8.9375L54.9316 9.44141ZM58.4004 13.1621L61.1602 6.20117L60.1641 6.20117L58.459 10.8301Q58.3711 11.1348 58.3418 11.2754L58.3066 11.2754Q58.2129 10.9063 58.1836 10.8184L56.5605 6.20117L55.4941 6.20117L57.8379 12.1895L57.3574 13.3262Q56.9941 14.1934 56.2676 14.1934Q56.0098 14.1934 55.6992 14.0879L55.6992 14.9492Q55.9512 15.0254 56.3262 15.0254Q57.6621 15.0254 58.4004 13.1621ZM15.6182 7.33203Q16.0137 7.79492 16.0195 8.62695L12.7793 8.62695Q12.8906 7.8418 13.3652 7.35547Q13.8398 6.86914 14.5195 6.86914Q15.2227 6.86914 15.6182 7.33203ZM19.418 8.91406L19.418 9.75195Q19.418 10.4961 19.9014 11.0146Q20.3848 11.5332 21.1289 11.5332Q22.002 11.5332 22.4971 10.8652Q22.9922 10.1973 22.9922 9.00781Q22.9922 8.00586 22.5293 7.4375Q22.0664 6.86914 21.2754 6.86914Q20.4375 6.86914 19.9277 7.45215Q19.418 8.03516 19.418 8.91406ZM38.8652 6.86914Q37.9395 6.86914 37.4004 7.49902Q36.8613 8.12891 36.8613 9.23633Q36.8613 10.3027 37.4063 10.918Q37.9512 11.5332 38.8652 11.5332Q39.7969 11.5332 40.2979 10.9297Q40.7988 10.3262 40.7988 9.21289Q40.7988 8.08789 40.2979 7.47852Q39.7969 6.86914 38.8652 6.86914ZM53.9473 8.62695Q53.9414 7.79492 53.5459 7.33203Q53.1504 6.86914 52.4473 6.86914Q51.7676 6.86914 51.293 7.35547Q50.8184 7.8418 50.707 8.62695L53.9473 8.62695Z" />
    </g>
    <g id="webmoney-paying-logo" transform="translate(45 20)">
      <g id="Capa_1_1_">
        <g id="Layer_1_copy_32_">
          <path d="M75.7936 18.728L73.68 16.312L71.2368 18.5648L67.112 13.9744L68.2592 12.9648L65.3712 9.7312L66.5248 8.72L63.5936 5.4896L68.168 1.3712L69.6208 2.9616L72.0736 0.7728L73.5232 2.2752L74.4896 1.4096C74.2736 1.2848 74.0576 1.1696 73.8384 1.0656C72.4448 0.384 70.88 0 69.232 0C63.4448 0 58.7232 4.72 58.7232 10.5088C58.7232 16.296 63.4448 21.016 69.232 21.016C71.112 21.016 72.8832 20.5184 74.4112 19.6464C74.9152 19.3616 75.3744 19.0528 75.7936 18.728ZM75.5024 2.3664L74.2528 3.4912L75.3776 4.7408L76.6256 3.616L75.5024 2.3664ZM73.6784 4.5536L71.9904 2.6784L70.1152 4.3664L71.8032 6.2416L73.6784 4.5536ZM68.0272 3.3264L70.2768 5.8256L67.7776 8.0752L65.528 5.576L68.0272 3.3264ZM17.6048 8.9856C17.9664 8.7936 18.5776 8.5424 19.2256 8.5424C20.712 8.5424 21.5152 9.5728 21.5152 11.488C21.5152 13.7312 20.4368 14.824 18.6976 14.824C18.0608 14.824 17.0784 14.6192 16.3584 14.2368L16.3584 5.8672L17.6048 5.568L17.6048 8.9856ZM75.8496 7.2048L77.096 6.08L78.2192 7.3296L76.9744 8.4544L75.8496 7.2048ZM9.776 6.1792L8.3728 6.1792L7.1488 12.5216L7.064 12.5216L5.3968 6.1792L4.3296 6.1792L2.7712 12.5216L2.6864 12.5216L1.344 6.1792L0 6.1792L1.9424 14.68L3.2384 14.68L4.8208 8.696L4.9056 8.696L6.536 14.68L7.832 14.68L9.776 6.1792ZM29.5984 6.1792L31.0848 6.1792L31.0848 14.68L29.7904 14.68L29.7904 8.5152L29.6832 8.5152L27.2368 14.68L26.4704 14.68L24.024 8.6608L23.9168 8.6608L23.9168 14.68L22.8384 14.68L22.8384 6.1792L24.288 6.1792L26.9744 12.88L27.0352 12.88L29.5984 6.1792ZM71.8432 8.136L73.5312 10.0096L75.4064 8.3216L73.7152 6.448L71.8432 8.136ZM69.568 12.3424L67.3184 9.8432L69.8176 7.5904L72.0672 10.0896L69.568 12.3424ZM44.0464 14.68L44.0464 10.3408C44.0464 9.1056 43.5056 8.5424 42.0688 8.5408C40.6896 8.5408 39.5504 9.104 39.0112 9.4272L39.0112 14.6784L40.256 14.6784L40.256 9.9312C40.6272 9.7152 41.24 9.4992 41.7184 9.4992C42.3344 9.4992 42.8 9.6672 42.8 10.6144L42.8 14.68L44.0464 14.68ZM10.1248 11.6832C10.1248 9.8592 11.048 8.5424 12.8464 8.5424C14.3456 8.5424 15.2688 9.512 15.2672 11.4704L15.2672 11.9104L11.36 11.9104C11.36 13.352 11.9488 13.9856 13.1824 13.9856C13.8288 13.9856 14.4288 13.7552 15.088 13.3632L15.088 14.2704C14.5488 14.5856 13.8288 14.8256 12.9664 14.8256C10.9536 14.8256 10.1248 13.5792 10.1248 11.6832ZM32.4032 11.6832C32.4032 9.5856 33.5552 8.5424 35.1376 8.5424C36.72 8.5424 37.872 9.584 37.872 11.6832C37.872 13.7328 36.7808 14.8256 35.1376 14.8256C33.496 14.8256 32.4032 13.7328 32.4032 11.6832ZM47.8832 8.5424C46.0832 8.5424 45.1616 9.8592 45.1616 11.6832C45.1616 13.5792 45.9888 14.8256 48.0016 14.8256C48.864 14.8256 49.5808 14.5856 50.1216 14.2704L50.1216 13.3632C49.464 13.7552 48.864 13.9856 48.2176 13.9856C46.984 13.9856 46.3936 13.352 46.3936 11.9104L50.3024 11.9104L50.3024 11.4704C50.3056 9.512 49.3808 8.5424 47.8832 8.5424ZM56.2528 8.744L54.968 8.744L53.6064 13.16L53.5344 13.16L52 8.7456L50.6816 8.7456L52.9824 14.744C52.6944 15.632 52.192 16.2784 51.376 16.2784L51.376 17.2592C52.7536 17.2592 53.4848 16.3968 54.0848 14.7408L56.2528 8.744ZM11.384 11.1056C11.5152 9.9088 12.08 9.344 12.8112 9.344C13.4592 9.344 14.0704 9.8448 14.1296 11.1056L11.384 11.1056ZM47.848 9.344C47.1168 9.344 46.552 9.9088 46.4176 11.1056L49.1664 11.1056C49.1072 9.8448 48.4928 9.344 47.848 9.344ZM35.1376 13.984C34.2864 13.984 33.6624 13.328 33.6624 11.6832C33.6624 10.064 34.3472 9.3808 35.1376 9.3808C35.9536 9.3808 36.6128 10.064 36.6128 11.6832C36.6128 13.328 35.9888 13.984 35.1376 13.984ZM18.6976 13.984C18.3968 13.984 17.9792 13.9616 17.5952 13.7936L17.5952 9.872C18.0752 9.608 18.424 9.4768 18.9008 9.4768C19.704 9.4768 20.2576 9.9696 20.2576 11.4896C20.2576 13.4336 19.5856 13.984 18.6976 13.984ZM78.6976 9.7904L79.8208 11.04L78.5728 12.1648L77.448 10.9152L78.6976 9.7904ZM75.1344 13.968L73.4432 12.096L75.3184 10.4064L77.0096 12.2784L75.1344 13.968ZM69.0976 14.1632L71.3456 16.6624L73.8448 14.4128L71.5952 11.9136L69.0976 14.1632ZM76.968 14.1936L78.656 16.0688L76.7808 17.7568L75.0912 15.8816L76.968 14.1936Z" transform="translate(0 0.6016)" id="Shape" fill="#FFFFFF" fill-rule="evenodd" stroke="none" />
        </g>
      </g>
    </g>
  </g>
</svg>