<svg width="40px" height="38px" viewBox="0 0 40 38" version="1.1" xmlns:xlink="http://www.w3.org/1999/xlink" xmlns="http://www.w3.org/2000/svg">
  <desc>Created with Lunacy</desc>
  <defs>
    <linearGradient x1="0.2622764" y1="0.8273336" x2="1.31910932" y2="-0.171376273" id="gradient_1">
      <stop offset="0" stop-color="#E53656" />
      <stop offset="1" stop-color="#6082D8" />
    </linearGradient>
  </defs>
  <path d="M18 3C18 3 13.032 0 10 0C4.347 0 0 4.47466 0 10C0 17.1853 6.12 22.9014 16 31L16.3851 32.2248C17.1686 33.2958 18.8314 33.2958 19.6149 32.2248C19.9964 31.7034 20.2329 31.2152 20 31C29.88 22.9014 36 17.1853 36 10C36 4.47466 31.653 0 26 0C22.968 0 18 3 18 3Z" transform="translate(2 2)" id="Лого" fill="url(#gradient_1)" stroke="none" />
</svg>